<svg xmlns="http://www.w3.org/2000/svg" width="74.228" height="70.995" viewBox="0 0 74.228 70.995"><g transform="translate(-179.668 -1986)"><g transform="translate(179.668 1986)"><g transform="translate(2.685 2.745)"><g transform="translate(0 0)"><path d="M125.261,248.265l-4.033,4.034a31.461,31.461,0,0,0,22.309,9.256v-5.707A25.78,25.78,0,0,1,125.261,248.265Z" transform="translate(-111.972 -198.425)" fill="#7a8045"/><path d="M114.326,223.369h-5.707a31.464,31.464,0,0,0,9.256,22.309l4.033-4.034A25.774,25.774,0,0,1,114.326,223.369Z" transform="translate(-108.619 -191.804)" fill="#7a8045"/><path d="M151.618,255.847v5.707a31.467,31.467,0,0,0,22.31-9.256l-4.034-4.034A25.774,25.774,0,0,1,151.618,255.847Z" transform="translate(-120.054 -198.425)" fill="#7a8045" opacity="0.6"/><path d="M189.8,223.369H184.1a25.772,25.772,0,0,1-7.582,18.275l4.034,4.034A31.466,31.466,0,0,0,189.8,223.369Z" transform="translate(-126.675 -191.804)" fill="#7a8045" opacity="0.3"/><path d="M121.908,197.011l-4.033-4.034a31.464,31.464,0,0,0-9.256,22.31h5.707A25.777,25.777,0,0,1,121.908,197.011Z" transform="translate(-108.619 -183.722)" fill="#7a8045"/><path d="M169.894,193.658l4.034-4.034a31.466,31.466,0,0,0-22.31-9.255v5.707A25.779,25.779,0,0,1,169.894,193.658Z" transform="translate(-120.054 -180.369)" fill="#7a8045" opacity="0.3"/><path d="M184.1,215.287H189.8a31.469,31.469,0,0,0-9.255-22.31l-4.034,4.034A25.775,25.775,0,0,1,184.1,215.287Z" transform="translate(-126.675 -183.722)" fill="#7a8045" opacity="0.3"/><path d="M143.536,186.076v-5.707a31.466,31.466,0,0,0-22.309,9.255l4.033,4.034A25.782,25.782,0,0,1,143.536,186.076Z" transform="translate(-111.972 -180.369)" fill="#7a8045"/></g></g><g transform="translate(0 0)" fill="none" stroke="#7a8045" stroke-width="1" stroke-dasharray="6"><ellipse cx="34.338" cy="34.338" rx="34.338" ry="34.338" stroke="none"/><ellipse cx="34.338" cy="34.338" rx="33.838" ry="33.838" fill="none"/></g><path d="M153.224,328.847a2.011,2.011,0,1,1-2.011-2.01A2.011,2.011,0,0,1,153.224,328.847Z" transform="translate(-146.517 -318.204)" fill="#7a8045"/><path d="M151.166,327.818a.982.982,0,1,1-.982-.982A.982.982,0,0,1,151.166,327.818Z" transform="translate(-140.484 -320.168)" fill="#7a8045"/><path d="M151.166,327.818a.982.982,0,1,1-.982-.982A.982.982,0,0,1,151.166,327.818Z" transform="translate(-80.527 -304.392)" fill="#7a8045"/><path d="M152.79,328.63A1.794,1.794,0,1,1,151,326.836,1.794,1.794,0,0,1,152.79,328.63Z" transform="translate(-78.563 -299.519)" fill="#7a8045"/><path d="M152.79,328.63A1.794,1.794,0,1,1,151,326.836,1.794,1.794,0,0,1,152.79,328.63Z" transform="translate(-103.156 -259.429)" fill="#7a8045"/><path d="M152.79,328.63A1.794,1.794,0,1,1,151,326.836,1.794,1.794,0,0,1,152.79,328.63Z" transform="translate(-96.427 -325.251)" fill="#a2aa5c"/></g><circle cx="24" cy="24" r="24" transform="translate(189.668 1996)" fill="#cad473"/><g transform="translate(-1570.33 1757.063)"><g transform="translate(1768.496 248.5)"><path d="M1769,268.618v-.632a.5.5,0,0,1,.48-.5c4.369-.176,8.823-2.693,11.733-5.693,2.01-2.073,3.284-4.377,3.284-6.295a2.235,2.235,0,0,0-.53-1.7,1.135,1.135,0,0,0-.75-.309.5.5,0,0,1-.39-.212,3.752,3.752,0,0,1,.01-4.026l.015-.018a.447.447,0,0,1,.425-.23H1799.5a.5.5,0,0,1,.5.5,17.177,17.177,0,0,1-.125,2.363,4.485,4.485,0,0,1-.15.693,1.14,1.14,0,0,1-.235.447,1.85,1.85,0,0,1-.975.447l-1.025.053a2.911,2.911,0,0,0,0,3c.975,1.444,2,2.524,2,5,0,4.45-2.859,9.074-6.664,12.585s-8.553,5.911-12.332,5.911a21.723,21.723,0,0,1-7.908-1.3,17.083,17.083,0,0,0-3.114-.691c-.4,0-.48-.256-.475-.5v-1.052a.5.5,0,0,1,.455-.5,27.041,27.041,0,0,0,6.619-1.455.465.465,0,0,1-.16.026c-3.415-.015-4.549-.89-6.543-1.439l-.115-.047a.494.494,0,0,1-.255-.45v-.829a.5.5,0,0,1,.15-.355.5.5,0,0,1,.355-.145,12.811,12.811,0,0,0,3.559-.52.485.485,0,0,1-.2-.025c-1.395-.475-2.369-1.209-3.529-1.617l-.075-.032a.5.5,0,0,1-.26-.45Zm23.49-8.178.14-.245a14.039,14.039,0,0,0,1.865-5.2,3.031,3.031,0,0,0-.19-1.453.849.849,0,0,0-.81-.546,1.954,1.954,0,0,0-1.095.706c-.97,1.052-1.86,3.244.045,6.3A.481.481,0,0,1,1792.49,260.44Zm-4.049-1.571A4.354,4.354,0,0,0,1789,257a9.519,9.519,0,0,0-.28-2.855c-.155-.41-.38-.644-.72-.644a1.157,1.157,0,0,0-1.145,1.059,4.8,4.8,0,0,0,1.5,3.77.5.5,0,0,1,.085.541Z" transform="translate(-1768.999 -249)" fill="#a2aa5c" fill-rule="evenodd"/></g><g transform="translate(1768.497 248.5)"><path d="M1797.059,255a2.494,2.494,0,0,0,.435,1.5c.975,1.444,2,2.524,2,5,0,4.45-2.859,9.074-6.664,12.585s-8.553,5.911-12.333,5.911a21.732,21.732,0,0,1-7.913-1.3,16.911,16.911,0,0,0-3.114-.691.424.424,0,0,1-.47-.5v-.377c10.178.771,15.612-2,19.746-6.134,5.4-5.407,7.424-12.182,8.313-16Zm-14.807-4a4.494,4.494,0,0,1,.585-1.751c0-.007,0-.012.01-.018a.455.455,0,0,1,.425-.23H1799.5a.5.5,0,0,1,.5.5,17.177,17.177,0,0,1-.125,2.363,4.454,4.454,0,0,1-.155.693,1.14,1.14,0,0,1-.23.447,1.885,1.885,0,0,1-.975.447l-1.025.053a2.38,2.38,0,0,0-.145.276c.17-1.176.045-2.775-1.855-2.775Z" transform="translate(-1768.999 -249)" fill="#7a8045" fill-rule="evenodd"/><path d="M1791.465,266.212a7.519,7.519,0,0,0,1.015,2.4.549.549,0,0,1,.075.21,7.442,7.442,0,0,1-.525,1.032c-1.51,2.465-7.148,10.032-14.5,12.747a13.509,13.509,0,0,1-1.83.531c-3.229-.054-4.354-.9-6.3-1.437l-.115-.047a.493.493,0,0,1-.215-.244,20.982,20.982,0,0,0,15.467-5.8C1789.536,270.9,1791.055,267.874,1791.465,266.212Z" transform="translate(-1769.034 -257.608)" fill="#7a8045" fill-rule="evenodd"/><path d="M1786.891,261.687a5.918,5.918,0,0,0,1.465,2.642c.015.016.025.033.04.049a5.693,5.693,0,0,1-.9,1.87c-3.254,4.653-9.278,9.07-14.247,10.5a3.615,3.615,0,0,1-.64.118c.15-.038.3-.078.455-.12a.5.5,0,0,1-.205-.025c-1.39-.475-2.365-1.209-3.529-1.617l-.07-.032a.5.5,0,0,1-.26-.38,14.942,14.942,0,0,0,12.5-4.441c4.679-4.538,5.369-7.353,5.394-8.561Zm-.08-.687h0Z" transform="translate(-1768.999 -255.001)" fill="#7a8045" fill-rule="evenodd"/></g><g transform="translate(1767.996 248)"><path d="M1770.869,270.117a10.578,10.578,0,0,1-2.339.129.494.494,0,0,0-.37.134.485.485,0,0,0-.16.364v1.75a.5.5,0,0,0,.385.486c1.63.386,2.64,1,4.424,1.327a26.755,26.755,0,0,1-4.349.687.5.5,0,0,0-.46.5v2a.5.5,0,0,0,.5.5,10.174,10.174,0,0,1,3.434.679,22.119,22.119,0,0,0,8.063,1.321c3.879,0,8.768-2.439,12.673-6.043s6.823-8.378,6.823-12.953c0-2.608-1.06-3.757-2.084-5.279a2.263,2.263,0,0,1-.115-2.209,4.588,4.588,0,0,0,.815-.072,2.362,2.362,0,0,0,1.24-.585,2.762,2.762,0,0,0,.525-1.421,20.253,20.253,0,0,0,.12-2.951.5.5,0,0,0-.5-.481h-17a.494.494,0,0,0-.405.209s-1.934,2.73.02,5.107a.493.493,0,0,0,.485.172.659.659,0,0,1,.53.171,1.8,1.8,0,0,1,.37,1.339c0,1.817-1.24,3.983-3.144,5.947-2.929,3.02-7.458,5.551-11.853,5.551a.5.5,0,0,0-.5.5v1.5a.5.5,0,0,0,.365.482A14.031,14.031,0,0,1,1770.869,270.117Zm4.544,3.411a31.56,31.56,0,0,0,16.112-13.759c-2.094-3.348-1.055-5.749.005-6.9a2.435,2.435,0,0,1,1.465-.868,1.328,1.328,0,0,1,1.265.833,3.579,3.579,0,0,1,.235,1.7,14.515,14.515,0,0,1-1.93,5.4.436.436,0,0,1-.055.1,31.1,31.1,0,0,1-2.57,3.9c-4.224,5.471-11.318,11.137-20.941,12.017v1.053a11.811,11.811,0,0,1,3.244.716,21.284,21.284,0,0,0,7.753,1.271c3.679,0,8.293-2.36,11.993-5.778s6.5-7.893,6.5-12.218c0-2.341-.99-3.354-1.914-4.719a3.454,3.454,0,0,1-.01-3.545.5.5,0,0,1,.47-.232,3.669,3.669,0,0,0,.89-.046,1.34,1.34,0,0,0,.71-.309.662.662,0,0,0,.115-.246,4.229,4.229,0,0,0,.13-.614A15.934,15.934,0,0,0,1799,249h-16.232a3.235,3.235,0,0,0-.035,3.488,1.636,1.636,0,0,1,1.075.446A2.676,2.676,0,0,1,1784.5,255c0,2.019-1.31,4.46-3.424,6.643-2.994,3.085-7.579,5.664-12.073,5.845v.643c1.16.407,2.135,1.141,3.524,1.616a28.961,28.961,0,0,0,11-6.7,21.121,21.121,0,0,0,3.7-4.419q.142-.236.255-.461a5.262,5.262,0,0,1-1.625-4.2,1.625,1.625,0,0,1,1.635-1.465,1.258,1.258,0,0,1,1.19.971,9.968,9.968,0,0,1,.31,3.028,5.57,5.57,0,0,1-.9,2.629,22.2,22.2,0,0,1-3.884,4.643c-4.1,3.867-10.173,7.536-15.212,7.493v.844C1770.959,272.645,1772.064,273.514,1775.414,273.528Zm1.03,2.394c-.325.035-.645.059-.965.072a.5.5,0,1,0,.04,1c.345-.014.685-.04,1.035-.078a.5.5,0,0,0-.11-.994Zm10.233-4.641a20.96,20.96,0,0,1-7.808,4.179.5.5,0,0,0,.26.965,21.974,21.974,0,0,0,8.188-4.375.5.5,0,0,0-.64-.769Zm3.434-3.464c-.32.39-.65.767-.985,1.131a.5.5,0,0,0,.74.676c.345-.377.685-.769,1.015-1.173a.5.5,0,0,0-.77-.634Zm4.909-8.977a28.741,28.741,0,0,1-3.354,6.879.5.5,0,1,0,.83.556,29.654,29.654,0,0,0,3.475-7.119.5.5,0,1,0-.95-.316ZM1793,253a1.552,1.552,0,0,0-.22.1,2.621,2.621,0,0,0-.52.44c-.82.894-1.525,2.689-.19,5.188a12.116,12.116,0,0,0,1.42-4.265,2.555,2.555,0,0,0-.14-1.209A.389.389,0,0,0,1793,253Zm-5.1,4.115a2.359,2.359,0,0,0,.09-.616,11.477,11.477,0,0,0-.17-2.4,1.622,1.622,0,0,0-.17-.469c-.04-.071-.085-.128-.16-.128-.36,0-.58.269-.655.653a4,4,0,0,0,1.065,2.962Z" transform="translate(-1768 -248)" fill-rule="evenodd"/></g></g></g></svg>