<svg xmlns="http://www.w3.org/2000/svg" width="83" height="83" viewBox="0 0 83 83"><g transform="translate(-8182.947 10377.964)"><circle cx="41.5" cy="41.5" r="41.5" transform="translate(8182.947 -10377.964)" fill="#cfeaea"/><g transform="translate(8193.911 -10367)"><g transform="translate(7.5 7.5)"><path d="M158.141,40.243c-2.525,6.51-7.892,8.539-14.27,7.789.482,4.1-.183,7.775-2.445,10.552-15.568-4.594-25.221-22.67-11.219-40.783C146.191,18.682,162.112,29,158.141,40.243Z" transform="translate(-112.685 -16.845)" fill="#9cda82"/><path d="M44.99,57.983A12.568,12.568,0,0,1,39.646,61.7C24.892,66.91,11.737,37.881,19.392,19.389A33.038,33.038,0,0,1,33.772,17.2C24.432,35.061,32.677,53.213,44.99,57.983Z" transform="translate(-16.248 -16.245)" fill="#7dce5c"/><path d="M45.912,41.279,37.438,33.59a2.78,2.78,0,0,1-.889-1.693,31.255,31.255,0,0,1,.382-10.407A31.854,31.854,0,0,1,40.037,12.9a1.16,1.16,0,0,0-1.974-1.213,34.774,34.774,0,0,0-4.4,8.931A35.285,35.285,0,0,0,32.234,26.9a.927.927,0,0,1-1.542.569l-6.176-5.6a2.8,2.8,0,0,1-.909-2.2q.038-.841.121-1.681a31.849,31.849,0,0,1,2.191-8.869,1.16,1.16,0,0,0-2.091-1,34.778,34.778,0,0,0-3.393,9.109.463.463,0,0,1-.764.245L11.376,9.942a1.037,1.037,0,0,0-1.367-.04,1.013,1.013,0,0,0-.089,1.449l7.548,8.319a.463.463,0,0,1-.245.764,34.773,34.773,0,0,0-9.109,3.393,1.16,1.16,0,0,0,1,2.091,31.843,31.843,0,0,1,8.869-2.191q.84-.083,1.681-.121a2.8,2.8,0,0,1,2.2.909l5.6,6.176a.927.927,0,0,1-.569,1.542,35.285,35.285,0,0,0-6.282,1.428,34.776,34.776,0,0,0-8.931,4.4A1.16,1.16,0,0,0,12.9,40.037a31.853,31.853,0,0,1,8.591-3.106A31.255,31.255,0,0,1,31.9,36.549a2.78,2.78,0,0,1,1.693.889l7.689,8.474a3.28,3.28,0,0,0,4.748.115h0A3.28,3.28,0,0,0,45.912,41.279Z" transform="translate(-7.5 -7.5)" fill="#bbe5a7"/><circle cx="2.317" cy="2.317" r="2.317" transform="translate(4.792 20.537)" fill="#f6ca56"/><g transform="translate(32.35 13.456)"><circle cx="2.317" cy="2.317" r="2.317" transform="translate(1.063)" fill="#f6ca56"/><circle cx="2.317" cy="2.317" r="2.317" transform="translate(4.929 0.724)" fill="#f8ea69"/><circle cx="2.317" cy="2.317" r="2.317" transform="translate(0 6.407)" fill="#f6ca56"/><circle cx="2.317" cy="2.317" r="2.317" transform="translate(1.922 3.099)" fill="#fab658"/><circle cx="2.317" cy="2.317" r="2.317" transform="translate(3.529 7.055)" fill="#f8ea69"/><circle cx="2.317" cy="2.317" r="2.317" transform="translate(5.836 4.646)" fill="#f6ca56"/></g><circle cx="2.317" cy="2.317" r="2.317" transform="translate(8.698 18.98)" fill="#f8ea69"/><circle cx="2.317" cy="2.317" r="2.317" transform="translate(19.206 8.821)" fill="#f6ca56"/><circle cx="2.317" cy="2.317" r="2.317" transform="translate(19.664 4.786)" fill="#f8ea69"/><g transform="translate(13.456 32.35)"><circle cx="2.317" cy="2.317" r="2.317" transform="translate(0 1.063)" fill="#f8ea69"/><circle cx="2.317" cy="2.317" r="2.317" transform="translate(0.724 4.929)" fill="#f6ca56"/><circle cx="2.317" cy="2.317" r="2.317" transform="translate(6.407)" fill="#f8ea69"/><circle cx="2.317" cy="2.317" r="2.317" transform="translate(3.099 1.922)" fill="#fab658"/><circle cx="2.317" cy="2.317" r="2.317" transform="translate(7.055 3.529)" fill="#f6ca56"/><circle cx="2.317" cy="2.317" r="2.317" transform="translate(4.646 5.836)" fill="#f8ea69"/></g></g><g transform="translate(7.5 7.5)"><path d="M207.16,18.51a43.561,43.561,0,0,1,12.359,2.85" transform="translate(-188.652 -17.489)" fill="none" stroke="#000" stroke-linecap="round" stroke-linejoin="round" stroke-miterlimit="10" stroke-width="1"/><path d="M17.151,64.755A33.028,33.028,0,0,1,18.982,52.78" transform="translate(-16.248 -48.583)" fill="none" stroke="#000" stroke-linecap="round" stroke-linejoin="round" stroke-miterlimit="10" stroke-width="1"/><path d="M110.26,396.361c3.914,4.486,8.8,6.743,13.872,4.952a11.483,11.483,0,0,0,7.824-9.864" transform="translate(-100.734 -355.857)" fill="none" stroke="#000" stroke-linecap="round" stroke-linejoin="round" stroke-miterlimit="10" stroke-width="1"/><path d="M60.359,365.192a34.758,34.758,0,0,1-2.919-5.262" transform="translate(-52.811 -327.26)" fill="none" stroke="#000" stroke-linecap="round" stroke-linejoin="round" stroke-miterlimit="10" stroke-width="1"/><path d="M359.93,57.44c9.2,4.146,15.44,11.249,12.786,18.768a11.483,11.483,0,0,1-9.864,7.824" transform="translate(-327.26 -52.811)" fill="none" stroke="#000" stroke-linecap="round" stroke-linejoin="round" stroke-miterlimit="10" stroke-width="1"/><path d="M21.36,219.52h0a43.561,43.561,0,0,1-2.85-12.359" transform="translate(-17.489 -188.652)" fill="none" stroke="#000" stroke-linecap="round" stroke-linejoin="round" stroke-miterlimit="10" stroke-width="1"/><path d="M136,17.3a37.432,37.432,0,0,1,4.26-.146" transform="translate(-124.088 -16.248)" fill="none" stroke="#000" stroke-linecap="round" stroke-linejoin="round" stroke-miterlimit="10" stroke-width="1"/><path d="M57.281,23.7a29.16,29.16,0,0,0-4.5,1.232" transform="translate(-48.583 -22.198)" fill="none" stroke="#000" stroke-linecap="round" stroke-linejoin="round" stroke-miterlimit="10" stroke-width="1"/><path d="M63.1,229.672a2.318,2.318,0,1,0,.721,1.81" transform="translate(-54.401 -208.501)" fill="none" stroke="#000" stroke-linecap="round" stroke-linejoin="round" stroke-miterlimit="10" stroke-width="1"/><g transform="translate(32.35 13.456)"><path d="M369.082,156.973a2.292,2.292,0,0,1-.46-.357,2.317,2.317,0,1,1,3.8-2.483" transform="translate(-366.88 -152.66)" fill="none" stroke="#000" stroke-linecap="round" stroke-linejoin="round" stroke-miterlimit="10" stroke-width="1"/><path d="M409.662,162.952a2.317,2.317,0,1,1,3.95,1.475l-.066.063" transform="translate(-404.726 -159.746)" fill="none" stroke="#000" stroke-linecap="round" stroke-linejoin="round" stroke-miterlimit="10" stroke-width="1"/><path d="M427.19,209.328l-.03-.008" transform="translate(-420.608 -204.068)" fill="none" stroke="#000" stroke-linecap="round" stroke-linejoin="round" stroke-miterlimit="10" stroke-width="1"/><path d="M358.628,221.84a2.317,2.317,0,1,0,1.669,4.078" transform="translate(-356.48 -215.427)" fill="none" stroke="#000" stroke-linecap="round" stroke-linejoin="round" stroke-miterlimit="10" stroke-width="1"/><path d="M379.5,190.715a2.317,2.317,0,1,1,2.346-2.445" transform="translate(-375.288 -182.982)" fill="none" stroke="#000" stroke-linecap="round" stroke-linejoin="round" stroke-miterlimit="10" stroke-width="1"/><circle cx="2.317" cy="2.317" r="2.317" transform="translate(5.836 4.646)" fill="none" stroke="#000" stroke-linecap="round" stroke-linejoin="round" stroke-miterlimit="10" stroke-width="1"/><path d="M399.183,230.987a2.318,2.318,0,1,1-2.325-2.227" transform="translate(-391.021 -221.706)" fill="none" stroke="#000" stroke-linecap="round" stroke-linejoin="round" stroke-miterlimit="10" stroke-width="1"/></g><circle cx="2.317" cy="2.317" r="2.317" transform="translate(8.698 18.98)" fill="none" stroke="#000" stroke-linecap="round" stroke-linejoin="round" stroke-miterlimit="10" stroke-width="1"/><path d="M218.337,104.783a2.235,2.235,0,0,1,.3.252,2.317,2.317,0,1,1-2.52-.505" transform="translate(-195.474 -95.535)" fill="none" stroke="#000" stroke-linecap="round" stroke-linejoin="round" stroke-miterlimit="10" stroke-width="1"/><circle cx="2.317" cy="2.317" r="2.317" transform="translate(19.664 4.786)" fill="none" stroke="#000" stroke-linecap="round" stroke-linejoin="round" stroke-miterlimit="10" stroke-width="1"/><path d="M34.032,19.538a34.7,34.7,0,0,1,4.03-7.853A1.161,1.161,0,0,1,40.036,12.9a31.808,31.808,0,0,0-3.105,8.59A31.262,31.262,0,0,0,36.548,31.9a2.783,2.783,0,0,0,.889,1.693l8.474,7.689a3.279,3.279,0,1,1-4.632,4.632l-7.689-8.474a2.783,2.783,0,0,0-1.693-.889,31.262,31.262,0,0,0-10.406.383,31.808,31.808,0,0,0-8.59,3.105,1.161,1.161,0,0,1-1.213-1.975,34.8,34.8,0,0,1,8.931-4.4A35.305,35.305,0,0,1,26.9,32.233a.928.928,0,0,0,.569-1.543l-5.6-6.176a2.8,2.8,0,0,0-2.2-.909q-.84.039-1.682.121a31.831,31.831,0,0,0-8.869,2.19,1.16,1.16,0,0,1-1-2.09,34.778,34.778,0,0,1,9.109-3.393.464.464,0,0,0,.246-.765L9.919,11.35a1.013,1.013,0,0,1,.09-1.449,1.036,1.036,0,0,1,1.366.041l8.294,7.525a.464.464,0,0,0,.765-.246,34.778,34.778,0,0,1,3.393-9.109,1.16,1.16,0,0,1,2.09,1,31.831,31.831,0,0,0-2.19,8.869q-.083.841-.121,1.682a2.8,2.8,0,0,0,.909,2.2l6.176,5.6a.928.928,0,0,0,1.543-.569,35.256,35.256,0,0,1,.836-4.261" transform="translate(-7.5 -7.5)" fill="none" stroke="#000" stroke-linecap="round" stroke-linejoin="round" stroke-miterlimit="10" stroke-width="1"/><g transform="translate(13.456 32.35)"><path d="M154.134,372.419a2.317,2.317,0,1,1,2.839-3.337" transform="translate(-152.66 -366.88)" fill="none" stroke="#000" stroke-linecap="round" stroke-linejoin="round" stroke-miterlimit="10" stroke-width="1"/><path d="M165.008,411.3a2.318,2.318,0,1,0-.581,2.3c.021-.021.043-.044.063-.066" transform="translate(-159.746 -404.721)" fill="none" stroke="#000" stroke-linecap="round" stroke-linejoin="round" stroke-miterlimit="10" stroke-width="1"/><path d="M221.84,358.628a2.317,2.317,0,1,1,4.078,1.669" transform="translate(-215.427 -356.48)" fill="none" stroke="#000" stroke-linecap="round" stroke-linejoin="round" stroke-miterlimit="10" stroke-width="1"/><path d="M209.355,427.153l-.035,0" transform="translate(-204.068 -420.599)" fill="none" stroke="#000" stroke-linecap="round" stroke-linejoin="round" stroke-miterlimit="10" stroke-width="1"/><path d="M186.19,380.223a2.317,2.317,0,1,1,4.527-.728" transform="translate(-182.984 -375.288)" fill="none" stroke="#000" stroke-linecap="round" stroke-linejoin="round" stroke-miterlimit="10" stroke-width="1"/><path d="M230.987,399.183a2.318,2.318,0,1,0-2.227-2.325" transform="translate(-221.706 -391.021)" fill="none" stroke="#000" stroke-linecap="round" stroke-linejoin="round" stroke-miterlimit="10" stroke-width="1"/><circle cx="2.317" cy="2.317" r="2.317" transform="translate(4.646 5.836)" fill="none" stroke="#000" stroke-linecap="round" stroke-linejoin="round" stroke-miterlimit="10" stroke-width="1"/></g></g></g></g></svg>