<svg xmlns="http://www.w3.org/2000/svg" width="83" height="83" viewBox="0 0 83 83"><g transform="translate(-9022.947 9985.964)"><circle cx="41.5" cy="41.5" r="41.5" transform="translate(9022.947 -9985.964)" fill="#cfeaea"/><g transform="translate(9033.229 -9975.683)"><g transform="translate(9.628 9.63)"><g transform="translate(18.321)"><path d="M274.382,28.878h4.53v4.577h-4.53Z" transform="translate(-269.459 -27.72)" fill="#4fc0e8" fill-rule="evenodd"/><path d="M264.15,16h5.432a.517.517,0,0,1,.516.516v1.8a.517.517,0,0,1-.516.516H264.15a.517.517,0,0,1-.516-.516v-1.8A.517.517,0,0,1,264.15,16Z" transform="translate(-259.678 -16)" fill="#f4f6f8" fill-rule="evenodd"/><path d="M365.245,67.763h8.075a3.694,3.694,0,0,1,3.687,3.687v9.482h-2.36V71.45a1.334,1.334,0,0,0-1.327-1.327h-8.075Z" transform="translate(-352.149 -63.107)" fill="#4fc0e8" fill-rule="evenodd"/><path d="M223.347,67.763h10.111L244.519,80.3V92.751a3.694,3.694,0,0,1-3.687,3.687H223.347a3.694,3.694,0,0,1-3.687-3.687V71.45A3.694,3.694,0,0,1,223.347,67.763Z" transform="translate(-219.66 -63.107)" fill="#66d4f1" fill-rule="evenodd"/><g transform="translate(5.141 12.333)"><circle cx="1.56" cy="1.56" r="1.56" transform="translate(5.656 6.337) rotate(-2.579)" fill="#f76c82"/><path d="M278.366,163.023a1.56,1.56,0,1,1-1.56,1.56A1.56,1.56,0,0,1,278.366,163.023Zm5.729-9.923a1.56,1.56,0,1,1-1.56,1.56A1.56,1.56,0,0,1,284.095,153.1Zm5.729,9.923a1.56,1.56,0,1,1-1.56,1.56A1.56,1.56,0,0,1,289.824,163.023Z" transform="translate(-276.806 -153.1)" fill="#f76c82" fill-rule="evenodd"/></g></g><g transform="translate(0 14.142)"><g transform="translate(3.082)"><ellipse cx="2.605" cy="4.625" rx="2.605" ry="4.625" transform="translate(6.708)" fill="#c6ea94"/><ellipse cx="4.625" cy="2.605" rx="4.625" ry="2.605" transform="matrix(0.866, -0.5, 0.5, 0.866, 8.01, 14.508)" fill="#c6ea94"/><ellipse cx="2.605" cy="4.625" rx="2.605" ry="4.625" transform="matrix(0.5, -0.866, 0.866, 0.5, 0, 14.397)" fill="#c6ea94"/></g><path d="M28.4,412.239a4.153,4.153,0,0,0-3.547,1.99,4.152,4.152,0,0,0-3.826,1.481A4.158,4.158,0,0,0,16,419.774H40.791a4.158,4.158,0,0,0-5.534-3.921,4.152,4.152,0,0,0-3.343-1.669A4.153,4.153,0,0,0,28.4,412.239Z" transform="translate(-16 -390.736)" fill="#7e6451" fill-rule="evenodd"/></g></g><path d="M34.649,32.515a.93.93,0,1,1-.93.93A.931.931,0,0,1,34.649,32.515Zm5.728-3.666a.93.93,0,1,1-.93.93A.931.931,0,0,1,40.378,28.85Zm-.93-5.327a.93.93,0,1,1,.93.93A.931.931,0,0,1,39.448,23.523Zm6.66,8.992a.93.93,0,1,1-.93.93A.931.931,0,0,1,46.107,32.515Zm-11.458,3.12a2.193,2.193,0,0,0,2.19-2.19,2.156,2.156,0,0,0-.085-.6l2.2-1.407a2.183,2.183,0,0,0,2.852,0L44,32.846a2.194,2.194,0,1,0,.68-1.06l-2.2-1.406a2.189,2.189,0,0,0-1.476-2.7V25.62a2.19,2.19,0,1,0-1.259,0v2.063a2.187,2.187,0,0,0-1.476,2.7l-2.2,1.406a2.189,2.189,0,1,0-1.425,3.85Zm14.472,6.7H31.636a3.068,3.068,0,0,1-2.9-2.1,6.013,6.013,0,0,0,.9-1.043H52.177v.09A3.06,3.06,0,0,1,49.121,42.332Zm-25.7-1.91a4.779,4.779,0,0,0,5.956-4.133A4.781,4.781,0,0,0,22.844,39.3l2.841-1.641a.63.63,0,1,1,.63,1.091Zm1.585,7.133a.63.63,0,0,0,.533.294h.036a3.518,3.518,0,0,1,2.8,1.417.633.633,0,0,0,.714.217,3.528,3.528,0,0,1,4.639,2.7H10.314a3.528,3.528,0,0,1,4.206-2.818.632.632,0,0,0,.619-.218,3.5,3.5,0,0,1,3.247-1.257.63.63,0,0,0,.629-.294,3.526,3.526,0,0,1,6-.038Zm-7.979-7.619a4.741,4.741,0,0,1-2.363-3.646A4.781,4.781,0,0,1,21.2,39.3l-2.842-1.641a.63.63,0,1,0-.63,1.091l2.891,1.669a4.742,4.742,0,0,1-3.593-.487ZM20.049,28.4a4.739,4.739,0,0,1,1.976-3.87,4.782,4.782,0,0,1,.629,7.2V28.4a.63.63,0,0,0-1.259,0v3.327A4.739,4.739,0,0,1,20.049,28.4Zm11.587-13.48h9.826l2.777,3.147H28.578v-.09A3.061,3.061,0,0,1,31.636,14.916ZM33.5,13.092h3.271v.564H33.5Zm-.966-2.833h5.2v1.574h-5.2ZM49.818,22.483l-4.594-5.207h3.9a.707.707,0,0,1,.7.7ZM30.337,35.359a.628.628,0,0,1,.327.565,6.111,6.111,0,0,1-.382,2h21.9V27.06L45.35,19.322H28.578v15.4A6.092,6.092,0,0,1,30.337,35.359ZM52.177,17.973v7.184l-1.1-1.247V17.973a1.959,1.959,0,0,0-1.956-1.957H44.112l-.971-1.1h5.979A3.06,3.06,0,0,1,52.177,17.973Zm-3.057-4.316H38.031v-.58A1.146,1.146,0,0,0,39,11.947v-1.8A1.147,1.147,0,0,0,37.852,9H32.42a1.146,1.146,0,0,0-1.145,1.146v1.8a1.145,1.145,0,0,0,.966,1.13v.58h-.605a4.322,4.322,0,0,0-4.317,4.316V34.609a6.09,6.09,0,0,0-4.665,2.34V33.363a6.037,6.037,0,0,0-.3-10.129.631.631,0,0,0-.654,0,6.037,6.037,0,0,0-.3,10.129V36.95a6.072,6.072,0,0,0-1.759-1.528,6,6,0,0,0-5.925-.063.628.628,0,0,0-.326.565,6.024,6.024,0,0,0,8.01,5.578v3.184A4.741,4.741,0,0,0,18.166,46.6a4.744,4.744,0,0,0-3.754,1.467A4.787,4.787,0,0,0,9,52.809a.63.63,0,0,0,.63.629H34.419a.629.629,0,0,0,.63-.629,4.79,4.79,0,0,0-5.943-4.644A4.79,4.79,0,0,0,25.882,46.6a4.756,4.756,0,0,0-3.229-1.912V41.5a5.978,5.978,0,0,0,4.993-.477L27.682,41a4.335,4.335,0,0,0,3.954,2.587H49.121a4.321,4.321,0,0,0,4.316-4.316v-21.3a4.322,4.322,0,0,0-4.316-4.316Z" transform="translate(0 0)" fill-rule="evenodd"/></g></g></svg>