<svg xmlns="http://www.w3.org/2000/svg" width="53.718" height="59.787" viewBox="0 0 53.718 59.787"><g transform="translate(-25.988)"><g transform="translate(41.547 21.083)"><path d="M181.829,184.643c-7.157-1.019-7.486-4.111-11.3-4.1-3.818-.013-4.146,3.078-11.3,4.1a10.126,10.126,0,0,0,3.257,6.771,11.564,11.564,0,0,0,16.084,0A10.116,10.116,0,0,0,181.829,184.643Z" transform="translate(-159.229 -180.545)" fill="#e9edc7" fill-rule="evenodd"/></g><g transform="translate(41.527 15.972)"><path d="M181.695,140.881c-7.171-1.019-7.5-4.114-11.317-4.1-3.821-.013-4.146,3.082-11.32,4.1v4.51q0,.3.02.6c7.154-1.019,7.482-4.111,11.3-4.1,3.814-.013,4.143,3.078,11.3,4.1.01-.2.017-.4.017-.6Z" transform="translate(-159.058 -136.78)" fill="#eceaed" fill-rule="evenodd"/></g><g transform="translate(46.35 24.155)"><path d="M214.9,214.649a10.116,10.116,0,0,0,3.26-6.771,18.663,18.663,0,0,1-4.126-1.026,10.205,10.205,0,0,1-3.19,6.05,11.956,11.956,0,0,1-8.04,3.254,11.068,11.068,0,0,1-2.44-.279,11.5,11.5,0,0,0,14.537-1.229Z" transform="translate(-200.365 -206.852)" fill="#cad473" fill-rule="evenodd"/></g><g transform="translate(60.021 19.077)"><path d="M317.434,168.447a18.655,18.655,0,0,0,4.126,1.026A18.656,18.656,0,0,1,317.434,168.447Zm4.143.428v-4.51a18.923,18.923,0,0,1-4.057-1v3.759c0,.2,0,.4-.017.6-.013.242-.04.485-.07.721a18.655,18.655,0,0,0,4.126,1.026C321.57,169.274,321.577,169.075,321.577,168.876Z" transform="translate(-317.434 -163.37)" fill="#dad8db" fill-rule="evenodd"/></g><g transform="translate(57.691 41.501)"><path d="M299.038,365.142l9.03-1.252,4.711-3.862c.349-.133.7-.259,1.049-.388a2.185,2.185,0,1,0-1.507-4.1l-5.238,1.956-9.491,3.54C297.275,362.867,297.644,365.145,299.038,365.142Z" transform="translate(-297.485 -355.405)" fill="#f1d0a5" fill-rule="evenodd"/></g><g transform="translate(45.268 38.786)"><path d="M197.2,338.281l4.448-.541,1.427-1.65a2.042,2.042,0,0,0-1.474-3.809l-10.5,3.9,1.032,2.012Z" transform="translate(-191.096 -332.154)" fill="#f1d0a5" fill-rule="evenodd"/></g><g transform="translate(51.37 39.564)"><path d="M249.776,346.38l6.195-1.322,3.3-2.218a2.184,2.184,0,0,0-1.939-3.892l-8.1,3.022a.53.53,0,0,1-.066.023l-5.809,2.168,1.756,2.5Z" transform="translate(-243.349 -338.813)" fill="#f1d0a5" fill-rule="evenodd"/></g><g transform="translate(48.94 39.055)"><path d="M224.97,340.31l5.809-2.168.066-.023a2.048,2.048,0,0,0,1.178-2.584,2.015,2.015,0,0,0-.91-1.083,2.051,2.051,0,0,1-1.291,2.065l-.063.023-7.22,2.932Z" transform="translate(-222.54 -334.452)" fill="#e5c093" fill-rule="evenodd"/></g><g transform="translate(54.583 39.563)"><path d="M274.081,346.372l9.491-3.54a2.179,2.179,0,0,0-1.165-4.028,2.238,2.238,0,0,1,.2.422c.345.976.113,1.391-.734,1.923l-11,4.115Z" transform="translate(-270.868 -338.804)" fill="#e5c093" fill-rule="evenodd"/></g><g transform="translate(59.244 41.605)"><path d="M310.782,365.927c4.6-1.71,9.205-3.467,13.816-5.141l.973-.362a2.191,2.191,0,0,0,1.328-2.789,2.161,2.161,0,0,0-1.388-1.342,1.93,1.93,0,0,1-1.408,2.4c-4.349,1.621-8.7,3.324-13.053,4.945.017.06.03.12.043.179a2.976,2.976,0,0,1-.037,1.461A2.794,2.794,0,0,1,310.782,365.927Z" transform="translate(-310.782 -356.293)" fill="#e5c093" fill-rule="evenodd"/></g><g transform="translate(31.153 41.377)"><path d="M82.319,369.813l5.491,1.64a14.772,14.772,0,0,0,7.154-.033c2.822-.873,7.323-2.594,8.983-3.271l10.945-4.456c1.378-.561,1.663-2.457.88-3.726a2.909,2.909,0,0,0-3.645-.907l-.076.027L98.31,364.2a2.837,2.837,0,0,0-1.447-4.108L84.334,355.77C81.244,354.7,80.291,353.252,74,355.6l-3.781,6.734L74,368.462a25.191,25.191,0,0,1,8.319,1.351Z" transform="translate(-70.219 -354.339)" fill="#ffe4c1" fill-rule="evenodd"/></g><g transform="translate(34.934 46.955)"><path d="M102.6,410.651A25.2,25.2,0,0,1,110.918,412l5.491,1.64a14.771,14.771,0,0,0,7.154-.033c2.822-.873,7.323-2.594,8.983-3.271l10.945-4.457c1.378-.561,1.663-2.457.88-3.726l-.03-.05a1.978,1.978,0,0,1-.85.668l-10.945,4.456c-1.66.677-6.161,2.4-8.983,3.271a14.811,14.811,0,0,1-7.154.037l-5.491-1.644a25.188,25.188,0,0,0-8.319-1.348v3.1Z" transform="translate(-102.599 -402.107)" fill="#f1d0a5" fill-rule="evenodd"/></g><g transform="translate(27.09 40.29)"><path d="M43.266,359.556v-13a1.532,1.532,0,0,0-1.527-1.528h-4.79a1.532,1.532,0,0,0-1.527,1.528v14a1.534,1.534,0,0,0,1.527,1.528h4.79a1.532,1.532,0,0,0,1.527-1.528Z" transform="translate(-35.422 -345.031)" fill="#eceaed" fill-rule="evenodd"/></g><g transform="translate(27.09 52.394)"><path d="M36.949,453.644h4.79a1.532,1.532,0,0,0,1.527-1.528v-3.427a1.534,1.534,0,0,1-1.527,1.528h-4.79a1.535,1.535,0,0,1-1.527-1.524v3.424A1.534,1.534,0,0,0,36.949,453.644Z" transform="translate(-35.422 -448.689)" fill="#dad8db" fill-rule="evenodd"/></g><g transform="translate(25.988 0)"><path d="M115.037,127.9c-1.587,0-3.194,1.348-3.194,3.926,0,6.656,4.556,10.591,8.217,13.753l.012.009c.1.089.191.177.29.264a12.415,12.415,0,0,0,16.627,0c.1-.089.2-.18.3-.271h0c3.661-3.159,8.218-7.091,8.218-13.754,0-2.577-1.607-3.926-3.194-3.926s-3.2,1.348-3.2,3.926v.182a15.1,15.1,0,0,1-5.965-2.393,7.687,7.687,0,0,0-4.446-1.554h-.054a7.694,7.694,0,0,0-4.454,1.554,15.1,15.1,0,0,1-5.967,2.393v-.182C118.232,129.251,116.625,127.9,115.037,127.9Zm-1.442,3.926c0-1.494.748-2.174,1.442-2.174s1.444.68,1.444,2.174v5.722a10.646,10.646,0,0,0,.278,2.42A12.321,12.321,0,0,1,113.595,131.829Zm27.274,5.722v-5.722c0-1.494.748-2.174,1.444-2.174s1.442.68,1.442,2.174a12.32,12.32,0,0,1-3.165,8.146A10.642,10.642,0,0,0,140.869,137.55ZM128.676,147.3c-4.649,0-9.6-3.328-10.348-8.415a16.893,16.893,0,0,0,6.8-2.67,6.042,6.042,0,0,1,3.53-1.287h.042a6.039,6.039,0,0,1,3.522,1.286,16.893,16.893,0,0,0,6.8,2.671C138.275,143.97,133.324,147.3,128.676,147.3Zm-3.548-16.2a6.041,6.041,0,0,1,3.53-1.287h.042a6.038,6.038,0,0,1,3.522,1.286,16.917,16.917,0,0,0,6.9,2.688v3.331a15.107,15.107,0,0,1-5.965-2.393,7.687,7.687,0,0,0-4.446-1.554h-.054a7.694,7.694,0,0,0-4.454,1.554,15.1,15.1,0,0,1-5.967,2.393V133.79A16.919,16.919,0,0,0,125.129,131.1Z" transform="translate(-101.818 -112.968)"/><path d="M75.931,45.241a3.054,3.054,0,0,0,.256-2.585,3.012,3.012,0,0,0-.782-1.2A26.864,26.864,0,0,0,34.759,7,.876.876,0,0,0,35.939,8.3,25.114,25.114,0,0,1,73.825,40.67a3.145,3.145,0,0,0-1.591.139l-.014.005-3.046,1.137a3.016,3.016,0,0,0-1.724-2.964,3.108,3.108,0,0,0-2.395-.113l-.012,0-5.63,2.1a2.9,2.9,0,0,0-1.671-2.791,2.973,2.973,0,0,0-2.263-.1l-.012,0-10.2,3.784c-.4-.147-.766-.3-1.123-.448-2.071-.864-3.74-1.558-8.367-.012a2.4,2.4,0,0,0-2.366-2H31.091a25.143,25.143,0,0,1,2.063-28.128A.876.876,0,0,0,31.781,10.2a26.9,26.9,0,0,0-2.69,29.216h-.474a2.406,2.406,0,0,0-2.4,2.4v4.626a.876.876,0,1,0,1.752,0V41.818a.652.652,0,0,1,.651-.652h4.79a.652.652,0,0,1,.651.652v14a.652.652,0,0,1-.651.652h-4.79a.66.66,0,0,1-.651-.652V50.794a.876.876,0,1,0-1.752,0v5.028a2.406,2.406,0,0,0,2.4,2.4h4.79a2.4,2.4,0,0,0,2.331-1.831A23.987,23.987,0,0,1,43,57.69l5.489,1.64a13.735,13.735,0,0,0,3.746.457,14.047,14.047,0,0,0,3.919-.493c2.824-.874,7.363-2.606,9.054-3.3l10.945-4.456a2.929,2.929,0,0,0,1.677-1.854,3.859,3.859,0,0,0-.383-3.143,3.239,3.239,0,0,0-1.52-1.3Zm-8.345-.828.009,0,5.229-1.951a1.374,1.374,0,0,1,1.053.05,1.275,1.275,0,0,1,.658.731,1.31,1.31,0,0,1-.8,1.671l-.012,0-.9.336-.151.055-.026.011L60.5,49.836a3.96,3.96,0,0,0-.093-.912,3.693,3.693,0,0,0-.75-1.553Zm-1.938-3.891a1.368,1.368,0,0,1,1.049.047,1.283,1.283,0,0,1,.664.733,1.322,1.322,0,0,1-.482,1.505L57.785,46.2l-3.824-1.32Zm-9.579-.786a1.231,1.231,0,0,1,.932.039,1.138,1.138,0,0,1,.6.655,1.171,1.171,0,0,1-.71,1.488l-.043.018-5.488,2.047-3.491-1.2Zm20.1,9.409a1.205,1.205,0,0,1-.673.775L64.55,54.376c-1.668.681-6.138,2.387-8.911,3.245a13.847,13.847,0,0,1-6.645.031L43.5,56.011a25.694,25.694,0,0,0-7.694-1.368V43.255c4.4-1.565,5.715-1.021,7.657-.211.467.195,14.044,4.915,14.044,4.915l.029.01A1.752,1.752,0,0,1,58.7,49.305a1.977,1.977,0,0,1-.544,1.905c-.7.63-1.921.7-3.446.2l-7.718-2.55a.876.876,0,1,0-.55,1.663l7.718,2.55a7.545,7.545,0,0,0,2.364.42,4.063,4.063,0,0,0,2.807-.98,3.452,3.452,0,0,0,.49-.55l13.565-5.047a1.889,1.889,0,0,1,2.783,2.233Z" transform="translate(-25.988 0)"/></g></g></svg>