<svg xmlns="http://www.w3.org/2000/svg" width="84.976" height="85" viewBox="0 0 84.976 85"><g transform="translate(-1 -1.058)"><path d="M221.129,134.851a.892.892,0,0,0-.467-.6.944.944,0,0,0-.767-.017c-.717.317-1.433.6-2.166.867a19.892,19.892,0,0,1-4.75.983,9.526,9.526,0,0,0-4.533,1.3,8.051,8.051,0,0,0-2.783,2.9,8.158,8.158,0,0,0-.317,6.583c.017.033.033.05.033.083.017.033.033.05.05.083a.877.877,0,0,0,.2.233h.017v.017a.615.615,0,0,0,.233.117c.033.017.067.017.1.033a.309.309,0,0,0,.117.033,17.374,17.374,0,0,0,2.066.117c5.6,0,10.432-2.433,12.332-6.383a9.734,9.734,0,0,0,.633-6.349ZM218.9,140.4c-1.6,3.3-5.933,5.383-10.866,5.366a20.52,20.52,0,0,1,3.683-3.1,21.88,21.88,0,0,1,3.016-1.633.884.884,0,0,0-.717-1.617,22.34,22.34,0,0,0-7.4,5.266,5.587,5.587,0,0,1,.6-3.55,6.4,6.4,0,0,1,2.183-2.266,7.766,7.766,0,0,1,3.766-1.033,21.557,21.557,0,0,0,5.15-1.067c.417-.15.833-.3,1.25-.467a7.442,7.442,0,0,1-.667,4.1Z" transform="translate(-169.833 -110.922)" fill="#231f20"/><path d="M43.216,392.879a.976.976,0,0,0-.383-.633.819.819,0,0,0-.733-.1,6.667,6.667,0,0,1-1.617.25,6.549,6.549,0,0,1-1.1-.067,3.845,3.845,0,0,0-1.333-.033,4.826,4.826,0,0,0-2.8,1.617,5.577,5.577,0,0,0-.867,1.35c-.083-.117-.183-.25-.267-.367a5.251,5.251,0,0,0-1.25-3.9,4.858,4.858,0,0,0-2.8-1.617,3.761,3.761,0,0,0-.583-.05,5.471,5.471,0,0,0-.767.067,5.152,5.152,0,0,1-1.1.067A6.074,6.074,0,0,1,26,389.2a.874.874,0,0,0-.733.1.832.832,0,0,0-.383.633,5.99,5.99,0,0,0,2.566,5.616,6.061,6.061,0,0,0,3.466,1.1,5.761,5.761,0,0,0,2.033-.367,1.424,1.424,0,0,1,.217.783v1.667c0,.017.017.033,0,.067l.017,2.85H32.5a.868.868,0,0,0-.883.883.878.878,0,0,0,.883.883h3.15a.878.878,0,0,0,.883-.883.868.868,0,0,0-.883-.883h-.683v-2.416l.1-.083a5.944,5.944,0,0,0,2.15.417,6.156,6.156,0,0,0,3.45-1.083,5.972,5.972,0,0,0,2.55-5.6Zm-14.665.217a6.664,6.664,0,0,1,2.016.817,6.235,6.235,0,0,1,1.1.883,4.328,4.328,0,0,1-5.066-3.633,5.685,5.685,0,0,0,.917.083,6.69,6.69,0,0,0,1.433-.083,2.64,2.64,0,0,1,.8-.033,3.2,3.2,0,0,1,1.767,1.05,3.905,3.905,0,0,1,.333.45c-.1-.067-.2-.15-.317-.217a7.693,7.693,0,0,0-2.6-1.05.888.888,0,0,0-.383,1.733Zm11.066,3.933a4.253,4.253,0,0,1-3.216.683,5.431,5.431,0,0,1,3.15-1.467.905.905,0,0,0,.783-.983.88.88,0,0,0-.967-.783,7.284,7.284,0,0,0-2.066.55,7.809,7.809,0,0,0-1.117.617,3.315,3.315,0,0,1,2.166-1.617,2.184,2.184,0,0,1,.8.033,7.706,7.706,0,0,0,1.433.1,8.514,8.514,0,0,0,.917-.083A4.46,4.46,0,0,1,39.616,397.029Z" transform="translate(-19.868 -323.42)" fill="#231f20"/><path d="M98.166,418.343a4.317,4.317,0,0,1-5.05,3.616,5.43,5.43,0,0,1,3.15-1.467.905.905,0,0,0,.783-.983.88.88,0,0,0-.967-.783,7.284,7.284,0,0,0-2.066.55,7.812,7.812,0,0,0-1.117.617,3.316,3.316,0,0,1,2.166-1.617,2.184,2.184,0,0,1,.8.033,7.712,7.712,0,0,0,1.433.1,4.026,4.026,0,0,0,.867-.067Z" transform="translate(-76.585 -347.667)" fill="#ccfc5c"/><path d="M409.432,392.664a7.95,7.95,0,0,1-1.816-4.883,5.442,5.442,0,0,1,1.733-4.033.839.839,0,0,0,.3-.667.812.812,0,0,0-.3-.667,5.661,5.661,0,0,0-4.35-1.467,1.228,1.228,0,0,1,.067-.233,2.447,2.447,0,0,1,1.067-1.233.888.888,0,0,0-.867-1.55,4.2,4.2,0,0,0-1.85,2.167,4.534,4.534,0,0,0-.217.85,5.668,5.668,0,0,0-4.4,1.467.886.886,0,0,0-.3.65.863.863,0,0,0,.3.667,5.329,5.329,0,0,1,1.733,4.033,7.95,7.95,0,0,1-1.8,4.866.884.884,0,0,0,0,1.15,5.253,5.253,0,0,0,3.95,2.05,5.564,5.564,0,0,1,2.833,0,5.363,5.363,0,0,0,3.95-2.05A.841.841,0,0,0,409.432,392.664ZM405.5,394.1a3.944,3.944,0,0,1-1.15-.183.736.736,0,0,0-.533,0,3.858,3.858,0,0,1-1.15.183,3.2,3.2,0,0,1-2.1-.917A9.661,9.661,0,0,0,402.3,387.8a7.233,7.233,0,0,0-1.567-4.583,3.868,3.868,0,0,1,3.083-.333c.067.017.117.017.183.033.033,0,.05.017.067.017a.367.367,0,0,0,.133-.017c.033,0,.033-.017.067-.017a.061.061,0,0,1,.05-.017,3.883,3.883,0,0,1,3.1.333,7.2,7.2,0,0,0-1.583,4.566,9.643,9.643,0,0,0,1.75,5.4A3.169,3.169,0,0,1,405.5,394.1Z" transform="translate(-331.255 -313.973)" fill="#231f20"/><path d="M73.711,59.76v-4a.878.878,0,0,0-.883-.883H46.8a3.457,3.457,0,0,0-2.416-2.433v-3.65H60.112a.924.924,0,0,0,.733-.383.89.89,0,0,0,.1-.817,9.061,9.061,0,0,0-1.4-2.466,11.643,11.643,0,0,0-1.433-1.433c.533-4.983.85-10.016.883-14.932a139.306,139.306,0,0,0-.633-14.7A2.036,2.036,0,0,0,59.8,12.147V9.281a.878.878,0,0,0-.883-.883H56.879a8.858,8.858,0,0,0-1.733-1.117A17.1,17.1,0,0,0,52.712,6.6c-1.75-.35-2.25-.95-2.4-1.283A1.942,1.942,0,0,0,48.3,3.948a2.412,2.412,0,0,1-.9-.167,3.924,3.924,0,0,1-.783-.367,3.361,3.361,0,0,1-.2-.417l-.133-.283C45.8,1.7,45.53,1.415,44.813,1.2l-.183-.05a1.964,1.964,0,0,0-2.016.6A14.236,14.236,0,0,0,40.83,3.681a2.692,2.692,0,0,1-.95-.033,7.954,7.954,0,0,0-.833-.067,1.974,1.974,0,0,0-1.6.717,4.689,4.689,0,0,1-.75.633.687.687,0,0,1-.9.05,1.354,1.354,0,0,0-.633-.2,7.063,7.063,0,0,0-3.216,1.35c-.55.517-1.817,1.75-2.366,2.266H27.6a.889.889,0,0,0-.883.883v2.866a2.028,2.028,0,0,0,1.55,1.95,140.777,140.777,0,0,0-.633,14.315,146.5,146.5,0,0,0,.917,15.349,13.609,13.609,0,0,0-1.067,1.283,15.891,15.891,0,0,0-1.417,2.5.87.87,0,0,0,.067.833.9.9,0,0,0,.75.4H42.6V52.41a3.437,3.437,0,0,0-2.45,2.45H14.166a.878.878,0,0,0-.883.883v4a13.421,13.421,0,1,0,1.767.033V56.66h25.1a3.444,3.444,0,0,0,2.45,2.433v.667a13.166,13.166,0,1,0,1.767,0v-.683A3.479,3.479,0,0,0,46.8,56.643H71.927V59.76a13.157,13.157,0,1,0,1.783,0ZM25.548,72.892A11.382,11.382,0,1,1,14.166,61.51,11.4,11.4,0,0,1,25.548,72.892ZM33.164,7.431a6.12,6.12,0,0,1,1.883-.867,2.393,2.393,0,0,0,2.683-.183,8.5,8.5,0,0,0,1-.833l.183-.183a6.806,6.806,0,0,1,.8.05c.833.083,1.966.217,2.583-.733A13.117,13.117,0,0,1,43.88,3.015c.033-.017.05-.05.067-.067.033-.033.15-.117.15-.15.083.033.183.05.25.083a.166.166,0,0,0,.067.017,3.312,3.312,0,0,1,.317.567l.117.267c.483,1.05.7,1.167,1.95,1.683a4.1,4.1,0,0,0,1.5.3.826.826,0,0,0,.25-.017,1.614,1.614,0,0,1,.167.3c.5,1.167,1.733,1.933,3.683,2.333.083.017.167.033.267.05h-20.5c.383-.367.75-.733,1-.95ZM28.5,12.147V10.164H58.012v1.983a.323.323,0,0,1-.35.267H28.848a.323.323,0,0,1-.35-.267ZM57.212,28.762c-.033,4.75-.317,9.6-.833,14.415h-26.1c-.533-4.85-.817-9.816-.867-14.765-.017-4.75.183-9.533.633-14.232H56.6C57.045,19.013,57.245,23.913,57.212,28.762ZM28.331,47.028c.2-.333.4-.65.617-.95a10.231,10.231,0,0,1,.917-1.117H56.879a9.338,9.338,0,0,1,1.283,1.283,6.786,6.786,0,0,1,.55.8H28.331ZM54.879,72.892A11.391,11.391,0,1,1,43.5,61.51,11.4,11.4,0,0,1,54.879,72.892ZM43.463,57.46a1.692,1.692,0,1,1,1.683-1.683,1.689,1.689,0,0,1-1.683,1.683ZM72.827,84.274A11.382,11.382,0,1,1,84.21,72.892,11.412,11.412,0,0,1,72.827,84.274Z" transform="translate(0)" fill="#231f20"/><path d="M195.514,55.7v1.983a.323.323,0,0,1-.35.267H166.35a.323.323,0,0,1-.35-.267V55.7Z" transform="translate(-137.502 -45.536)" fill="#00d7df"/><path d="M195.347,266.566H165c.2-.333.4-.65.617-.95a10.232,10.232,0,0,1,.917-1.117h27.014a9.338,9.338,0,0,1,1.283,1.283C195,266.033,195.181,266.3,195.347,266.566Z" transform="translate(-136.669 -219.539)" fill="#00d7df"/><path d="M249.066,320.9a1.683,1.683,0,1,1-1.667-1.7A1.7,1.7,0,0,1,249.066,320.9Z" transform="translate(-203.92 -265.123)" fill="#00d7df"/><g transform="translate(2.783 2.798)"><path d="M375,363.7a11.382,11.382,0,1,0,11.382,11.382A11.4,11.4,0,0,0,375,363.7Zm5.35,18.348a5.363,5.363,0,0,1-3.95,2.05,5.565,5.565,0,0,0-2.833,0,5.335,5.335,0,0,1-3.95-2.05.884.884,0,0,1,0-1.15,7.887,7.887,0,0,0,1.8-4.866A5.329,5.329,0,0,0,369.683,372a.894.894,0,0,1-.3-.667.829.829,0,0,1,.3-.65,5.647,5.647,0,0,1,4.4-1.467,3.533,3.533,0,0,1,.217-.85,4.2,4.2,0,0,1,1.85-2.166.873.873,0,0,1,1.2.333.882.882,0,0,1-.333,1.217,2.447,2.447,0,0,0-1.067,1.233,1.225,1.225,0,0,0-.067.233,5.661,5.661,0,0,1,4.35,1.467.922.922,0,0,1,.3.667.863.863,0,0,1-.3.667,5.415,5.415,0,0,0-1.733,4.033,7.95,7.95,0,0,0,1.817,4.883A.775.775,0,0,1,380.349,382.048Z" transform="translate(-304.955 -305.005)" fill="#e0e0e2"/><path d="M199,363.7a11.382,11.382,0,1,0,11.382,11.382A11.4,11.4,0,0,0,199,363.7Zm8.366,10.582a2.489,2.489,0,0,1-1.683,1.45l-4.25,1.1c-.017.167-.017.317-.033.483l2.1.7a2.988,2.988,0,0,1,1.45,1.067l1.017,1.433a.866.866,0,0,1-.2,1.233.833.833,0,0,1-.517.167.9.9,0,0,1-.717-.367l-1.033-1.433a1.081,1.081,0,0,0-.567-.417l-1.867-.633c-.383,1.217-1.067,2.116-2.083,2.116s-1.7-.9-2.083-2.1l-1.833.617a1.021,1.021,0,0,0-.567.417l-1.017,1.433a.932.932,0,0,1-.733.367.867.867,0,0,1-.517-.167.881.881,0,0,1-.2-1.233l1.033-1.433a2.819,2.819,0,0,1,1.45-1.067l2.05-.683c-.017-.167-.033-.333-.033-.5l-4.2-1.1a2.467,2.467,0,0,1-1.667-1.45l-1.067-2.466a.888.888,0,1,1,1.633-.7l1.05,2.466a.765.765,0,0,0,.5.433l3.833,1.017c.05-.267.083-.533.15-.783l-1.25-.633a2.585,2.585,0,0,1-1.317-3.066l.5-1.65a.886.886,0,0,1,1.7.5l-.5,1.65a.813.813,0,0,0,.433.967l1.117.55a1.76,1.76,0,0,1,3.133.017l1.167-.583a.831.831,0,0,0,.417-.967l-.5-1.65a.889.889,0,0,1,.583-1.1.865.865,0,0,1,1.1.6l.5,1.65a2.585,2.585,0,0,1-1.317,3.066l-1.3.65c.067.25.1.517.15.783l3.883-1.017a.759.759,0,0,0,.5-.433l1.05-2.466a.886.886,0,0,1,1.167-.467.9.9,0,0,1,.467,1.167Z" transform="translate(-158.286 -305.005)" fill="#e0e0e2"/><path d="M23.082,363.7a11.382,11.382,0,1,0,11.382,11.382A11.387,11.387,0,0,0,23.082,363.7Zm6.583,13.582a6.156,6.156,0,0,1-3.45,1.083,5.943,5.943,0,0,1-2.15-.417l-.1.083v2.416h.683a.868.868,0,0,1,.883.883.878.878,0,0,1-.883.883H21.5a.878.878,0,0,1-.883-.883.868.868,0,0,1,.883-.883h.683l-.017-2.85c.017-.033,0-.05,0-.067v-1.667a1.578,1.578,0,0,0-.217-.783,5.63,5.63,0,0,1-2.033.367,6.061,6.061,0,0,1-3.466-1.1,5.922,5.922,0,0,1-2.566-5.616.976.976,0,0,1,.383-.633A.819.819,0,0,1,15,368a5.968,5.968,0,0,0,1.617.267,6.556,6.556,0,0,0,1.1-.067,5.246,5.246,0,0,1,.767-.067,3.761,3.761,0,0,1,.583.05,4.858,4.858,0,0,1,2.8,1.617,5.251,5.251,0,0,1,1.25,3.9,1.871,1.871,0,0,1,.267.367,5.277,5.277,0,0,1,.867-1.35,5.135,5.135,0,0,1,2.8-1.617,3.844,3.844,0,0,1,1.333.033,5.152,5.152,0,0,0,1.1.067,6.793,6.793,0,0,0,1.617-.25.859.859,0,0,1,1.117.733,5.8,5.8,0,0,1-2.55,5.6Z" transform="translate(-11.7 -305.005)" fill="#e0e0e2"/><path d="M208.4,17.1H187.9c.4-.383.783-.75,1.017-.967a6.121,6.121,0,0,1,1.883-.867,2.393,2.393,0,0,0,2.683-.183,8.5,8.5,0,0,0,1-.833l.183-.183a6.806,6.806,0,0,1,.8.05c.833.083,1.967.217,2.583-.733a13.115,13.115,0,0,1,1.583-1.667c.033-.017.05-.05.067-.067.033-.033.15-.117.15-.15.083.033.183.05.25.083a.166.166,0,0,0,.067.017,3.311,3.311,0,0,1,.317.567l.117.267c.483,1.05.7,1.167,1.95,1.683a4.1,4.1,0,0,0,1.5.3.826.826,0,0,0,.25-.017,1.615,1.615,0,0,1,.167.3c.5,1.167,1.733,1.933,3.683,2.333a1.7,1.7,0,0,0,.25.067Z" transform="translate(-158.536 -11.5)" fill="#e0e0e2"/></g><path d="M417.933,417.611a3.248,3.248,0,0,1-2.1.917,3.945,3.945,0,0,1-1.15-.183.736.736,0,0,0-.533,0,3.858,3.858,0,0,1-1.15.183,3.2,3.2,0,0,1-2.1-.917,9.66,9.66,0,0,0,1.733-5.383,7.233,7.233,0,0,0-1.567-4.583,3.868,3.868,0,0,1,3.083-.333c.067.017.117.017.183.033.033,0,.05.017.067.017a.367.367,0,0,0,.133-.017c.033,0,.033-.017.067-.017a.061.061,0,0,1,.05-.017,3.883,3.883,0,0,1,3.1.333,7.2,7.2,0,0,0-1.583,4.566A9.792,9.792,0,0,0,417.933,417.611Z" transform="translate(-341.589 -338.403)" fill="#ccfc5c"/><path d="M39.366,403.7a6.235,6.235,0,0,1,1.1.883,4.328,4.328,0,0,1-5.066-3.633,5.678,5.678,0,0,0,.917.083,6.686,6.686,0,0,0,1.433-.083,2.641,2.641,0,0,1,.8-.033,3.2,3.2,0,0,1,1.767,1.05,3.906,3.906,0,0,1,.333.45c-.1-.067-.2-.15-.317-.217a7.691,7.691,0,0,0-2.6-1.05.888.888,0,0,0-.383,1.733A6.263,6.263,0,0,1,39.366,403.7Z" transform="translate(-28.667 -333.204)" fill="#ccfc5c"/><path d="M198.676,79.9H172.129c-.45,4.683-.65,9.466-.633,14.232a139.91,139.91,0,0,0,.867,14.765h26.1c.517-4.816.8-9.666.833-14.415v-.017C199.326,89.616,199.126,84.716,198.676,79.9Zm-5.933,16.065c-1.917,3.95-6.733,6.383-12.332,6.383a17.375,17.375,0,0,1-2.066-.117.309.309,0,0,1-.117-.033c-.033-.017-.067-.017-.1-.033a1.018,1.018,0,0,1-.233-.117v-.017h-.017a.877.877,0,0,1-.2-.233c-.017-.033-.033-.05-.05-.083s-.033-.05-.033-.083a8.089,8.089,0,0,1,.317-6.583,8.209,8.209,0,0,1,2.783-2.9,9.474,9.474,0,0,1,4.533-1.3,19.735,19.735,0,0,0,4.75-.983c.733-.25,1.467-.55,2.166-.867a.889.889,0,0,1,1.233.617,9.71,9.71,0,0,1-.633,6.349Z" transform="translate(-142.081 -65.703)" fill="#ffd15b"/><path d="M227.651,151.1c-1.6,3.3-5.933,5.383-10.866,5.366a20.52,20.52,0,0,1,3.683-3.1,21.882,21.882,0,0,1,3.016-1.633.884.884,0,1,0-.717-1.617,22.341,22.341,0,0,0-7.4,5.266,5.586,5.586,0,0,1,.6-3.55,6.4,6.4,0,0,1,2.183-2.266,7.766,7.766,0,0,1,3.766-1.033,21.557,21.557,0,0,0,5.15-1.067c.417-.15.833-.3,1.25-.467A7.442,7.442,0,0,1,227.651,151.1Z" transform="translate(-178.588 -121.621)" fill="#ccfc5c"/><path d="M217.408,393.395a.886.886,0,0,0-1.167.467l-1.05,2.466a.729.729,0,0,1-.5.433l-3.883,1.017a6.486,6.486,0,0,0-.15-.783l1.3-.65a2.6,2.6,0,0,0,1.317-3.066l-.5-1.65a.9.9,0,0,0-1.1-.6.875.875,0,0,0-.583,1.1l.5,1.65a.823.823,0,0,1-.417.967l-1.167.583a1.835,1.835,0,0,0-1.567-.967,1.9,1.9,0,0,0-1.567.95l-1.117-.55a.841.841,0,0,1-.433-.967l.5-1.65a.885.885,0,0,0-.6-1.1.865.865,0,0,0-1.1.6l-.5,1.65a2.585,2.585,0,0,0,1.317,3.066l1.25.633c-.067.25-.1.517-.15.783l-3.833-1.017a.724.724,0,0,1-.5-.433l-1.05-2.466a.888.888,0,0,0-1.633.7l1.067,2.466a2.462,2.462,0,0,0,1.667,1.45l4.2,1.1c0,.167.017.333.033.5l-2.05.683a2.988,2.988,0,0,0-1.45,1.067l-1.033,1.433a.881.881,0,0,0,.2,1.233.867.867,0,0,0,.517.167.957.957,0,0,0,.733-.367l1.017-1.433a1.081,1.081,0,0,1,.567-.417l1.833-.617c.383,1.217,1.067,2.1,2.083,2.1,1.033,0,1.717-.9,2.083-2.116l1.867.633a1.02,1.02,0,0,1,.567.417l1.033,1.433a.9.9,0,0,0,.717.367.833.833,0,0,0,.517-.167.866.866,0,0,0,.2-1.233l-1.017-1.433a2.888,2.888,0,0,0-1.45-1.067l-2.1-.7a4.7,4.7,0,0,0,.033-.483l4.25-1.1a2.53,2.53,0,0,0,1.683-1.45l1.05-2.466A.841.841,0,0,0,217.408,393.395Zm-8.983,8.716a6.709,6.709,0,0,1,0-5.9,5.021,5.021,0,0,1,.7,2.95A4.935,4.935,0,0,1,208.425,402.111Z" transform="translate(-164.962 -324.952)" fill="#231f20"/><path d="M253.083,425.25a5.067,5.067,0,0,1-.7,2.95,6.709,6.709,0,0,1,0-5.9A4.848,4.848,0,0,1,253.083,425.25Z" transform="translate(-208.92 -351.041)" fill="#ccfc5c"/></g></svg>