<svg xmlns="http://www.w3.org/2000/svg" xmlns:xlink="http://www.w3.org/1999/xlink" width="104" height="104" viewBox="0 0 104 104"><defs><filter id="a" x="0" y="0" width="104" height="104" filterUnits="userSpaceOnUse"><feOffset dy="3" input="SourceAlpha"/><feGaussianBlur stdDeviation="3" result="b"/><feFlood flood-opacity="0.161"/><feComposite operator="in" in2="b"/><feComposite in="SourceGraphic"/></filter></defs><g transform="translate(18872.586 11894.586)"><g transform="translate(-18864 -11889)"><g transform="matrix(1, 0, 0, 1, -8.59, -5.59)" filter="url(#a)"><circle cx="43" cy="43" r="43" transform="translate(9 6)" fill="#fff" opacity="0.45"/></g><circle cx="34" cy="34" r="34" transform="translate(9.413 9.414)" fill="#0e797a"/><g transform="translate(20.43 20.43)"><g transform="translate(0 0)"><path d="M45.243,8.511A1.493,1.493,0,0,0,43.825,7.5h-.493a1.5,1.5,0,0,0-1.478,1.277c-.541,3.387-4.728,13.077-33.347,23.777A1.506,1.506,0,0,0,7.516,33.7a1.423,1.423,0,0,0,1.263,1.627c3.46.359,13.181.918,22.345-3.231A133.278,133.278,0,0,1,18.588,43.033a1.5,1.5,0,0,0-.6,1.392A1.423,1.423,0,0,0,19.677,45.6a61.927,61.927,0,0,0,11.118-3.707L44.486,29.81C48.058,22.3,47.543,15.414,45.243,8.511Z" transform="translate(-7.501 -7.5)" fill="#ffe077"/><path d="M272.252,39.844l-2.163.561.188.724a23.828,23.828,0,0,1-1.638,17.491,3.6,3.6,0,0,1-2.226,1.852,12.7,12.7,0,0,0-9.223,10.747,79.621,79.621,0,0,0,8.719-4.4C273.966,56.957,274.637,48.367,272.252,39.844Z" transform="translate(-233.896 -36.827)" fill="#ffd05b"/><path d="M41.082,47.051c-2.071,4.5-9.1,12.586-32.562,21.359a1.518,1.518,0,0,0-1.007,1.167A1.423,1.423,0,0,0,8.778,71.19c.218.023.461.046.727.069C31.429,63.013,40.128,55,43.325,49.392c-.989,5.734-6.835,15.566-24.729,29.495a1.516,1.516,0,0,0-.61,1.41,1.423,1.423,0,0,0,1.69,1.164l.427-.089c12.609-9.743,19.227-17.659,22.955-23.55,1.861-2.941,3.158-8.382,3.158-8.382Z" transform="translate(-7.5 -43.361)" fill="#ffefac"/><path d="M369.715,7.5a1.5,1.5,0,0,0-1.479,1.277,9.352,9.352,0,0,1-.771,2.413l5.545,2.687a37.645,37.645,0,0,0-1.385-5.366A1.493,1.493,0,0,0,370.208,7.5Z" transform="translate(-333.883 -7.5)" fill="#b8eb7c"/><path d="M121.533,378.642c-.24.19-.949.716-1.2.908a1.5,1.5,0,0,0-.6,1.392,1.423,1.423,0,0,0,1.692,1.175c.335-.068,1.654-.394,2.34-.572Z" transform="translate(-109.249 -344.017)" fill="#a46a5a"/><path d="M9.671,271.273c-.389.149-.765.3-1.164.446a1.505,1.505,0,0,0-.991,1.148,1.423,1.423,0,0,0,1.263,1.627c.547.057,1.265.117,2.1.164Z" transform="translate(-7.5 -246.665)" fill="#a46a5a"/><circle cx="10.47" cy="10.47" r="10.47" transform="translate(25.427 25.427)" fill="#b8eb7c"/><path d="M325.92,315.45a10.436,10.436,0,0,0-3.618-7.9,2.371,2.371,0,0,0-.217,3.037,8.229,8.229,0,0,1-11.5,11.5,2.371,2.371,0,0,0-3.036.218,10.462,10.462,0,0,0,18.374-6.852Z" transform="translate(-279.554 -279.553)" fill="#98db7c"/></g><g transform="translate(0 0)"><circle cx="10.47" cy="10.47" r="10.47" transform="translate(25.427 25.427)" fill="none" stroke="#000" stroke-linecap="round" stroke-linejoin="round" stroke-miterlimit="10" stroke-width="1"/><path d="M344.177,370.47l3.739,3.739,5.983-5.983" transform="translate(-312.768 -334.573)" fill="none" stroke="#000" stroke-linecap="round" stroke-linejoin="round" stroke-miterlimit="10" stroke-width="1"/><line x2="5.279" y2="2.558" transform="translate(33.652 3.723)" fill="none" stroke="#000" stroke-linecap="round" stroke-linejoin="round" stroke-miterlimit="10" stroke-width="1"/><path d="M170.925,72.657c-.916,6.174-6.233,16.612-25.885,31.888" transform="translate(-132.209 -66.578)" fill="none" stroke="#000" stroke-linecap="round" stroke-linejoin="round" stroke-miterlimit="10" stroke-width="1"/><path d="M128.131,74.163c-2.828,4.959-9.9,11.756-26.907,18.975" transform="translate(-92.48 -67.944)" fill="none" stroke="#000" stroke-linecap="round" stroke-linejoin="round" stroke-miterlimit="10" stroke-width="1"/><line x2="1.569" y2="2.109" transform="translate(12.535 34.765)" fill="none" stroke="#000" stroke-linecap="round" stroke-linejoin="round" stroke-miterlimit="10" stroke-width="1"/><line x2="0.853" y2="2.396" transform="translate(2.56 24.675)" fill="none" stroke="#000" stroke-linecap="round" stroke-linejoin="round" stroke-miterlimit="10" stroke-width="1"/><path d="M44.474,29.99c2.888-5.3,3.831-12.291.77-21.479A1.493,1.493,0,0,0,43.826,7.5h-.493a1.5,1.5,0,0,0-1.478,1.277c-.541,3.387-4.728,13.077-33.347,23.777A1.506,1.506,0,0,0,7.516,33.7a1.423,1.423,0,0,0,1.263,1.627c3.519.366,13.662.941,22.306-3.229" transform="translate(-7.501 -7.5)" fill="none" stroke="#000" stroke-linecap="round" stroke-linejoin="round" stroke-miterlimit="10" stroke-width="1"/><path d="M145.051,64.553c-.6,4.883-4.829,14.736-24.713,30.21a1.5,1.5,0,0,0-.6,1.392,1.423,1.423,0,0,0,1.691,1.175,50.856,50.856,0,0,0,10.315-3.315" transform="translate(-109.25 -59.23)" fill="none" stroke="#000" stroke-linecap="round" stroke-linejoin="round" stroke-miterlimit="10" stroke-width="1"/></g></g></g></g></svg>