<svg xmlns="http://www.w3.org/2000/svg" xmlns:xlink="http://www.w3.org/1999/xlink" width="120" height="120" viewBox="0 0 120 120"><defs><filter id="a" x="0" y="0" width="120" height="120" filterUnits="userSpaceOnUse"><feOffset dy="3" input="SourceAlpha"/><feGaussianBlur stdDeviation="3" result="b"/><feFlood flood-opacity="0.161"/><feComposite operator="in" in2="b"/><feComposite in="SourceGraphic"/></filter></defs><g transform="translate(19054 11895)"><g transform="translate(-19044.938 -11888.938)"><g transform="matrix(1, 0, 0, 1, -9.06, -6.06)" filter="url(#a)"><circle cx="51" cy="51" r="51" transform="translate(9 6)" fill="#fff" opacity="0.45"/></g><circle cx="40" cy="40" r="40" transform="translate(10.938 10.938)" fill="#a0d5d6"/></g><g transform="translate(-19202.049 -11863.925)"><path d="M201.565,26.889a2.148,2.148,0,0,1,0-4.3,2.148,2.148,0,1,1,0,4.3Zm23.128,24.96c-2.812-5.845-8.373-9.573-14.313-9.573-5.971,0-11.5,3.728-14.344,9.573Zm1.2,0h2.686a.537.537,0,0,1,0,1.074H192.118a.537.537,0,0,1,0-1.074h2.717a17.554,17.554,0,0,1,15.008-10.616,6.715,6.715,0,0,0-5.624-6.035,3.082,3.082,0,0,1-2.844,4.3h-2.528a.514.514,0,0,1-.537-.537V36.4a3.078,3.078,0,0,1,4.834-2.5,3.1,3.1,0,0,1,1.169-4.171l2.212-1.264a.493.493,0,0,1,.7.221l1.327,2.243a3.108,3.108,0,0,1-1.327,4.3,7.689,7.689,0,0,1,3.065,3.507,10.724,10.724,0,0,1,5.087-6.382,4.287,4.287,0,0,1-2.243-6.129l1.9-3.191a.49.49,0,0,1,.7-.19c1.927,1.3,4.518,1.864,5.15,4.392a4.128,4.128,0,0,1-.79,3.76,1.075,1.075,0,0,1,.316-.032,4.307,4.307,0,0,1,2.844-1.106,4.227,4.227,0,0,1,4.2,4.234v3.665a.533.533,0,0,1-.537.537H223.24a4.217,4.217,0,0,1-3.728-6.193,9.765,9.765,0,0,0-8.594,9.131A17.548,17.548,0,0,1,225.894,51.849ZM223.24,30.933a3.033,3.033,0,0,0-1.833.6l2.717,2.717c.474.506-.221,1.3-.758.758l-2.717-2.749a3.171,3.171,0,0,0,2.591,4.992h3.16v-3.16A3.149,3.149,0,0,0,223.24,30.933Zm-7.2-3.223c-.221-.632.822-.948,1.011-.284l1.043,3.823a3.176,3.176,0,0,0,.316-5.624l-2.717-1.58-1.675,2.717a3.2,3.2,0,0,0,3.065,4.739ZM199.354,38.421h2.022a2.018,2.018,0,0,0,1.769-3.033l-1.769,1.769c-.411.537-1.264-.221-.727-.758l1.738-1.738a2.02,2.02,0,0,0-3.033,1.738Zm7.3-8.815-1.769,1.011a2.046,2.046,0,0,0,0,3.539l.664-2.4a.53.53,0,0,1,1.011.316l-.663,2.338a2.009,2.009,0,0,0,1.769-3Zm-1.2,16.556a.559.559,0,0,1-.348-.979c.348-.284.979-.979,1.422-.442.442.569-.411.979-.758,1.3A.483.483,0,0,1,205.452,46.162Zm8.91.916c-.253,0-1.517-.758-1.043-1.359.442-.537,1.043.158,1.39.442A.509.509,0,0,1,214.362,47.078Zm-7.583,2.306a.538.538,0,0,1-.348-.948c.348-.284.979-.979,1.39-.442C208.327,48.626,206.905,49.385,206.779,49.385Zm7.867,1.169c-.284,0-1.548-.79-1.074-1.359.442-.569,1.074.158,1.422.411A.534.534,0,0,1,214.646,50.554Zm-.853-30.079h-7.678a2.165,2.165,0,0,1-4.013,0H198.09a6.507,6.507,0,0,1-4.3-1.927h-6.287a.5.5,0,0,1-.506-.506V5.341a.5.5,0,0,1,.506-.506h6.161a8.735,8.735,0,0,1,7.551-3.823c3.886-.284,6.224-.537,7.267-1.074.916-.442,2.117-1.39,3.128-.853a1.986,1.986,0,0,1,.948,1.8c.348,2.591-1.517,3.286-3.1,3.855a7.482,7.482,0,0,0-2.243,1.137,20.634,20.634,0,0,0,3.128.032h5.529a2.431,2.431,0,0,1,1.991,3.728h.506a2.377,2.377,0,1,1-.284,4.739,2.072,2.072,0,0,1-1.738,3.1h-.727A2.044,2.044,0,0,1,213.793,20.475Zm-7.551-1.043h7.551a1.006,1.006,0,0,0,.316-1.959h-7.583a.537.537,0,0,1,0-1.074h9.763a1.011,1.011,0,0,0,0-2.022h-9.763a.521.521,0,1,1,0-1.043h11.848a1.312,1.312,0,0,0,0-2.622H206.526a.537.537,0,0,1,0-1.074h9.384a1.311,1.311,0,0,0,0-2.622h-6.161a10.181,10.181,0,0,1-2.938-.126,2.025,2.025,0,0,1-1.864,1.264h-2.433a.521.521,0,1,1,0-1.043h2.433c.664,0,.948-.7,1.074-1.169.221-1.011,2.085-1.769,3.1-2.18,1.706-.6,2.654-1.043,2.4-2.717-.221-1.453-.6-1.3-2.559-.126-1.169.6-3.539.885-7.709,1.137h-.095a7.7,7.7,0,0,0-6.6,3.381V17.789A5.257,5.257,0,0,0,198.09,19.4h3.886A2.155,2.155,0,0,1,206.242,19.432Zm-3.223.253c.032.095,0,1.137,1.074,1.137a1.09,1.09,0,0,0,0-2.18A1.059,1.059,0,0,0,203.019,19.685ZM193.477,5.878h-5.434V17.505h5.434Zm5.5,9.036a1.927,1.927,0,1,1,0-3.855A1.927,1.927,0,0,1,198.975,14.914Zm0-2.812a.885.885,0,0,0,0,1.769A.885.885,0,0,0,198.975,12.1Zm2.591,11.532a1.106,1.106,0,0,0,0,2.212A1.106,1.106,0,0,0,201.565,23.635Z" transform="translate(0 0)" fill-rule="evenodd"/><path d="M487.344,1371c-5.971,0-11.5,3.728-14.344,9.573h28.657C498.845,1374.728,493.284,1371,487.344,1371Zm-3.855,2.464c.442.569-.411.979-.758,1.3a.484.484,0,0,1-.316.126.559.559,0,0,1-.348-.979C482.415,1373.622,483.047,1372.927,483.49,1373.464Zm7.836,2.338c-.253,0-1.517-.758-1.043-1.359.442-.537,1.043.158,1.39.442A.509.509,0,0,1,491.325,1375.8Zm-6.54.916c.506.632-.916,1.39-1.043,1.39a.538.538,0,0,1-.347-.948C483.742,1376.877,484.374,1376.182,484.785,1376.719Zm6.825,2.559c-.284,0-1.548-.79-1.074-1.359.442-.569,1.074.158,1.422.411A.534.534,0,0,1,491.61,1379.278Z" transform="translate(-276.964 -1328.724)" fill="#d97c41" fill-rule="evenodd"/><g transform="translate(199.354 24.045)"><path d="M722.742,974.8a2.009,2.009,0,0,0,1.769-3L723.5,970l-1.769,1.011a2.046,2.046,0,0,0,0,3.539l.663-2.4a.53.53,0,0,1,1.011.316Z" transform="translate(-716.202 -964.439)" fill="#64ad36" fill-rule="evenodd"/><path d="M580.022,1124.34c-.411.537-1.264-.221-.727-.758l1.738-1.738a2.02,2.02,0,0,0-3.033,1.738v2.022h2.022a2.018,2.018,0,0,0,1.769-3.033Z" transform="translate(-578 -1111.228)" fill="#64ad36" fill-rule="evenodd"/><path d="M1029.626,796.717a3.2,3.2,0,0,0,3.065,4.739l-1.043-3.791c-.221-.632.822-.948,1.011-.284l1.043,3.823a3.176,3.176,0,0,0,.316-5.624L1031.3,794Z" transform="translate(-1014.966 -794)" fill="#64ad36" fill-rule="evenodd"/><path d="M1236.661,1012a3.034,3.034,0,0,0-1.833.6l2.717,2.717c.474.506-.221,1.3-.758.758l-2.717-2.749a3.17,3.17,0,0,0,2.591,4.992h3.16v-3.16A3.149,3.149,0,0,0,1236.661,1012Z" transform="translate(-1212.775 -1005.112)" fill="#64ad36" fill-rule="evenodd"/></g><path d="M695.074,625.18a1.09,1.09,0,0,0,0-2.18A1.059,1.059,0,0,0,694,624.043C694.031,624.137,694,625.18,695.074,625.18Z" transform="translate(-490.981 -604.358)" fill="#ff8b2a" fill-rule="evenodd"/><path d="M614.59,783.212a1.107,1.107,0,0,0,0-2.212A1.107,1.107,0,0,0,614.59,783.212Z" transform="translate(-413.025 -757.365)" fill="#ff8b2a" fill-rule="evenodd"/><path d="M539.127,416a.885.885,0,0,0,0,1.769A.885.885,0,0,0,539.127,416Z" transform="translate(-340.152 -403.898)" fill="#ff8b2a" fill-rule="evenodd"/><path d="M430.423,43.936a1.927,1.927,0,0,1,0,3.855,1.927,1.927,0,0,1,0-3.855Zm-.885,8.341h3.886a2.155,2.155,0,0,1,4.265.032h7.551a1.006,1.006,0,0,0,.316-1.959h-7.583a.537.537,0,0,1,0-1.074h9.763a1.011,1.011,0,0,0,0-2.022h-9.763a.521.521,0,1,1,0-1.043h11.848a1.312,1.312,0,0,0,0-2.622H437.975a.537.537,0,0,1,0-1.074h9.384a1.311,1.311,0,0,0,0-2.622H441.2a10.181,10.181,0,0,1-2.938-.126,2.025,2.025,0,0,1-1.864,1.264h-2.433a.521.521,0,1,1,0-1.043h2.433c.664,0,.948-.7,1.074-1.169.221-1.011,2.085-1.769,3.1-2.18,1.706-.6,2.654-1.043,2.4-2.717-.221-1.453-.6-1.3-2.559-.126-1.169.6-3.539.885-7.709,1.137H432.6a7.7,7.7,0,0,0-6.6,3.381V50.666A5.257,5.257,0,0,0,429.539,52.277Z" transform="translate(-231.449 -32.877)" fill="#f4b999" fill-rule="evenodd"/><path d="M225.434,230.627V219H220v11.627Z" transform="translate(-31.957 -213.122)" fill="#495560" fill-rule="evenodd"/></g></g></svg>