<svg xmlns="http://www.w3.org/2000/svg" width="78.157" height="78.157" viewBox="0 0 78.157 78.157"><g transform="translate(-396.179 -1959.004)"><rect width="78.157" height="78.157" rx="39.079" transform="translate(396.179 1959.004)" fill="#a2aa5c"/><g transform="translate(401.926 1981.873)"><path d="M102.348,308.131v13.916l.486.016c7.334.445,10.652,5.1,15.13,2.8l18.869-9.689c2.644-1.358.99-5.612-1.828-4.693l-11.739,3.827-4.34,1.415a3.8,3.8,0,0,0-1.335-1.425l-8.044-5.056a8.465,8.465,0,0,0-4.7-1.354h-2.014l-.486.244Z" transform="translate(-82.832 -287.749)" fill="#ffc186" fill-rule="evenodd"/><g transform="translate(11.727 -8.292)"><circle cx="3.948" cy="3.948" r="3.948" transform="translate(12.841 4.209) rotate(-32.212)" fill="#119798"/><path d="M144.288,106.168h13.468V98.7a2.615,2.615,0,0,0-2.607-2.607H146.9a2.615,2.615,0,0,0-2.607,2.607Z" transform="translate(-132.728 -86.71)" fill="#0e797a" fill-rule="evenodd"/><circle cx="3.948" cy="3.948" r="3.948" transform="translate(30.64 4.215) rotate(-32.212)" fill="#a0d5d6"/><path d="M417.013,8.275a3.948,3.948,0,1,1,0,7.9Z" transform="translate(-380.93 -6.785)" fill="#cfeaea" fill-rule="evenodd"/><path d="M342.222,106.168H355.69V98.7a2.615,2.615,0,0,0-2.607-2.607h-8.254a2.615,2.615,0,0,0-2.607,2.607Z" transform="translate(-312.864 -86.71)" fill="#a0d5d6" fill-rule="evenodd"/><path d="M417.013,106.168h6.743V98.7a2.615,2.615,0,0,0-2.607-2.607h-4.136v10.072Z" transform="translate(-380.93 -86.71)" fill="#0a5b5b" fill-rule="evenodd"/><circle cx="4.986" cy="4.986" r="4.986" transform="translate(21.191 7.136) rotate(-12.952)" fill="#f4f6e3"/><g transform="translate(0 1.49)"><path d="M318.019,57.13a4.985,4.985,0,1,1,0,9.971Z" transform="translate(-290.837 -52.737)" fill="#a0d5d6" fill-rule="evenodd"/><path d="M223.585,180.737H240.59v-9.426a3.3,3.3,0,0,0-3.292-3.292H226.877a3.3,3.3,0,0,0-3.292,3.292Z" transform="translate(-204.894 -153.655)" fill="#cfeaea" fill-rule="evenodd"/><path d="M318.019,180.737h8.514v-9.426a3.3,3.3,0,0,0-3.292-3.292h-5.222Z" transform="translate(-290.837 -153.655)" fill="#a0d5d6" fill-rule="evenodd"/><path d="M282.482,200.648v-2.429h-2.429v2.429h-2.429v2.429h2.429v2.429h2.429v-2.429h2.429v-2.429Z" transform="translate(-254.074 -181.139)" fill="#cad473" fill-rule="evenodd"/><path d="M179.115,16.171a3.948,3.948,0,1,1,0-7.9v7.9Z" transform="translate(-160.83 -8.274)" fill="#93bf00" fill-rule="evenodd"/><path d="M144.287,106.169h6.725V96.1h-4.118a2.615,2.615,0,0,0-2.607,2.607v7.465Z" transform="translate(-132.727 -88.2)" fill="#93bf00" fill-rule="evenodd"/><path d="M179.115,16.171a3.948,3.948,0,1,1,0-7.9v7.9Z" transform="translate(-160.83 -8.274)" fill="#cfeaea" fill-rule="evenodd"/><path d="M144.287,106.169h6.725V96.1h-4.118a2.615,2.615,0,0,0-2.607,2.607v7.465Z" transform="translate(-132.727 -88.2)" fill="#a0d5d6" fill-rule="evenodd"/><path d="M15.723,307.885v14.142c2.61,0,5.18.018,7.789.018v-14.16Z" transform="translate(-15.723 -280.944)" fill="#f6ede6" fill-rule="evenodd"/><path d="M15.723,421.978v3.883c2.61,0,5.18.018,7.789.018v-3.9Z" transform="translate(-15.723 -384.778)" fill="#aa6e15" fill-rule="evenodd"/><path d="M101.555,315.129H94.924v-7.244h3.167a8.465,8.465,0,0,1,4.7,1.354l8.044,5.056c3.236,2.034,1.767,7.571-1.5,5.581l-7.784-4.747Z" transform="translate(-87.802 -280.944)" fill="#ffd2a7" fill-rule="evenodd"/></g></g><path d="M53.022,38.343l-18.2,9.347c-2.191,1.125-4.044.358-6.611-.7A22.575,22.575,0,0,0,20.5,44.931H20.47l-.542,0v-12.6H22.41a7.656,7.656,0,0,1,4.247,1.224l7.76,4.878a3.132,3.132,0,0,1,1.076,1.125.584.584,0,0,0,.052.1,3.148,3.148,0,0,1,.007,2.949c-.448.723-1.143.825-2.01.3l-7.51-4.58a.54.54,0,0,0-.562.921l7.51,4.58a2.367,2.367,0,0,0,3.489-.65,4.11,4.11,0,0,0,.263-3.495l14.94-4.87a1.7,1.7,0,0,1,2.168,1.073,1.843,1.843,0,0,1-.818,2.462Zm-40.611-6.01h6.437V44.924L12.411,44.9Zm38.927,1.45L36.232,38.706a4.237,4.237,0,0,0-1.241-1.186L27.23,32.643a8.685,8.685,0,0,0-4.82-1.389H11.872a.54.54,0,0,0-.54.54V45.437a.54.54,0,0,0,.538.54l8.58.033a21.7,21.7,0,0,1,7.345,1.974,12.991,12.991,0,0,0,4.824,1.339,5.771,5.771,0,0,0,2.692-.671l18.2-9.347a2.943,2.943,0,0,0,1.322-3.836,2.787,2.787,0,0,0-3.5-1.684ZM42.024,25.94H40.135a.539.539,0,0,0-.54.54v1.89h-1.35V26.48a.539.539,0,0,0-.54-.54H35.816V24.59h1.889a.539.539,0,0,0,.54-.539v-1.89H39.6v1.89a.539.539,0,0,0,.54.539h1.889Zm.54-2.429H40.674V21.622a.54.54,0,0,0-.54-.54h-2.43a.54.54,0,0,0-.54.54v1.889H35.276a.54.54,0,0,0-.54.54V26.48a.54.54,0,0,0,.54.54h1.889v1.89a.54.54,0,0,0,.54.54h2.43a.54.54,0,0,0,.54-.54v-1.89h1.889a.54.54,0,0,0,.54-.54V24.051A.54.54,0,0,0,42.563,23.511Zm11.45-1.539H47.955a3.836,3.836,0,0,0-3.824-3.605H42.184a5.508,5.508,0,0,0,2.168-5.388h7.594a2.07,2.07,0,0,1,2.068,2.067v6.926Zm-7.131,9.113V22.2a2.755,2.755,0,0,0-2.752-2.752H33.709A2.756,2.756,0,0,0,30.956,22.2v8.886ZM23.827,15.046a2.069,2.069,0,0,1,2.067-2.067h7.571a5.588,5.588,0,0,0-.082.942,5.52,5.52,0,0,0,2.25,4.446H33.709a3.836,3.836,0,0,0-3.824,3.605H23.827ZM38.909,9.475a4.446,4.446,0,1,0,4.446,4.446A4.451,4.451,0,0,0,38.909,9.475ZM26.6,8.491a3.409,3.409,0,1,1,3.41,3.409A3.413,3.413,0,0,1,26.6,8.491Zm17.8,0A3.409,3.409,0,1,1,47.81,11.9,3.413,3.413,0,0,1,44.4,8.491ZM51.945,11.9a3.15,3.15,0,0,1,3.147,3.147v7.465a.54.54,0,0,1-.54.54H47.962v8.573a.54.54,0,0,1-.54.539H30.417a.54.54,0,0,1-.54-.539V23.051h-6.59a.539.539,0,0,1-.54-.54V15.046A3.15,3.15,0,0,1,25.894,11.9h1.2a4.488,4.488,0,1,1,5.827,0h.843a5.523,5.523,0,0,1,10.281,0H44.9a4.488,4.488,0,1,1,5.828,0Z" transform="translate(0 -11.19)" fill="#242222" fill-rule="evenodd"/></g></g></svg>