<svg xmlns="http://www.w3.org/2000/svg" width="54.353" height="54.353" viewBox="0 0 54.353 54.353"><g transform="translate(-1 -1)"><path d="M16,24H44.053V57.313H16Z" transform="translate(-1.85 -2.837)" fill="#686258"/><path d="M16,30H44.053V52.793H16Z" transform="translate(-1.85 -3.577)" fill="#8a8275"/><path d="M16,49.251C27.067,48.673,36.363,40.809,39.9,30H16Z" transform="translate(-1.85 -3.577)" fill="#b9b4ac"/><path d="M2,58.793V44.767l2.63-2.63V36H8.137v6.137l2.63,2.63V58.793Z" transform="translate(-0.123 -4.317)" fill="#bf8859"/><path d="M2,48h8.767v8.767H2Z" transform="translate(-0.123 -5.797)" fill="#d5cec2"/><path d="M2,54.109c3.051-.22,5.6-2.7,6.58-6.109H2Z" transform="translate(-0.123 -5.797)" fill="#eeebe7"/><path d="M12,58.793V44.767l2.63-2.63V36h3.507v6.137l2.63,2.63V58.793Z" transform="translate(-1.357 -4.317)" fill="#bf8859"/><path d="M12,48h8.767v8.767H12Z" transform="translate(-1.357 -5.797)" fill="#d5cec2"/><path d="M12,54.109c3.051-.22,5.6-2.7,6.58-6.109H12Z" transform="translate(-1.357 -5.797)" fill="#eeebe7"/><path d="M14,18H45.56v5.26H14Z" transform="translate(-1.603 -2.097)" fill="#8a8275"/><path d="M16,16.027,19.507,2h21.04l3.507,14.027Z" transform="translate(-1.85 -0.123)" fill="#686258"/><path d="M24,2H38.027v8.767H24Z" transform="translate(-2.837 -0.123)" fill="#8a8275"/><circle cx="12" cy="12" r="12" transform="translate(30 30.353)" fill="#a2aa5c"/><path d="M36.833,54.114c9.58-.526,17.19-8.017,17.32-17.245a12.273,12.273,0,0,0-17.32,17.245Z" transform="translate(-4.073 -4.073)" fill="#cad473"/><path d="M10.643,59.547H1.877A.877.877,0,0,1,1,58.67V44.643a.877.877,0,0,1,.257-.62L3.63,41.65V35.877A.877.877,0,0,1,4.507,35H8.013a.877.877,0,0,1,.877.877V41.65l2.373,2.373a.877.877,0,0,1,.257.62V58.67A.877.877,0,0,1,10.643,59.547Zm-7.89-1.753H9.767V45.006L7.393,42.633a.877.877,0,0,1-.257-.62v-5.26H5.383v5.26a.877.877,0,0,1-.257.62L2.753,45.006Z" transform="translate(0 -4.193)"/><path d="M10.643,48.753H1.877a.877.877,0,1,1,0-1.753h8.767a.877.877,0,1,1,0,1.753Z" transform="translate(0 -5.674)"/><path d="M10.643,58.753H1.877a.877.877,0,0,1,0-1.753h8.767a.877.877,0,0,1,0,1.753Z" transform="translate(0 -6.907)"/><path d="M20.643,59.547H11.877A.877.877,0,0,1,11,58.67V44.643a.877.877,0,0,1,.257-.62L13.63,41.65V35.877A.877.877,0,0,1,14.507,35h3.507a.877.877,0,0,1,.877.877V41.65l2.373,2.373a.877.877,0,0,1,.257.62V58.67A.877.877,0,0,1,20.643,59.547Zm-7.89-1.753h7.013V45.006l-2.373-2.373a.877.877,0,0,1-.257-.62v-5.26H15.383v5.26a.877.877,0,0,1-.257.62l-2.373,2.373Z" transform="translate(-1.233 -4.193)"/><path d="M20.643,48.753H11.877a.877.877,0,1,1,0-1.753h8.767a.877.877,0,1,1,0,1.753Z" transform="translate(-1.233 -5.674)"/><path d="M20.643,58.753H11.877a.877.877,0,0,1,0-1.753h8.767a.877.877,0,0,1,0,1.753Z" transform="translate(-1.233 -6.907)"/><path d="M45.437,24.013H13.877A.877.877,0,0,1,13,23.137v-5.26A.877.877,0,0,1,13.877,17h31.56a.877.877,0,0,1,.877.877v5.26A.877.877,0,0,1,45.437,24.013ZM14.753,22.26H44.56V18.753H14.753Z" transform="translate(-1.48 -1.973)"/><path d="M47.877,33.52A.877.877,0,0,1,47,32.643V23.877a.877.877,0,1,1,1.753,0v8.767A.877.877,0,0,1,47.877,33.52Z" transform="translate(-5.674 -2.713)"/><path d="M35.9,62.753H21.877a.877.877,0,1,1,0-1.753H35.9a.877.877,0,1,1,0,1.753Z" transform="translate(-2.467 -7.4)"/><path d="M15.877,35.273A.877.877,0,0,1,15,34.4V23.877a.877.877,0,1,1,1.753,0V34.4A.877.877,0,0,1,15.877,35.273Z" transform="translate(-1.727 -2.713)"/><path d="M43.93,16.78a.877.877,0,0,1-.849-.664L39.738,2.753H20.068L16.727,16.116a.877.877,0,1,1-1.7-.426L18.533,1.664A.877.877,0,0,1,19.383,1h21.04a.877.877,0,0,1,.85.664L44.78,15.69a.877.877,0,0,1-.638,1.063.849.849,0,0,1-.212.026Z" transform="translate(-1.727)"/><path d="M37.9,11.52H23.877A.877.877,0,0,1,23,10.643V1.877a.877.877,0,0,1,1.753,0v7.89H37.027V1.877a.877.877,0,1,1,1.753,0v8.767A.877.877,0,0,1,37.9,11.52Z" transform="translate(-2.713 0)"/><path d="M43.93,30.753H15.877a.877.877,0,1,1,0-1.753H43.93a.877.877,0,1,1,0,1.753Z" transform="translate(-1.727 -3.453)"/><path d="M34.15,56.753H21.877a.877.877,0,0,1,0-1.753H34.15a.877.877,0,0,1,0,1.753Z" transform="translate(-2.467 -6.66)"/><path d="M38.877,48.643A.877.877,0,0,1,38,47.767,8.776,8.776,0,0,1,46.767,39H49.4a.877.877,0,1,1,0,1.753h-2.63a7.021,7.021,0,0,0-7.013,7.013A.877.877,0,0,1,38.877,48.643Z" transform="translate(-4.563 -4.687)"/><path d="M47.877,43.013a.877.877,0,0,1-.62-1.5l2.01-2.01-2.01-2.01a.877.877,0,1,1,1.24-1.24l2.63,2.63a.877.877,0,0,1,0,1.24l-2.63,2.63A.877.877,0,0,1,47.877,43.013Z" transform="translate(-5.674 -4.317)"/><path d="M47.507,55.643h-2.63a.877.877,0,1,1,0-1.753h2.63a7.021,7.021,0,0,0,7.013-7.013.877.877,0,0,1,1.753,0,8.776,8.776,0,0,1-8.767,8.767Z" transform="translate(-5.304 -5.55)"/><path d="M47.507,59.013a.877.877,0,0,1-.62-.257l-2.63-2.63a.877.877,0,0,1,0-1.24l2.63-2.63a.877.877,0,1,1,1.24,1.24l-2.01,2.01,2.01,2.01a.877.877,0,0,1-.62,1.5Z" transform="translate(-5.304 -6.29)"/><path d="M46.15,59.3A13.15,13.15,0,1,1,59.3,46.15,13.15,13.15,0,0,1,46.15,59.3Zm0-24.547a11.4,11.4,0,1,0,11.4,11.4,11.4,11.4,0,0,0-11.4-11.4Z" transform="translate(-3.947 -3.947)"/></g></svg>