<svg xmlns="http://www.w3.org/2000/svg" width="48.218" height="54.747" viewBox="0 0 48.218 54.747"><g transform="translate(-38.454 -9)"><g transform="translate(38.454 9)"><path d="M67.041,27.933H60.4V21.294h6.639Zm.776-8.191H59.625a.776.776,0,0,0-.776.776v8.191a.775.775,0,0,0,.776.776h8.191a.775.775,0,0,0,.776-.776V20.518A.776.776,0,0,0,67.816,19.742Zm11.818,27.1a5.485,5.485,0,1,1,2.052-10.569l.031.012a5.484,5.484,0,0,1-2.083,10.557Zm1.576,2.806.006-1.435a7.021,7.021,0,0,1-4.937-.673H59.81a.776.776,0,0,1,0-1.552H74.344a7.034,7.034,0,0,1-1.115-1.725H59.81a.776.776,0,0,1,0-1.552H72.73a7.089,7.089,0,0,1-.132-1.355c0-.153.007-.3.017-.454H60.141a11.4,11.4,0,0,1-4.023,4.807v3.94a1.275,1.275,0,0,0,1.168,1.357H80.042a1.278,1.278,0,0,0,1.168-1.36Zm-28.486-1.7v-.685a11.194,11.194,0,0,0,1.842-.674v1.359Zm-1.05,14.13c-.114.116-.182.116-.211.116H48.1c-.029,0-.1,0-.211-.116-.31-.315-.867-1.341-1.115-4.672-.042-.568-.071-1.145-.091-1.71l2.8,1.866a.775.775,0,0,0,.867,0l2.53-1.718c-.019.519-.047,1.046-.086,1.565-.248,3.331-.8,4.358-1.115,4.672ZM46.665,51.6c-.009.559-.021,1.331-.018,2.209L49.9,55.983l3.009-2.042c0-.933-.009-1.754-.018-2.341-.006-.314-.009-.565-.009-.739a.194.194,0,0,0-.192-.191H46.866a.194.194,0,0,0-.192.191c0,.174,0,.425-.009.739Zm3.115-3.948a11.323,11.323,0,0,0,1.392-.085v1.552H48.389V47.567a11.3,11.3,0,0,0,1.392.085ZM40.006,36.327A9.775,9.775,0,1,1,49.781,46.1a9.775,9.775,0,0,1-9.774-9.774Zm7.667-24.418V25.2a11.282,11.282,0,0,1,2.108-.2,11.459,11.459,0,0,1,1.145.058V15.914a2.823,2.823,0,0,1,2.721-2.909H65.881l-2.265-2.454H48.841a1.276,1.276,0,0,0-1.168,1.358ZM69.79,16.063l-1.372-1.506H53.646a1.275,1.275,0,0,0-1.169,1.357v9.412a11.137,11.137,0,0,1,2.089.737V18.972a2.823,2.823,0,0,1,2.72-2.909Zm3.392,2.786,7.047,7.733H73.207Zm1.448,17.566A7.019,7.019,0,0,1,81.22,34.5l-.008-6.368H72.433a.778.778,0,0,1-.776-.774l-.03-9.746H57.286a1.275,1.275,0,0,0-1.168,1.357v7.973A11.411,11.411,0,0,1,59.5,30.519a.767.767,0,0,1,.31-.065H78.1A.776.776,0,1,1,78.1,32H60.249a11.279,11.279,0,0,1,.51,1.534h14.8a.776.776,0,1,1,0,1.552H61.038a11.376,11.376,0,0,1,.069,1.237c0,.029,0,.059,0,.087Zm-1.74,2.936H60.7a11.255,11.255,0,0,0,.291-1.384H73.472A7,7,0,0,0,72.891,39.35Zm13.781,2.006a7.044,7.044,0,0,0-3.9-6.3l-.01-7.7a.777.777,0,0,0-.2-.522L72.974,16.317a.773.773,0,0,0-.573-.254H71.89l-2.555-2.8a.777.777,0,0,0-.574-.254h-.769L64.526,9.249A.777.777,0,0,0,63.956,9H48.841a2.823,2.823,0,0,0-2.72,2.909v13.7a11.326,11.326,0,0,0,.716,21.656v1.855a1.745,1.745,0,0,0-1.714,1.741c0,.168,0,.411-.009.714-.078,4.816.06,9.96,1.667,11.593a1.829,1.829,0,0,0,1.317.58h3.367a1.829,1.829,0,0,0,1.316-.58c1.607-1.634,1.744-6.777,1.667-11.593-.005-.3-.009-.545-.009-.714a1.739,1.739,0,0,0-.656-1.36h.784v.149a2.823,2.823,0,0,0,2.72,2.909H80.042a2.825,2.825,0,0,0,2.72-2.906l.009-2a7.045,7.045,0,0,0,3.9-6.3Zm-3.707-2.235a.775.775,0,0,0-1.1,0q-.678.678-1.353,1.362t-1.362,1.372a.07.07,0,0,1-.1,0c-.192-.192-.394-.42-.608-.661-.236-.267-.481-.542-.74-.8a.776.776,0,0,0-1.1,1.1c.226.226.456.484.676.734s.447.5.672.728a1.62,1.62,0,0,0,2.291,0q.687-.687,1.369-1.378t1.347-1.358a.773.773,0,0,0,0-1.1ZM45.054,41.054a6.692,6.692,0,0,0,9.089.336l-.918-.918A5.389,5.389,0,1,1,49.005,31V29.689a6.683,6.683,0,0,0-3.951,11.365Zm4.727-8.563a3.837,3.837,0,1,0,2.714,1.123A3.837,3.837,0,0,0,49.781,32.49Zm4.727-.89a6.639,6.639,0,0,0-3.951-1.912V31a5.386,5.386,0,0,1,3.708,8.322l.93.93a6.7,6.7,0,0,0-.687-8.646Zm1.1,10.55a8.236,8.236,0,1,1-5.826-14.059h0A8.235,8.235,0,0,1,55.6,42.151Z" transform="translate(-38.454 -9)" fill="#242222" fill-rule="evenodd"/><path d="M150.7,198.506a5.4,5.4,0,0,1,.673,6.8l.93.93a6.683,6.683,0,0,0-4.638-10.558v1.307A5.364,5.364,0,0,1,150.7,198.506Z" transform="translate(-135.557 -174.99)" fill="#119798" fill-rule="evenodd"/><path d="M112.572,227.486a3.839,3.839,0,1,0-5.428,0,3.839,3.839,0,0,0,5.428,0Z" transform="translate(-98.531 -197.445)" fill="#eceff1" fill-rule="evenodd"/><path d="M68.057,171.322a8.238,8.238,0,1,1-5.826-2.412h0a8.18,8.18,0,0,1,5.822,2.412Zm3.951,5.824a9.775,9.775,0,1,0-9.774,9.774,9.775,9.775,0,0,0,9.774-9.774Z" transform="translate(-50.907 -149.819)" fill="#ffe177" fill-rule="evenodd"/><path d="M83.211,198.507a5.357,5.357,0,0,1,3.036-1.521V195.68a6.683,6.683,0,1,0,5.138,11.7l-.918-.917a5.39,5.39,0,0,1-7.256-7.956Z" transform="translate(-75.695 -174.991)" fill="#a2aa5c" fill-rule="evenodd"/><path d="M118.434,385h-5.829a.194.194,0,0,0-.192.191c0,.174,0,.425-.009.739-.009.559-.021,1.331-.018,2.209l3.257,2.174,3.009-2.042c0-.933-.009-1.754-.018-2.341-.006-.314-.009-.565-.009-.739A.194.194,0,0,0,118.434,385Z" transform="translate(-104.193 -343.33)" fill="#eceff1" fill-rule="evenodd"/><path d="M128.1,358.552h2.784V357a11.4,11.4,0,0,1-2.784,0Z" transform="translate(-118.165 -318.433)" fill="#697c86" fill-rule="evenodd"/><path d="M116.353,432.223a.775.775,0,0,1-.867,0l-2.8-1.866c.02.565.049,1.143.091,1.71.248,3.331.8,4.358,1.115,4.672.114.116.182.116.211.116h3.367c.029,0,.1,0,.211-.116.31-.315.867-1.341,1.115-4.672.039-.519.066-1.046.086-1.565Z" transform="translate(-104.462 -383.663)" fill="#cad473" fill-rule="evenodd"/><path d="M197.839,305.606a1.275,1.275,0,0,0,1.168,1.357h22.757a1.278,1.278,0,0,0,1.168-1.36l.006-1.435A7.021,7.021,0,0,1,218,303.5H201.532a.776.776,0,0,1,0-1.552h14.534a7.034,7.034,0,0,1-1.115-1.725H201.532a.776.776,0,0,1,0-1.552h12.92a7.089,7.089,0,0,1-.132-1.355c0-.153.007-.3.017-.454H201.862a11.4,11.4,0,0,1-4.023,4.807Z" transform="translate(-180.175 -264.956)" fill="#eceff1" fill-rule="evenodd"/><path d="M167.219,349.549h1.842V348.19a11.2,11.2,0,0,1-1.842.674Z" transform="translate(-152.949 -310.6)" fill="#d1d1d6" fill-rule="evenodd"/><path d="M365.964,251.47a5.489,5.489,0,1,0,2.083.412l-.031-.012A5.447,5.447,0,0,0,365.964,251.47Zm2.233,3.249a.776.776,0,1,1,1.1,1.1q-.676.678-1.346,1.358t-1.369,1.378a1.62,1.62,0,0,1-2.291,0c-.225-.225-.452-.481-.672-.728s-.45-.508-.676-.734a.776.776,0,0,1,1.1-1.1c.259.259.5.534.74.8.214.241.417.469.608.661a.07.07,0,0,0,.1,0q.683-.683,1.362-1.372T368.2,254.719Z" transform="translate(-324.783 -224.598)" fill="#a0d5d6" fill-rule="evenodd"/><path d="M251.926,270.37H239.441a11.258,11.258,0,0,1-.291,1.384h12.2A7,7,0,0,1,251.926,270.37Z" transform="translate(-216.908 -241.404)" fill="#eceff1" fill-rule="evenodd"/><path d="M217.282,102.653a.776.776,0,0,1,0,1.552H202.76a11.377,11.377,0,0,1,.069,1.237v.087h13.525a7.019,7.019,0,0,1,6.589-1.913l-.008-6.368h-8.779a.778.778,0,0,1-.776-.774l-.03-9.746H199.008a1.275,1.275,0,0,0-1.168,1.357v7.973a11.411,11.411,0,0,1,3.382,3.574.767.767,0,0,1,.31-.065h18.289a.776.776,0,1,1,0,1.552h-17.85a11.277,11.277,0,0,1,.51,1.534Zm-6.967-4.83a.775.775,0,0,1-.776.776h-8.191a.775.775,0,0,1-.776-.776V89.633a.776.776,0,0,1,.776-.776h8.191a.776.776,0,0,1,.776.776Z" transform="translate(-180.176 -78.115)" fill="#eceff1" fill-rule="evenodd"/><path d="M351.845,105.6h7.023l-7.047-7.733Z" transform="translate(-317.092 -88.02)" fill="#d1d1d6" fill-rule="evenodd"/></g><path d="M236.49,119.929h6.639v6.639H236.49Z" transform="translate(-176.089 -98.635)" fill="#119798"/><path d="M167.079,70.647V63.555a2.823,2.823,0,0,1,2.72-2.909h12.5l-1.372-1.506H166.159A1.275,1.275,0,0,0,164.99,60.5V69.91A11.136,11.136,0,0,1,167.079,70.647Z" transform="translate(-112.513 -44.583)" fill="#d1d1d6" fill-rule="evenodd"/><path d="M124.892,37.507V28.363a2.823,2.823,0,0,1,2.721-2.909h12.235L137.582,23H122.807a1.276,1.276,0,0,0-1.168,1.358v13.29a11.282,11.282,0,0,1,2.108-.2A11.459,11.459,0,0,1,124.892,37.507Z" transform="translate(-73.966 -12.448)" fill="#eceff1" fill-rule="evenodd"/></g></svg>