<svg xmlns="http://www.w3.org/2000/svg" width="78.157" height="78.157" viewBox="0 0 78.157 78.157"><g transform="translate(-711.511 -1959.004)"><rect width="78.157" height="78.157" rx="39.079" transform="translate(711.511 1959.004)" fill="#a2aa5c"/><g transform="translate(718.332 1965.824)"><circle cx="1.576" cy="1.576" r="1.576" transform="translate(37.07 52.655)" fill="#6a7073"/><circle cx="1.576" cy="1.576" r="1.576" transform="translate(47.927 52.655)" fill="#6a7073"/><path d="M304,352h15.65l-1.565,7.825h-12.52Z" transform="translate(-267.048 -310.353)" fill="#fafbf1"/><path d="M90.591,76.35a13.437,13.437,0,0,1-.214,2.4c-.024.139-.052.277-.081.415a13.306,13.306,0,0,1-26.166-4.769c.007-.05.015-.1.023-.15a13.288,13.288,0,0,1,21.3-8.432c.172.135.341.274.506.417A13.333,13.333,0,0,1,90.591,76.35Z" transform="translate(-50.509 -49.619)" fill="#a3d4f7"/><path d="M73.39,179.13a3.129,3.129,0,0,1-3.13,3.13H65.565a3.118,3.118,0,0,1-1.02-.17,13.474,13.474,0,0,1-.4-5.749,3.125,3.125,0,0,1,1.422-.34H70.26A3.13,3.13,0,0,1,73.39,179.13Z" transform="translate(-50.523 -151.568)" fill="#35a872"/><path d="M205.519,102.26A13.361,13.361,0,0,0,201.454,96H195.13a3.13,3.13,0,0,0,0,6.26h3.912a3.13,3.13,0,0,0,0,6.26h6.828A13.494,13.494,0,0,0,205.519,102.26Z" transform="translate(-166.003 -79.393)" fill="#35a872"/><path d="M188.466,288a13.288,13.288,0,0,1-12.137,4.543A3.13,3.13,0,0,1,179.122,288Z" transform="translate(-151.56 -252.613)" fill="#35a872"/><path d="M315.539,320h-2.347a.782.782,0,0,0-.742.535l-.6,1.812H296.759a.782.782,0,0,0-.767.936l1.565,7.825a.783.783,0,0,0,.767.629h12.52a.782.782,0,0,1,0,1.565h-12.52a2.349,2.349,0,1,0,2.213,1.565h6.529a3.326,3.326,0,1,0,4.695-4.508l1.406-7.028.589-1.766h1.783a.782.782,0,0,0,0-1.565Zm-17.356,6.26-.469-2.347h2.25l.235,2.347Zm.783,3.912-.469-2.347h1.858l.235,2.347Zm4.836,0h-1.639l-.235-2.347H303.8Zm0-3.912h-2.031l-.235-2.347H303.8Zm3.2,3.912h-1.639v-2.347h1.874Zm.391-3.912h-2.031v-2.347h2.265Zm2.805,3.912h-1.624l.235-2.347h1.858Zm.782-3.912H308.97l.235-2.347h2.25Zm-12.661,10.172a.782.782,0,1,1,.783-.782A.782.782,0,0,1,298.324,336.432Zm10.955,0a.782.782,0,1,1,.782-.782A.782.782,0,0,1,309.279,336.432Z" transform="translate(-259.808 -281.483)"/><path d="M26.78,45.559h4.695a.782.782,0,1,0,0-1.565H26.78A17.215,17.215,0,1,1,43.994,26.78V33.5l-1.012-1.012a.783.783,0,1,0-1.107,1.107l2.347,2.347a.777.777,0,0,0,1.105,0h0l2.347-2.347a.782.782,0,1,0-1.107-1.107L45.559,33.5V26.78a18.78,18.78,0,1,0-18.78,18.78Z"/><path d="M81.57,60.952A14.1,14.1,0,1,0,70.085,83.268a13.912,13.912,0,0,0,8.648-2.977A14.171,14.171,0,0,0,81.57,60.952Zm-1.277.905A12.51,12.51,0,0,1,82.6,69.134a12.748,12.748,0,0,1-.1,1.614H76.344a2.347,2.347,0,0,1,0-4.695.782.782,0,0,0,0-1.565H72.432a2.347,2.347,0,0,1,0-4.695h6.029A12.63,12.63,0,0,1,80.294,61.857ZM57.565,69.134a12.724,12.724,0,0,1,.091-1.516h5.387a2.347,2.347,0,1,1,0,4.695H57.971A12.592,12.592,0,0,1,57.565,69.134Zm.927,4.744h4.551a3.912,3.912,0,1,0,0-7.825h-5.1a12.506,12.506,0,0,1,18.367-7.825h-3.88a3.912,3.912,0,0,0,0,7.825h.781a3.914,3.914,0,0,0,3.131,6.26H82.2a12.566,12.566,0,0,1-2.357,4.695H70.867a3.9,3.9,0,0,0-3.891,4.3A12.589,12.589,0,0,1,58.492,73.878ZM70.085,81.7a12.559,12.559,0,0,1-1.46-.086,2.347,2.347,0,0,1,2.242-3.044h7.484q-.284.251-.583.485A12.362,12.362,0,0,1,70.085,81.7Z" transform="translate(-43.305 -42.404)"/></g></g></svg>