<svg xmlns="http://www.w3.org/2000/svg" width="78.157" height="78.157" viewBox="0 0 78.157 78.157"><g transform="translate(-1026.511 -1959.004)"><rect width="78.157" height="78.157" rx="39.079" transform="translate(1026.511 1959.004)" fill="#a2aa5c"/><g transform="translate(1023.808 1951.306)"><path d="M65.3,51.795a4.971,4.971,0,0,0-4.548-1.921A18.068,18.068,0,0,0,44.9,23.194c-14.476,0-22.826,16.078-15.122,27.9-.809.417-1.711.891-2.722,1.427l-.473-.683a1.83,1.83,0,0,0-2.539-.461l-5.454,3.78a1.83,1.83,0,0,0-.46,2.538l8.016,11.569a1.829,1.829,0,0,0,2.541.46l5.454-3.78c1.132-.786.881-1.931.214-2.893.244-.367.527-1.051,1.054-.874l10.546,3.266c4.728,1.432,14.5-7.114,18.237-9.748,1.894-1.24,1.781-2.876,1.109-3.9Z" transform="translate(0)" fill-rule="evenodd"/><path d="M152.659,291.123c-3.586,2.578-13.509,10.728-17.159,9.6l-10.547-3.267a1.847,1.847,0,0,0-2.214.965l-5.786-8.346c12.071-6.385,8.069-3.922,20.99-.057a2.27,2.27,0,0,1-1.3,4.35l-8.877-2.513a.639.639,0,0,0-.347,1.23l8.877,2.513a3.586,3.586,0,0,0,4.42-2.457l7.334-4.81a4.03,4.03,0,0,1,5.347.663c.838,1.273-.739,2.133-.739,2.133Z" transform="translate(-89.165 -236.493)" fill="#ffc8b1" fill-rule="evenodd"/><path d="M39.315,329.084a.55.55,0,0,1-.762-.138l-8.017-11.569a.55.55,0,0,1,.138-.762l5.454-3.78a.55.55,0,0,1,.762.138l8.016,11.57a.6.6,0,0,1-.137.761l-5.455,3.78Zm1.6-3.58a.649.649,0,0,0-1.3.03A.649.649,0,0,0,40.912,325.5Z" transform="translate(-11.356 -260.408)" fill="#4ba4ed" fill-rule="evenodd"/><path d="M268.907,246.464c-.572-.9-2.238-1.695-2.238-2.7,0-.651,1.279-3.737,4.182-3.1a23.165,23.165,0,0,1,2.463.682c.55.632.437,1.1,1.467,1.61.658.3,1.441.356,2.029.706.057.354-.514,1.075-.683,1.483a3.5,3.5,0,0,1-.36,1,8.008,8.008,0,0,1-2.474,1.78C271.964,247.382,270.32,246.987,268.907,246.464Z" transform="translate(-223.815 -195.506)" fill="#62bb46" fill-rule="evenodd"/><path d="M124.1,50.691c0,3.911-1.823,2.526.122,8.61a5.457,5.457,0,0,0,2.018,2.892,49.548,49.548,0,0,0,5.855,2.783c1.622.4,2.959-1.208,1.346-2.383-1.077-.784-2.793-1.855-2.969-3.1,1.223-.758,1.756,1.355,3.337,1.355,1.306,0,.951-1.717.951-2.362,0-.911.9-1.907,1.435-2.6,1.422-1.891,2.438-1.318,3.707-2.534,1.024-1.12-1.41-3.157-1.9-4.628-.641-1.912,2.541,1.976,3.649,1.211,1.044-.839.883-3.243,1.159-4.672a16.687,16.687,0,0,1,2.806,1.292c.281,1.452.359,3.984.718,5.19.49,1.372,1.141,1.225,1.841,1.961a11.684,11.684,0,0,1,.551,2.209c.252.756.546,1.1.316,1.956a9.721,9.721,0,0,0-.622,3.274c0,7.144,3.441,3.043,1.489,6.5a22.222,22.222,0,0,0-1.757,4.538l-4.177,2.739a3.586,3.586,0,0,0-.948-1.841,8.775,8.775,0,0,0,2.3-1.821,3.578,3.578,0,0,0,.535-1.319c.408-.916,1.289-1.685.454-2.771-.846-.772-1.511-.615-2.421-1.01-.927-.431-.574-1.586-2.2-1.829-1.086-.162-3.521-1.537-5.688.154-1.118.9-2.915,3.327-1.513,5.167-4.856-2-5.78-2.017-11.213.713a16.82,16.82,0,0,1,.827-19.666Z" transform="translate(-92.348 -19.845)" fill="#54c3ef" fill-rule="evenodd"/><g transform="translate(32.269 24.469)"><path d="M178.441,36.43c-.193.988-.289,3.209-.521,3.788-.511-.36-1-.751-1.519-1.1-1.7-1.2-3.544-.929-2.768,1.506.386,1.156,1.674,2.588,2.091,3.516-1.506.907-2.268.646-3.671,2.5-.77.983-1.708,2.074-1.708,3.385,0,.33.058.652.055.981a4.96,4.96,0,0,1-1.074-.859c-1.1-.922-3.26-.7-3.26.939,0,2.474,5.064,4.714,3.152,4.187a55.329,55.329,0,0,1-5.32-2.534,4.216,4.216,0,0,1-1.609-2.306c-1.975-6.5.334-3.633-.1-9.588A16.751,16.751,0,0,1,178.441,36.43Z" transform="translate(-161.477 -35.86)" fill="#62bb46" fill-rule="evenodd"/><path d="M389.194,90.393a10.538,10.538,0,0,0-1.529.909c.833-2.548,2.484-4.387,1.754-5.751-.606-1.132-1.883.574-1.883-4.156a8.7,8.7,0,0,1,.585-2.983,3.754,3.754,0,0,0-.338-2.663,7.228,7.228,0,0,0-.757-2.6c-.553-.653-1.334-.759-1.641-1.593-.266-.991-.2-2.59-.438-3.807A16.772,16.772,0,0,1,389.194,90.393Z" transform="translate(-362.461 -64.538)" fill="#62bb46" fill-rule="evenodd"/></g></g></g></svg>