<svg xmlns="http://www.w3.org/2000/svg" width="78.157" height="78.157" viewBox="0 0 78.157 78.157"><g transform="translate(-1341.843 -1959.004)"><rect width="78.157" height="78.157" rx="39.079" transform="translate(1341.843 1959.004)" fill="#a2aa5c"/><g transform="translate(1358.175 1975.361)"><path d="M34.584,11.319,37.149,9.9l2.566,1.418-.491-3L41.3,6.187l-2.87-.436L37.149,3.02,35.87,5.752,33,6.187l2.075,2.13Z" transform="translate(-9.562 -0.327)" fill="#20c0e5"/><path d="M50.314,11.3l2.566-1.418L55.445,11.3l-.491-3,2.075-2.13-2.863-.436L52.879,3,51.6,5.732l-2.87.436L50.8,8.3Z" transform="translate(-14.414 -0.321)" fill="#20c0e5"/><circle cx="2.075" cy="2.075" r="2.075" transform="translate(36.391 20.66)" fill="#edc48e"/><path d="M55.224,46.3v7.607H51.075V46.3H49V39.162A1.162,1.162,0,0,1,50.162,38h6A1.141,1.141,0,0,1,57.3,39.134V46.3Z" transform="translate(-14.497 -11.117)" fill="#edc48e"/><circle cx="2.075" cy="2.075" r="2.075" transform="translate(25.326 20.66)" fill="#edc48e"/><path d="M39.224,46.3v7.607H35.075V46.3H33V39.162A1.162,1.162,0,0,1,34.162,38h6A1.141,1.141,0,0,1,41.3,39.134V46.3Z" transform="translate(-9.562 -11.117)" fill="#edc48e"/><path d="M5.73,28c.408,2.04,1.874,4.191,5.187,5.532a16.507,16.507,0,0,0,5.864,1.383V36.99L23.7,32.841l-6.916-4.149v2.075a9.087,9.087,0,0,1-4.972.512C8.628,30.863,6.857,29.591,5.73,28Z" transform="translate(-1.151 -8.032)" fill="#d81616"/><g transform="translate(2.692 2.679)"><circle cx="8.299" cy="8.299" r="8.299" transform="translate(0 0.014)" fill="#4bad0b"/><path d="M12.841,3a4.73,4.73,0,0,0-1.051.429C9.57,4.653,8,7.723,8,11.3s1.57,6.66,3.783,7.87a4.73,4.73,0,0,0,1.058.429" transform="translate(-4.542 -3)" fill="#4bad0b"/><path d="M15,19.6a4.73,4.73,0,0,0,1.051-.429c2.213-1.2,3.79-4.26,3.79-7.87s-1.577-6.646-3.79-7.856A4.73,4.73,0,0,0,15,3" transform="translate(-6.701 -3)" fill="#4bad0b"/><path d="M5.57,21.389a10.262,10.262,0,0,1,1.169-.844,10.117,10.117,0,0,1,10.712,0,10.823,10.823,0,0,1,1.162.844" transform="translate(-3.793 -7.939)" fill="#4bad0b"/><path d="M5.57,7.584a10.263,10.263,0,0,0,1.169.844,10.1,10.1,0,0,0,1.113.6,10.083,10.083,0,0,0,4.239.913,10.09,10.09,0,0,0,4.246-.927,10.1,10.1,0,0,0,1.113-.6,10.823,10.823,0,0,0,1.162-.844" transform="translate(-3.793 -4.41)" fill="#4bad0b"/></g><path d="M10.99,19.98a8.99,8.99,0,1,1,8.99-8.99,8.99,8.99,0,0,1-8.99,8.99Zm0-16.6A7.607,7.607,0,1,0,18.6,10.99,7.607,7.607,0,0,0,10.99,3.383Z" transform="translate(0 -0.012)"/><path d="M14,3.02h1.383v16.6H14Z" transform="translate(-3.701 -0.327)"/><path d="M3,14.02H19.6V15.4H3Z" transform="translate(-0.308 -3.72)"/><path d="M12.35,20.008a5.359,5.359,0,0,1-1.162-.463h-.048C8.622,18.162,6.99,14.835,6.99,11.066S8.622,3.93,11.146,2.553h.048a5.36,5.36,0,0,1,1.162-.463l.353,1.321a4.149,4.149,0,0,0-.9.367h-.041C9.763,4.925,8.38,7.823,8.38,11.018s1.383,6.106,3.389,7.241h.041a4.149,4.149,0,0,0,.9.36Z" transform="translate(-1.539 -0.04)"/><path d="M15.1,20l-.36-1.335a4.149,4.149,0,0,0,.9-.36c2.075-1.127,3.458-4.046,3.458-7.268s-1.411-6.162-3.485-7.282A4.149,4.149,0,0,0,14.74,3.4L15.1,2.07a5.629,5.629,0,0,1,1.2.477c2.517,1.383,4.149,4.7,4.149,8.478s-1.625,7.1-4.149,8.478a5.1,5.1,0,0,1-1.2.5Z" transform="translate(-3.93 -0.034)"/><path d="M17.973,21.616a10.373,10.373,0,0,0-1.086-.8,11.231,11.231,0,0,0-1.037-.56,9.53,9.53,0,0,0-7.9,0,8.679,8.679,0,0,0-1.037.56,8.679,8.679,0,0,0-1.093.788L4.93,20.551a11.064,11.064,0,0,1,1.245-.9,10.753,10.753,0,0,1,1.189-.643,10.892,10.892,0,0,1,9.066,0,10.754,10.754,0,0,1,1.189.643,11.459,11.459,0,0,1,1.238.9Z" transform="translate(-0.904 -4.954)"/><path d="M11.894,10.4a10.608,10.608,0,0,1-4.53-1,9.682,9.682,0,0,1-1.189-.643A11.2,11.2,0,0,1,4.93,7.871L5.815,6.82a10.373,10.373,0,0,0,1.093.816,9.792,9.792,0,0,0,1.037.56,9.53,9.53,0,0,0,7.9,0,9.793,9.793,0,0,0,1.037-.56,10.546,10.546,0,0,0,1.086-.788l.885,1.065A12.407,12.407,0,0,1,17.62,8.8a9.682,9.682,0,0,1-1.189.643,10.643,10.643,0,0,1-4.537.954Z" transform="translate(-0.904 -1.499)"/><path d="M16.473,37.365a.694.694,0,0,1-.692-.692V35.29a17.794,17.794,0,0,1-5.436-1.383c-3.091-1.314-5.076-3.458-5.6-6.106a.692.692,0,0,1,1.245-.532A7.467,7.467,0,0,0,11.6,30.276a9.274,9.274,0,0,0,4.191-.284V28.375a.7.7,0,0,1,1.044-.6l6.916,4.149a.689.689,0,0,1,.007,1.183l-6.916,4.149a.74.74,0,0,1-.367.111ZM7.745,30.574a9.135,9.135,0,0,0,3.126,2.005,15.5,15.5,0,0,0,5.608,1.328.692.692,0,0,1,.692.692v.851l4.875-2.925-4.841-2.9v.83a.692.692,0,0,1-.387.622,9.892,9.892,0,0,1-5.36.574,11.155,11.155,0,0,1-3.714-1.072Z" transform="translate(-0.842 -7.715)"/><path d="M37.5,33.532a2.766,2.766,0,1,1,2.766-2.766A2.766,2.766,0,0,1,37.5,33.532Zm0-4.149a1.383,1.383,0,1,0,1.383,1.383A1.383,1.383,0,0,0,37.5,29.383Z" transform="translate(-10.096 -8.032)"/><path d="M38.916,54.289H34.766a.692.692,0,0,1-.692-.692V46.682H32.692A.692.692,0,0,1,32,45.99V38.853A1.853,1.853,0,0,1,33.853,37h6a1.833,1.833,0,0,1,1.826,1.826V45.99a.692.692,0,0,1-.692.692H39.607V53.6A.692.692,0,0,1,38.916,54.289Zm-3.458-1.383h2.766V45.99a.692.692,0,0,1,.692-.692H40.3V38.826a.443.443,0,0,0-.443-.443h-6a.463.463,0,0,0-.47.47V45.3h1.383a.692.692,0,0,1,.692.692Z" transform="translate(-9.253 -10.808)"/><path d="M53.5,33.532a2.766,2.766,0,1,1,2.766-2.766A2.766,2.766,0,0,1,53.5,33.532Zm0-4.149a1.383,1.383,0,1,0,1.383,1.383A1.383,1.383,0,0,0,53.5,29.383Z" transform="translate(-15.031 -8.032)"/><path d="M54.916,54.289H50.766a.692.692,0,0,1-.692-.692V46.682H48.692A.692.692,0,0,1,48,45.99V38.853A1.853,1.853,0,0,1,49.853,37h6a1.833,1.833,0,0,1,1.826,1.826V45.99a.692.692,0,0,1-.692.692H55.607V53.6A.692.692,0,0,1,54.916,54.289Zm-3.458-1.383h2.766V45.99a.692.692,0,0,1,.692-.692H56.3V38.826a.443.443,0,0,0-.443-.443h-6a.463.463,0,0,0-.47.47V45.3h1.383a.692.692,0,0,1,.692.692Z" transform="translate(-14.189 -10.808)"/><path d="M39.407,11.689a.692.692,0,0,1-.339-.09l-2.227-1.217-2.227,1.231A.694.694,0,0,1,33.6,10.88l.429-2.649L32.194,6.364a.685.685,0,0,1,.394-1.155l2.5-.38,1.12-2.4a.692.692,0,0,1,1.259,0l1.12,2.4,2.5.38a.685.685,0,0,1,.394,1.155L39.656,8.232l.429,2.662a.692.692,0,0,1-.284.692.643.643,0,0,1-.394.1ZM36.841,8.923a.692.692,0,0,1,.332.083l1.321.733-.27-1.618a.692.692,0,0,1,.187-.595l1.148-1.162-1.542-.207a.692.692,0,0,1-.484-.422l-.692-1.383L36.15,5.735a.692.692,0,0,1-.484.422l-1.542.235L35.265,7.54a.692.692,0,0,1,.187.595l-.263,1.6L36.509,9A.692.692,0,0,1,36.841,8.923Z" transform="translate(-9.254 -0.02)"/><path d="M42,17.02h1.383V18.4H42Z" transform="translate(-12.338 -4.645)"/><path d="M42,25.02h1.383V26.4H42Z" transform="translate(-12.338 -7.113)"/><path d="M42,21.02h1.383V22.4H42Z" transform="translate(-12.338 -5.879)"/><path d="M38,20.01h1.383v1.376H38Z" transform="translate(-11.104 -5.568)"/><path d="M38,16.02h1.383V17.4H38Z" transform="translate(-11.104 -4.337)"/><path d="M38,24.02h1.383V25.4H38Z" transform="translate(-11.104 -6.804)"/><path d="M34,21.06h1.383v1.376H34Z" transform="translate(-9.87 -5.891)"/><path d="M34,17.02h1.383v1.425H34Z" transform="translate(-9.87 -4.645)"/><path d="M34,25.03h1.383v1.376H34Z" transform="translate(-9.87 -7.116)"/><path d="M49.989,11.669a.692.692,0,0,1-.692-.8l.456-2.656-1.84-1.881A.692.692,0,0,1,48.3,5.169l2.517-.415,1.127-2.393a.689.689,0,0,1,1.252,0l1.127,2.393,2.5.387A.692.692,0,0,1,57.215,6.3L55.383,8.212l.436,2.656a.692.692,0,0,1-1.017.692l-2.234-1.238-2.227,1.238a.692.692,0,0,1-.353.111ZM52.568,8.9a.692.692,0,0,1,.339.09l1.314.726-.256-1.6a.692.692,0,0,1,.173-.6l1.134-1.162-1.535-.235a.692.692,0,0,1-.526-.387L52.52,4.353l-.657,1.383a.692.692,0,0,1-.519.387l-1.535.235L50.991,7.52a.692.692,0,0,1,.187.595l-.263,1.6,1.321-.726a.65.65,0,0,1,.332-.083Z" transform="translate(-14.103)"/><path d="M58,17.02h1.383V18.4H58Z" transform="translate(-17.273 -4.645)"/><path d="M58,25.02h1.383V26.4H58Z" transform="translate(-17.273 -7.113)"/><path d="M58,21.02h1.383V22.4H58Z" transform="translate(-17.273 -5.879)"/><path d="M54,20.01h1.383v1.376H54Z" transform="translate(-16.039 -5.568)"/><path d="M54,16.02h1.383V17.4H54Z" transform="translate(-16.039 -4.337)"/><path d="M54,24.02h1.383V25.4H54Z" transform="translate(-16.039 -6.804)"/><path d="M50,21.06h1.383v1.376H50Z" transform="translate(-14.806 -5.891)"/><path d="M50,17.02h1.383v1.425H50Z" transform="translate(-14.806 -4.645)"/><path d="M50,25.03h1.383v1.376H50Z" transform="translate(-14.806 -7.116)"/></g></g></svg>