<svg xmlns="http://www.w3.org/2000/svg" width="83.924" height="84.091" viewBox="0 0 83.924 84.091"><g transform="translate(-1341.843 -4370.311)"><rect width="83.924" height="83.924" rx="41.962" transform="translate(1341.843 4370.478)" fill="#a2aa5c"/><rect width="83.924" height="83.924" rx="41.962" transform="translate(1341.843 4370.311)" fill="none"/><g transform="translate(1358.225 4386.693)"><g transform="translate(0.725 0.725)"><g transform="translate(9.465 0)"><path d="M229.113,29.914c.916-1.37,2.883-4.113,3.075-6.653A9.849,9.849,0,0,0,229.112,16a10.188,10.188,0,0,0-3.075,7.262C226.181,25.71,227.906,28.01,229.113,29.914Z" transform="translate(-213.742 -16)" fill="#c6ea94" fill-rule="evenodd"/><path d="M122.786,146.583a13.008,13.008,0,0,0,15.389-9.541,13.75,13.75,0,0,0-10.068,1.245,12.75,12.75,0,0,0-5.34,6.2,12.663,12.663,0,0,0-5.3-6.2,13.75,13.75,0,0,0-10.068-1.245,13.008,13.008,0,0,0,15.389,9.54Z" transform="translate(-107.397 -124.104)" fill="#c6ea94" fill-rule="evenodd"/></g><g transform="translate(0 28.079)"><path d="M65.708,291.6C55.332,285.657,26.4,285.667,16,291.575v17.2H65.708Z" transform="translate(-16 -287.143)" fill="#937661" fill-rule="evenodd"/><path d="M49.589,319.825a2.235,2.235,0,1,1-2.236,2.236A2.236,2.236,0,0,1,49.589,319.825Zm19.49-3.875a1.036,1.036,0,1,1-1.036,1.036A1.036,1.036,0,0,1,69.079,315.95Zm-11.525.619a1.036,1.036,0,1,1-1.036,1.036A1.036,1.036,0,0,1,57.554,316.569ZM46.021,328.877a1.036,1.036,0,1,1-1.036,1.036A1.036,1.036,0,0,1,46.021,328.877Zm22.78-.847a1.036,1.036,0,1,1-1.036,1.036A1.036,1.036,0,0,1,68.8,328.03Zm17.334-9.382a1.836,1.836,0,1,1-1.836,1.836A1.836,1.836,0,0,1,86.135,318.648Zm-9.7,10.493a1.036,1.036,0,1,1-1.036,1.036A1.036,1.036,0,0,1,76.438,329.141ZM53.172,327.2a1.6,1.6,0,1,1-1.6,1.6A1.6,1.6,0,0,1,53.172,327.2Zm23.077-7.713a2.442,2.442,0,1,1-2.442,2.442A2.442,2.442,0,0,1,76.249,319.492Zm9.109,7.519a2.236,2.236,0,1,1-2.236,2.236A2.236,2.236,0,0,1,85.358,327.011Zm-22.111-6.953a3.593,3.593,0,1,1-3.593,3.593A3.593,3.593,0,0,1,63.247,320.058Z" transform="translate(-41.983 -312.967)" fill="#7e6451" fill-rule="evenodd"/></g><g transform="translate(0 0)"><path d="M63.572,22.139c-2.135-.064-2.7-1.951-1.564-3.709L63.572,16l1.564,2.429C66.268,20.188,65.707,22.074,63.572,22.139Zm-45.436,0c-2.135-.064-2.7-1.951-1.564-3.709L18.136,16,19.7,18.429C20.832,20.188,20.271,22.074,18.136,22.139Z" transform="translate(-16 -16)" fill="#a4d4ff" fill-rule="evenodd"/><path d="M96.152,207.625c-2.135-.064-2.7-1.951-1.564-3.709l1.564-2.43,1.564,2.43C98.848,205.674,98.287,207.56,96.152,207.625Zm-36.925,0c-2.135-.064-2.7-1.951-1.564-3.709l1.564-2.43,1.564,2.43C61.922,205.674,61.361,207.56,59.226,207.625Z" transform="translate(-52.835 -182.277)" fill="#a4d4ff" fill-rule="evenodd"/></g></g><path d="M52.083,31.754l.955-1.482.955,1.482a2.054,2.054,0,0,1,.322,1.958,1.6,1.6,0,0,1-2.553,0,2.053,2.053,0,0,1,.321-1.958Zm-1.6,2.633A2.792,2.792,0,0,0,53.018,35.8h.044A2.789,2.789,0,0,0,55.6,34.387a3.4,3.4,0,0,0-.385-3.417l-1.564-2.43a.724.724,0,0,0-1.218,0l-1.564,2.43a3.416,3.416,0,0,0-.385,3.417ZM15.16,31.754l.955-1.482.95,1.482a2.041,2.041,0,0,1,.322,1.958,1.419,1.419,0,0,1-1.272.634,1.422,1.422,0,0,1-1.277-.634A2.028,2.028,0,0,1,15.16,31.754Zm-1.608,2.633A2.8,2.8,0,0,0,16.091,35.8h.044a2.8,2.8,0,0,0,2.539-1.409,3.418,3.418,0,0,0-.39-3.417l-1.559-2.43a.729.729,0,0,0-1.223,0l-1.564,2.43a3.416,3.416,0,0,0-.385,3.417ZM10.9,12.546l.955-1.483.955,1.483a2.054,2.054,0,0,1,.322,1.958,1.429,1.429,0,0,1-1.277.633,1.416,1.416,0,0,1-1.272-.633A2.037,2.037,0,0,1,10.9,12.546Zm.936,4.041h.044a2.791,2.791,0,0,0,2.534-1.407,3.407,3.407,0,0,0-.385-3.419L12.466,9.331A.719.719,0,0,0,11.857,9a.732.732,0,0,0-.609.332L9.683,11.76A3.419,3.419,0,0,0,9.3,15.179a2.793,2.793,0,0,0,2.539,1.407Zm44.5-4.041.95-1.483.955,1.483a2.041,2.041,0,0,1,.322,1.958,1.6,1.6,0,0,1-2.553,0,2.044,2.044,0,0,1,.326-1.958Zm.931,4.041h.044a2.8,2.8,0,0,0,2.539-1.407,3.421,3.421,0,0,0-.39-3.419L57.9,9.331A.719.719,0,0,0,57.292,9a.732.732,0,0,0-.609.332L55.119,11.76a3.419,3.419,0,0,0-.385,3.419,2.794,2.794,0,0,0,2.539,1.407ZM35.783,41.822a1.036,1.036,0,1,1,1.033,1.035A1.035,1.035,0,0,1,35.783,41.822Zm-9.454.619a1.036,1.036,0,1,1-1.038-1.036A1.04,1.04,0,0,1,26.329,42.441ZM14.795,54.749a1.036,1.036,0,1,1-1.033-1.035A1.038,1.038,0,0,1,14.795,54.749Zm20.71-.847a1.036,1.036,0,1,1,1.033,1.035A1.036,1.036,0,0,1,35.505,53.9Zm18.371-9.693a1.112,1.112,0,1,1-1.116,1.112A1.116,1.116,0,0,1,53.876,44.209Zm0,3.673a2.562,2.562,0,1,0-2.563-2.561A2.564,2.564,0,0,0,53.876,47.882Zm-8.664,7.131a1.036,1.036,0,1,1-1.033-1.035A1.035,1.035,0,0,1,45.212,55.013Zm-24.3-.5a.872.872,0,1,1,.872-.872A.872.872,0,0,1,20.91,54.509Zm0-3.194a2.322,2.322,0,1,0,2.319,2.322A2.326,2.326,0,0,0,20.91,51.316Zm23.078-6.263a1.717,1.717,0,1,1-1.72,1.717A1.718,1.718,0,0,1,43.989,45.053Zm0,4.885a3.167,3.167,0,1,0-3.167-3.168A3.172,3.172,0,0,0,43.989,49.938ZM53.1,52.571a1.511,1.511,0,1,1-1.511,1.511A1.513,1.513,0,0,1,53.1,52.571Zm0,4.471a2.961,2.961,0,1,0-2.958-2.961A2.966,2.966,0,0,0,53.1,57.042ZM30.988,51.354a2.867,2.867,0,1,1,2.865-2.868A2.871,2.871,0,0,1,30.988,51.354Zm0-7.185a4.317,4.317,0,1,0,4.317,4.317,4.32,4.32,0,0,0-4.317-4.317ZM17.329,48.407A1.511,1.511,0,1,1,18.84,46.9,1.512,1.512,0,0,1,17.329,48.407ZM20.287,46.9a2.96,2.96,0,1,0-2.958,2.961A2.961,2.961,0,0,0,20.287,46.9Zm38.418,11.81V42.683c-4.8-2.568-13.976-4.154-24.121-4.156h-.029c-10.131,0-19.292,1.58-24.106,4.136V58.706ZM25.662,30.132a12.18,12.18,0,0,1-5.575-6.945,13.159,13.159,0,0,1,8.805,1.348,11.661,11.661,0,0,1,4.844,5.525L28.1,26.8a.725.725,0,1,0-.726,1.256l6.213,3.587a12.252,12.252,0,0,1-7.923-1.516Zm6.544-13.189a9.3,9.3,0,0,1,2.354-6.167,8.923,8.923,0,0,1,2.349,6.155,10.553,10.553,0,0,1-1.628,4.259V16.681a.724.724,0,1,0-1.447,0v4.482A9.518,9.518,0,0,1,32.206,16.943Zm8.055,7.592a13.166,13.166,0,0,1,8.805-1.349,12.286,12.286,0,0,1-13.527,8.457l6.2-3.583a.725.725,0,1,0-.726-1.255L35.378,30.06a11.844,11.844,0,0,1,4.883-5.525ZM59.792,41.627c-5.17-2.956-14.785-4.471-24.511-4.544V33.07A13.73,13.73,0,0,0,50.67,22.839a.73.73,0,0,0-.507-.874A14.4,14.4,0,0,0,39.535,23.28a12.638,12.638,0,0,0-4.254,4V23.861c.029-.041.059-.084.088-.129,1.043-1.548,2.792-4.141,2.987-6.692A10.6,10.6,0,0,0,35.061,9.2a.725.725,0,0,0-1.009,0,10.955,10.955,0,0,0-3.294,7.826c.136,2.311,1.491,4.389,2.685,6.221.132.2.263.4.39.6v3.406a12.378,12.378,0,0,0-4.215-3.975,14.407,14.407,0,0,0-10.633-1.314.723.723,0,0,0-.5.874A13.734,13.734,0,0,0,31.8,33.228a13.774,13.774,0,0,0,2.037-.152v4.007c-9.7.071-19.292,1.578-24.472,4.522a.728.728,0,0,0-.365.63v17.2a.726.726,0,0,0,.726.725H59.431a.722.722,0,0,0,.721-.725V42.256a.722.722,0,0,0-.36-.629Z" transform="translate(-8.996 -8.999)" fill-rule="evenodd"/></g></g></svg>