<svg xmlns="http://www.w3.org/2000/svg" width="83" height="83" viewBox="0 0 83 83"><g transform="translate(-285 -910.036)"><circle cx="41.5" cy="41.5" r="41.5" transform="translate(285 910.036)" fill="#cfeaea"/><g transform="translate(295.164 920.199)"><path d="M301.5,117.136l-1.549.353a1.445,1.445,0,0,1-.643-2.817l1.55-.353C302.549,113.976,303.339,116.143,301.5,117.136Z" transform="translate(-262.806 -96.539)" fill="#ffac47"/><path d="M319.224,42.836c1.189,1.4-.007,2.805-1.8,2.256l-1.241-.99a1.444,1.444,0,1,1,1.8-2.258Z" transform="translate(-278.58 -30.763)" fill="#ffac47"/><path d="M350.509,167.182l-.69,1.432a1.445,1.445,0,0,1-2.6-1.254l.689-1.432h0C349.028,164.475,350.761,165.315,350.509,167.182Z" transform="translate(-307.002 -142.563)" fill="#ffac47"/><path d="M423.032,169.983a1.445,1.445,0,0,1-2.6,1.254l-.69-1.432c-.1-1.369,1.2-2.321,2.6-1.255h0Z" transform="translate(-372.693 -145.187)" fill="#ffac47"/><path d="M463.271,114.993a1.445,1.445,0,0,1-.643,2.817l-1.55-.353a1.457,1.457,0,0,1,.641-2.817Z" transform="translate(-409.223 -96.859)" fill="#ffac47"/><path d="M448.361,42.406a1.447,1.447,0,0,1-.229,2.03l-1.242.991c-2.263.6-2.663-1.073-1.8-2.257l1.243-.992A1.446,1.446,0,0,1,448.361,42.406Z" transform="translate(-395.236 -31.065)" fill="#ffac47"/><path d="M389.169,8.947V11.5a7.293,7.293,0,0,0-2.889,0V8.947a1.445,1.445,0,0,1,2.889,0Z" transform="translate(-342.449)" fill="#ffac47"/><path d="M9.616,367.854l1.323.682c1.538,1.092,1.16,3.051-.91,2.781l-1.736-.895a1.445,1.445,0,1,1,1.323-2.568Z" transform="translate(-0.008 -325.643)" fill="#eb5353"/><path d="M16.5,438.251l-2.509,1.118a1.445,1.445,0,0,1-1.177-2.639l1.8-.8C16.712,435.211,17.891,436.591,16.5,438.251Z" transform="translate(-4.026 -387.157)" fill="#eb5353"/><path d="M101.788,461.668a1.445,1.445,0,1,1-2.807.684l-.422-1.732c-.1-1.783,2.041-2.027,2.835-.567Z" transform="translate(-82.322 -408.283)" fill="#eb5353"/><path d="M70.076,316.069l.89,1.713c.322,1.918-1.4,2.367-2.822.838l-.633-1.219a1.445,1.445,0,0,1,2.565-1.332Z" transform="translate(-54.109 -278.267)" fill="#eb5353"/><path d="M168.562,203.254h0c.947,2.1-.293,3.435-1.781,2.414l-1.257-1.611a1.445,1.445,0,1,1,2.279-1.777Z" transform="translate(-142.591 -175.593)" fill="#eb5353"/><path d="M133.013,279.119c.974,1.626-.05,3.495-1.813,2.333l-1.113-1.33a1.445,1.445,0,0,1,2.216-1.854Z" transform="translate(-110.523 -244.327)" fill="#eb5353"/><path d="M175.559,430.142a1.445,1.445,0,0,1-2.393,1.619l-.912-1.348h0c-.913-1.868.788-3.136,2.5-1.452Z" transform="translate(-148.721 -380.321)" fill="#eb5353"/><path d="M235.8,383.579a1.445,1.445,0,0,1-1.932,2.149l-1.3-1.17c-1.144-1.4,0-2.918,1.914-2.165Z" transform="translate(-203.067 -338.752)" fill="#eb5353"/><path d="M267.82,327.679a1.444,1.444,0,0,1-1.22,2.618l-1.622-.756c-1.9-1.07-1.506-3.381,1.269-2.6Z" transform="translate(-231.719 -288.66)" fill="#eb5353"/><path d="M290.9,269.705a1.446,1.446,0,0,1-1.437,1.446l-2.1.011c-2.087-.633-1.432-2.9.594-2.892l1.489-.008A1.445,1.445,0,0,1,290.9,269.705Z" transform="translate(-251.861 -235.749)" fill="#eb5353"/><path d="M226.575,175.929v1.4a1.457,1.457,0,0,1-2.889.11V175.93a1.445,1.445,0,0,1,2.889,0Z" transform="translate(-195.45 -150.967)" fill="#eb5353"/><path d="M281.356,203.431a1.445,1.445,0,0,1-.238,2.029L279.8,206.5h0c-1.89.836-2.617-1.1-1.778-2.276l1.307-1.033A1.444,1.444,0,0,1,281.356,203.431Z" transform="translate(-244.261 -176.64)" fill="#eb5353"/><path d="M73.856,222.314l-6.045-2.457-6.817,10.415-11.318,7.69,2.541,5.991a6.155,6.155,0,0,0,3.771.139h0l.006,0,1.563-.434a23.01,23.01,0,0,0,16.006-16L74,226.071A6.134,6.134,0,0,0,73.856,222.314Z" transform="translate(-38.13 -191.987)" fill="#ff7a71"/><path d="M41.832,220.56c1.453-.411,1.755-.47,2.325-.677a10.69,10.69,0,0,0,6.655-7.16,22.583,22.583,0,0,1,.678-2.28,6.132,6.132,0,0,1,1.781-2.414h0a6.171,6.171,0,0,1,6.041-1.047,6.181,6.181,0,0,0-9.755-2.667h0a6.147,6.147,0,0,0-2.02,3.112l-.439,1.582a10.685,10.685,0,0,1-7.4,7.4c-1.518.428-1.665.448-2.079.6a6.184,6.184,0,0,0,.05,11.614A6.183,6.183,0,0,1,41.832,220.56Z" transform="translate(-23.585 -176.654)" fill="#f5625e"/><path d="M32.649,71.837,29.027,70.09l-9.221,6.02-3.515,6.717,1.944,3.423c7.38.641,3.563-6.852,10.558-8.8,1.122-.313,1.093-.3,1.227-.345A4.127,4.127,0,0,0,32.649,71.837Z" transform="translate(-7.948 -56.585)" fill="#60dafd"/><path d="M19.7,59.387l-1.056.294A15.387,15.387,0,0,0,8.626,68.453a21.458,21.458,0,0,0-.964,2.973,4.107,4.107,0,0,0,0,2.2.021.021,0,0,0,0,.01,4.127,4.127,0,0,0,2.635,2.8,4.109,4.109,0,0,1-.074-2.449l.293-1.056a15.365,15.365,0,0,1,10.69-10.689l1.056-.294a4.11,4.11,0,0,1,2.449.075A4.128,4.128,0,0,0,19.7,59.387Z" transform="translate(-0.009 -46.77)" fill="#00c8fb"/><path d="M382.3,343.18c.734-.734.572-2.113.976-3.087.389-.939,1.493-1.792,1.493-2.872s-1.1-1.933-1.493-2.872c-.4-.974-.242-2.353-.976-3.086s-2.113-.572-3.087-.976c-.939-.389-1.792-1.493-2.872-1.493s-1.933,1.1-2.872,1.493c-.085.035-.173.065-.263.092a10.923,10.923,0,0,0,4.728,14.594,7.053,7.053,0,0,1,1.279-.818C380.187,343.752,381.566,343.914,382.3,343.18Z" transform="translate(-329.597 -290.476)" fill="#00d476"/><path d="M334.09,345.318c-.946.289-2.153.213-2.824.884-.734.734-.572,2.113-.976,3.086-.389.939-1.493,1.792-1.493,2.872s1.1,1.933,1.493,2.872c.4.974.242,2.353.976,3.087s2.113.572,3.087.976c.939.389,1.792,1.493,2.872,1.493a2.842,2.842,0,0,0,1.593-.674A15.515,15.515,0,0,1,334.09,345.318Z" transform="translate(-290.48 -305.414)" fill="#00c16d"/><path d="M364.678,47.149a7.225,7.225,0,0,0-5.354-6.979c-8.448.791-8.947,12.729,0,13.955A7.22,7.22,0,0,0,364.678,47.149Z" transform="translate(-312.179 -29.535)" fill="#ffe962"/><path d="M329.781,44.82a7.225,7.225,0,0,1,5.355-6.979,7.223,7.223,0,1,0,0,13.955A7.221,7.221,0,0,1,329.781,44.82Z" transform="translate(-287.992 -27.206)" fill="#ffc73c"/><circle cx="2.167" cy="2.167" r="2.167" transform="translate(47.226 44.338)" fill="#00c16d"/><circle cx="2.167" cy="2.167" r="2.167" transform="translate(45.276 14.725)" fill="#ffc73c"/><path d="M17.652,60c.79-.274,1.015-.31,2.04-.6a4.114,4.114,0,0,1,2.55.11,4.309,4.309,0,0,1,.831.424,4.085,4.085,0,0,1,1.565,1.93.092.092,0,0,1,.011.027,1.46,1.46,0,0,1,.053.146A4.121,4.121,0,0,1,22.353,67.2a12.793,12.793,0,0,1-1.508.448,7.138,7.138,0,0,0-4.941,4.941l-.293,1.056a4.134,4.134,0,0,1-5.927,2.537,3.9,3.9,0,0,1-.552-.353,4.146,4.146,0,0,1-1.251-1.557,3.888,3.888,0,0,1-.23-.626.021.021,0,0,1,0-.01,4.074,4.074,0,0,1,0-2.2l.293-1.056a15.337,15.337,0,0,1,6.682-8.929" transform="translate(0 -46.78)" fill="none" stroke="#000" stroke-linecap="round" stroke-linejoin="round" stroke-miterlimit="10" stroke-width="1"/><path d="M49.55,204.314a6.185,6.185,0,0,1,9.9,6.424l-.439,1.582a23.009,23.009,0,0,1-16.006,16l-1.582.439a6.184,6.184,0,1,1-3.31-11.918c1.453-.411,1.755-.47,2.325-.677a10.689,10.689,0,0,0,6.655-7.16,22.557,22.557,0,0,1,.678-2.28,6.132,6.132,0,0,1,1.781-2.414" transform="translate(-23.58 -176.654)" fill="none" stroke="#000" stroke-linecap="round" stroke-linejoin="round" stroke-miterlimit="10" stroke-width="1"/><path d="M166.782,205.67l-1.258-1.612a1.445,1.445,0,1,1,2.279-1.777l.759.973h0" transform="translate(-142.591 -175.593)" fill="none" stroke="#000" stroke-linecap="round" stroke-linejoin="round" stroke-miterlimit="10" stroke-width="1"/><path d="M131.2,281.452l-1.113-1.33a1.445,1.445,0,0,1,2.216-1.854l.711.85" transform="translate(-110.523 -244.327)" fill="none" stroke="#000" stroke-linecap="round" stroke-linejoin="round" stroke-miterlimit="10" stroke-width="1"/><path d="M68.145,318.619l-.633-1.219a1.445,1.445,0,0,1,2.565-1.332l.89,1.713" transform="translate(-54.109 -278.266)" fill="none" stroke="#000" stroke-linecap="round" stroke-linejoin="round" stroke-miterlimit="10" stroke-width="1"/><path d="M10.029,371.316l-1.736-.895a1.445,1.445,0,1,1,1.323-2.568l1.323.682" transform="translate(-0.008 -325.642)" fill="none" stroke="#000" stroke-linecap="round" stroke-linejoin="round" stroke-miterlimit="10" stroke-width="1"/><path d="M14.611,437.754l-1.8.8a1.445,1.445,0,0,0,1.177,2.639l2.509-1.118" transform="translate(-4.027 -388.984)" fill="none" stroke="#000" stroke-linecap="round" stroke-linejoin="round" stroke-miterlimit="10" stroke-width="1"/><path d="M101.427,469.02l.394,1.616a1.445,1.445,0,1,1-2.807.684l-.422-1.732" transform="translate(-82.355 -417.251)" fill="none" stroke="#000" stroke-linecap="round" stroke-linejoin="round" stroke-miterlimit="10" stroke-width="1"/><path d="M177.165,436.378l.8,1.183a1.445,1.445,0,0,1-2.393,1.619l-.912-1.348" transform="translate(-151.126 -387.74)" fill="none" stroke="#000" stroke-linecap="round" stroke-linejoin="round" stroke-miterlimit="10" stroke-width="1"/><path d="M238.783,384.279l1.318,1.186a1.445,1.445,0,0,1-1.932,2.149l-1.3-1.17" transform="translate(-207.368 -340.638)" fill="none" stroke="#000" stroke-linecap="round" stroke-linejoin="round" stroke-miterlimit="10" stroke-width="1"/><path d="M277.316,328.444h0l1.573.733a1.444,1.444,0,1,1-1.22,2.618l-1.622-.756h0" transform="translate(-242.789 -290.159)" fill="none" stroke="#000" stroke-linecap="round" stroke-linejoin="round" stroke-miterlimit="10" stroke-width="1"/><path d="M300.024,268.269l1.489-.008a1.445,1.445,0,1,1,.015,2.889l-2.1.011" transform="translate(-263.929 -235.749)" fill="none" stroke="#000" stroke-linecap="round" stroke-linejoin="round" stroke-miterlimit="10" stroke-width="1"/><line x2="0.808" y2="0.81" transform="translate(19.453 43.513)" fill="none" stroke="#000" stroke-linecap="round" stroke-linejoin="round" stroke-miterlimit="10" stroke-width="1"/><line x2="0.808" y2="0.809" transform="translate(28.083 34.9)" fill="none" stroke="#000" stroke-linecap="round" stroke-linejoin="round" stroke-miterlimit="10" stroke-width="1"/><line y1="2.271" x2="2.275" transform="translate(23.797 39.24)" fill="none" stroke="#000" stroke-linecap="round" stroke-linejoin="round" stroke-miterlimit="10" stroke-width="1"/><path d="M223.686,177.44v-1.511a1.445,1.445,0,0,1,2.889,0v1.4" transform="translate(-195.45 -150.966)" fill="none" stroke="#000" stroke-linecap="round" stroke-linejoin="round" stroke-miterlimit="10" stroke-width="1"/><path d="M281.288,204.226l1.306-1.032a1.444,1.444,0,1,1,1.791,2.266l-1.319,1.043" transform="translate(-247.527 -176.64)" fill="none" stroke="#000" stroke-linecap="round" stroke-linejoin="round" stroke-miterlimit="10" stroke-width="1"/><path d="M341.876,330.677a2.466,2.466,0,0,1,1.305.584c.734.734.572,2.113.975,3.087.388.939,1.492,1.792,1.492,2.872s-1.1,1.933-1.492,2.872c-.4.974-.242,2.353-.975,3.087s-2.113.572-3.087.975c-.939.388-1.793,1.492-2.872,1.492s-1.933-1.1-2.872-1.492c-.974-.4-2.353-.242-3.087-.975s-.573-2.113-.975-3.087c-.389-.939-1.493-1.793-1.493-2.872s1.1-1.933,1.493-2.872c.4-.974.242-2.353.975-3.087s2.113-.573,3.087-.975c.939-.389,1.792-1.493,2.872-1.493a2.824,2.824,0,0,1,1.58.665" transform="translate(-290.478 -290.473)" fill="none" stroke="#000" stroke-linecap="round" stroke-linejoin="round" stroke-miterlimit="10" stroke-width="1"/><circle cx="2.167" cy="2.167" r="2.167" transform="translate(47.226 44.338)" fill="none" stroke="#000" stroke-linecap="round" stroke-linejoin="round" stroke-miterlimit="10" stroke-width="1"/><line x2="0.722" transform="translate(42.892 45.06)" fill="none" stroke="#000" stroke-linecap="round" stroke-linejoin="round" stroke-miterlimit="10" stroke-width="1"/><line y1="0.51" x2="0.51" transform="translate(43.721 49.139)" fill="none" stroke="#000" stroke-linecap="round" stroke-linejoin="round" stroke-miterlimit="10" stroke-width="1"/><circle cx="2.167" cy="2.167" r="2.167" transform="translate(45.276 14.725)" fill="none" stroke="#000" stroke-linecap="round" stroke-linejoin="round" stroke-miterlimit="10" stroke-width="1"/><line x2="0.722" transform="translate(41.665 15.447)" fill="none" stroke="#000" stroke-linecap="round" stroke-linejoin="round" stroke-miterlimit="10" stroke-width="1"/><line y1="0.51" x2="0.511" transform="translate(41.771 19.526)" fill="none" stroke="#000" stroke-linecap="round" stroke-linejoin="round" stroke-miterlimit="10" stroke-width="1"/><path d="M340.489,45a7.223,7.223,0,1,1-5.776-7.245A7.175,7.175,0,0,1,340.489,45Z" transform="translate(-287.992 -27.216)" fill="none" stroke="#000" stroke-linecap="round" stroke-linejoin="round" stroke-miterlimit="10" stroke-width="1"/><path d="M386.28,10.536V8.947a1.445,1.445,0,1,1,2.889,0v1.589" transform="translate(-342.449)" fill="none" stroke="#000" stroke-linecap="round" stroke-linejoin="round" stroke-miterlimit="10" stroke-width="1"/><path d="M317.423,45.093,316.18,44.1a1.444,1.444,0,1,1,1.8-2.258l1.242.991" transform="translate(-278.581 -30.763)" fill="none" stroke="#000" stroke-linecap="round" stroke-linejoin="round" stroke-miterlimit="10" stroke-width="1"/><path d="M301.5,117.48l-1.549.353a1.445,1.445,0,0,1-.643-2.817l1.55-.353" transform="translate(-262.806 -96.883)" fill="none" stroke="#000" stroke-linecap="round" stroke-linejoin="round" stroke-miterlimit="10" stroke-width="1"/><path d="M350.509,174.131l-.69,1.432a1.445,1.445,0,0,1-2.6-1.254l.689-1.432" transform="translate(-307.002 -149.513)" fill="none" stroke="#000" stroke-linecap="round" stroke-linejoin="round" stroke-miterlimit="10" stroke-width="1"/><path d="M422.4,172.878l.69,1.432a1.445,1.445,0,0,1-2.6,1.254l-.69-1.432" transform="translate(-372.749 -149.514)" fill="none" stroke="#000" stroke-linecap="round" stroke-linejoin="round" stroke-miterlimit="10" stroke-width="1"/><path d="M470.58,114.664l1.55.353a1.445,1.445,0,0,1-.643,2.817l-1.549-.353" transform="translate(-418.082 -96.883)" fill="none" stroke="#000" stroke-linecap="round" stroke-linejoin="round" stroke-miterlimit="10" stroke-width="1"/><path d="M449.655,42.834l1.242-.991a1.444,1.444,0,1,1,1.8,2.258l-1.242.991" transform="translate(-399.745 -30.762)" fill="none" stroke="#000" stroke-linecap="round" stroke-linejoin="round" stroke-miterlimit="10" stroke-width="1"/></g></g></svg>