<svg xmlns="http://www.w3.org/2000/svg" width="83" height="83" viewBox="0 0 83 83"><g transform="translate(-702.668 -1230)"><circle cx="41.5" cy="41.5" r="41.5" transform="translate(702.668 1230)" fill="#cfeaea"/><g transform="translate(652.408 1241.5)"><g transform="translate(75.26 7.5)"><path d="M160.872,34.267h-2.787V31.48a1.393,1.393,0,0,1,1.393-1.393h0a1.393,1.393,0,0,1,1.393,1.393v2.787Z" transform="translate(-150.422 -27.997)" fill="#91d4f2"/><path d="M335.443,70.522h-4.18V67.735h4.18a1.393,1.393,0,0,1,1.393,1.393h0A1.393,1.393,0,0,1,335.443,70.522Z" transform="translate(-307.576 -62.162)" fill="#5972a5"/><path d="M163.366,28.4l-2.618,8.207,2.618,9.907h0v1.416a5.552,5.552,0,0,1-5.551,5.551H141.051a5.551,5.551,0,0,1-5.551-5.551V46.513L137.59,34.9l-2.09-6.5V26.64a5.55,5.55,0,0,1,3.558-5.181l3.719-1.43a2.777,2.777,0,0,0,1.779-2.591V10.276A2.776,2.776,0,0,1,147.332,7.5h4.2a2.776,2.776,0,0,1,2.776,2.776v7.161a2.776,2.776,0,0,0,1.779,2.591l3.719,1.43a5.551,5.551,0,0,1,3.559,5.181V28.4Z" transform="translate(-129.926 -7.5)" fill="#c2eafb"/><path d="M148.87,7.5c-.489.313-1.123,1.048-1.123,2.766v6.4a8.877,8.877,0,0,1-2.216,5.869,8.878,8.878,0,0,0-2.217,5.869V48.788a7.57,7.57,0,0,0,1.874,4.691h-4.136a5.551,5.551,0,0,1-5.551-5.551V46.513L137.59,34.9l-2.09-6.5V26.64a5.55,5.55,0,0,1,3.558-5.181l3.719-1.43a2.777,2.777,0,0,0,1.779-2.591V10.276A2.776,2.776,0,0,1,147.332,7.5Z" transform="translate(-129.926 -7.5)" fill="#91d4f2"/><path d="M90.9,60.21v4.179H84.042a2.775,2.775,0,0,0-2.32,1.251l-3.42,5.2a1.657,1.657,0,0,1-2.82-1.739l3.533-6.12a5.551,5.551,0,0,1,4.809-2.776H90.9Z" transform="translate(-75.26 -55.333)" fill="#73da8c"/><path d="M90.9,60.21v1.506l-.155.462H84.38a4.767,4.767,0,0,0-4.052,2.256l-3.681,5.941a1.2,1.2,0,0,0,0,1.2,1.663,1.663,0,0,1-1.392-1.638,1.644,1.644,0,0,1,.223-.827l3.533-6.12a5.551,5.551,0,0,1,4.808-2.776H90.9Z" transform="translate(-75.26 -55.333)" fill="#29ce69"/><path d="M224.723,54.072v2.787a1.393,1.393,0,0,1-1.393,1.394H212.183a1.393,1.393,0,0,1-1.393-1.394V54.072a1.393,1.393,0,0,1,1.393-1.392H223.33A1.393,1.393,0,0,1,224.723,54.072Z" transform="translate(-198.25 -48.5)" fill="#7888af"/><path d="M216.051,58.253h-3.868a1.393,1.393,0,0,1-1.393-1.394V54.072a1.393,1.393,0,0,1,1.393-1.392h3.887a1.165,1.165,0,0,0-.835,1.2v3.109A1.358,1.358,0,0,0,216.051,58.253Z" transform="translate(-198.25 -48.5)" fill="#5972a5"/><path d="M163.367,247.313l-14.454,1.851-5.6-.773-7.814-1.078V233.38h27.866Z" transform="translate(-129.926 -212.481)" fill="#f3f5fc"/><path d="M143.314,233.38v15.011l-7.814-1.078V233.38Z" transform="translate(-129.926 -212.481)" fill="#e8ecf9"/><path d="M305.414,269.856a2.787,2.787,0,0,1-3.829-.83,2.835,2.835,0,0,1,1.064-4.006,6.786,6.786,0,0,1,4.8-.312.692.692,0,0,1,.5.795A6.6,6.6,0,0,1,305.414,269.856Z" transform="translate(-280.244 -240.641)" fill="#73da8c"/><path d="M203.742,294.924a2.787,2.787,0,0,1-3.83.83,4.21,4.21,0,0,1-.455-.335,7,7,0,0,1-2.078-4.019.693.693,0,0,1,.5-.795,9.257,9.257,0,0,1,1.575-.27,5.733,5.733,0,0,1,3.221.583A2.835,2.835,0,0,1,203.742,294.924Z" transform="translate(-186.07 -264.143)" fill="#73da8c"/><path d="M199.457,290.58v5.084a7,7,0,0,1-2.078-4.019.693.693,0,0,1,.5-.795A9.265,9.265,0,0,1,199.457,290.58Z" transform="translate(-186.07 -264.388)" fill="#29ce69"/><path d="M163.367,383.97v4.18H135.5v-4.18Z" transform="translate(-129.926 -349.137)" fill="#df8a57"/><rect width="7.814" height="4.18" transform="translate(5.574 34.833)" fill="#c76d33"/></g><g transform="translate(75.26 7.5)"><path d="M158.09,32.857V31.483a1.393,1.393,0,1,1,2.786,0v1.3" transform="translate(-150.426 -28)" fill="none" stroke="#000" stroke-linecap="round" stroke-linejoin="round" stroke-miterlimit="10" stroke-width="1"/><path d="M362.67,70.517h1.274a1.393,1.393,0,1,0,0-2.787H362.67" transform="translate(-336.078 -62.157)" fill="none" stroke="#000" stroke-linecap="round" stroke-linejoin="round" stroke-miterlimit="10" stroke-width="1"/><path d="M154.31,113.43v.136a2.776,2.776,0,0,0,1.779,2.591l3.719,1.43a5.551,5.551,0,0,1,3.559,5.181v21.288a5.552,5.552,0,0,1-5.551,5.551H141.051a5.551,5.551,0,0,1-5.551-5.551V122.768a5.55,5.55,0,0,1,3.558-5.181l3.719-1.43a2.777,2.777,0,0,0,1.779-2.591v-.136" transform="translate(-129.926 -103.629)" fill="none" stroke="#000" stroke-linecap="round" stroke-linejoin="round" stroke-miterlimit="10" stroke-width="1"/><path d="M233.38,11.632V10.276A2.776,2.776,0,0,1,236.156,7.5h4.2a2.776,2.776,0,0,1,2.776,2.776v1.356" transform="translate(-218.75 -7.5)" fill="none" stroke="#000" stroke-linecap="round" stroke-linejoin="round" stroke-miterlimit="10" stroke-width="1"/><path d="M106.69,64.454l.848-1.468a5.551,5.551,0,0,1,4.809-2.776h4.016" transform="translate(-103.782 -55.333)" fill="none" stroke="#000" stroke-linecap="round" stroke-linejoin="round" stroke-miterlimit="10" stroke-width="1"/><path d="M76.548,108.252,75.483,110.1a1.657,1.657,0,0,0,2.82,1.739l3.42-5.2a2.775,2.775,0,0,1,2.32-1.251h3.8" transform="translate(-75.26 -96.324)" fill="none" stroke="#000" stroke-linecap="round" stroke-linejoin="round" stroke-miterlimit="10" stroke-width="1"/><path d="M223.33,58.253a1.393,1.393,0,0,0,1.393-1.393V54.072a1.393,1.393,0,0,0-1.393-1.392H212.183a1.393,1.393,0,0,0-1.393,1.392v2.787a1.393,1.393,0,0,0,1.393,1.393Z" transform="translate(-198.25 -48.5)" fill="none" stroke="#000" stroke-linecap="round" stroke-linejoin="round" stroke-miterlimit="10" stroke-width="1"/><line x1="3.688" transform="translate(29.566 20.899)" fill="none" stroke="#000" stroke-linecap="round" stroke-linejoin="round" stroke-miterlimit="10" stroke-width="1"/><line x1="20.569" transform="translate(5.759 20.899)" fill="none" stroke="#000" stroke-linecap="round" stroke-linejoin="round" stroke-miterlimit="10" stroke-width="1"/><line x1="2.427" transform="translate(5.801 39.013)" fill="none" stroke="#000" stroke-linecap="round" stroke-linejoin="round" stroke-miterlimit="10" stroke-width="1"/><line x1="21.788" transform="translate(11.467 39.013)" fill="none" stroke="#000" stroke-linecap="round" stroke-linejoin="round" stroke-miterlimit="10" stroke-width="1"/><path d="M305.414,269.856a2.787,2.787,0,0,1-3.829-.83,2.835,2.835,0,0,1,1.064-4.006,6.786,6.786,0,0,1,4.8-.312.692.692,0,0,1,.5.795A6.6,6.6,0,0,1,305.414,269.856Z" transform="translate(-280.244 -240.641)" fill="none" stroke="#000" stroke-linecap="round" stroke-linejoin="round" stroke-miterlimit="10" stroke-width="1"/><path d="M199.914,295.753a2.787,2.787,0,0,0,3.829-.83,2.835,2.835,0,0,0-1.064-4.006,6.786,6.786,0,0,0-4.8-.312.692.692,0,0,0-.5.794A6.6,6.6,0,0,0,199.914,295.753Z" transform="translate(-186.071 -264.142)" fill="none" stroke="#000" stroke-linecap="round" stroke-linejoin="round" stroke-miterlimit="10" stroke-width="1"/><path d="M286.62,301.887c.513-7.5,4.874-8.267,4.874-8.267" transform="translate(-267.064 -267.147)" fill="none" stroke="#000" stroke-linecap="round" stroke-linejoin="round" stroke-miterlimit="10" stroke-width="1"/><path d="M234.62,320.21s3.794,1.925,4.61,5.807" transform="translate(-219.875 -291.277)" fill="none" stroke="#000" stroke-linecap="round" stroke-linejoin="round" stroke-miterlimit="10" stroke-width="1"/><line x2="27.495" transform="translate(5.759 34.833)" fill="none" stroke="#000" stroke-linecap="round" stroke-linejoin="round" stroke-miterlimit="10" stroke-width="1"/></g></g></g></svg>