<svg xmlns="http://www.w3.org/2000/svg" width="85" height="73.802" viewBox="0 0 85 73.802"><g transform="translate(0 -33.727)"><path d="M90.011,431.911H7.5v-2.589a5.146,5.146,0,0,1,5.146-5.146H84.865a5.146,5.146,0,0,1,5.146,5.146Z" transform="translate(-6.257 -325.629)" fill="#8f5a46"/><path d="M20.949,424.176h-8.3A5.146,5.146,0,0,0,7.5,429.323v2.589h8.3v-2.589A5.146,5.146,0,0,1,20.949,424.176Z" transform="translate(-6.257 -325.629)" fill="#7d4f3d"/><path d="M17.816,341.3A10.313,10.313,0,0,1,7.5,330.989h0A10.313,10.313,0,0,1,17.816,341.3Z" transform="translate(-6.257 -247.912)" fill="#a2e62e"/><path d="M10.838,331.54a10.3,10.3,0,0,0-3.335-.551h0A10.313,10.313,0,0,0,17.816,341.3h0q0-.277-.014-.551A10.32,10.32,0,0,1,10.838,331.54Z" transform="translate(-6.257 -247.912)" fill="#97d729"/><path d="M90.012,198.943H7.5v-2.589a5.146,5.146,0,0,1,5.146-5.146H84.866a5.146,5.146,0,0,1,5.146,5.146Z" transform="translate(-6.257 -131.337)" fill="#8f5a46"/><path d="M20.949,191.208h-8.3A5.146,5.146,0,0,0,7.5,196.354v2.589h8.3v-2.589A5.146,5.146,0,0,1,20.949,191.208Z" transform="translate(-6.257 -131.337)" fill="#7d4f3d"/><path d="M69.626,108.335A10.314,10.314,0,0,1,79.94,98.021,10.314,10.314,0,0,1,69.626,108.335Z" transform="translate(-58.067 -53.62)" fill="#a2e62e"/><path d="M79.925,98.572q.014-.274.014-.551a10.314,10.314,0,0,0-10.314,10.314,10.3,10.3,0,0,0,3.335-.551A10.32,10.32,0,0,1,79.925,98.572Z" transform="translate(-58.067 -53.621)" fill="#97d729"/><path d="M17.816,108.336A10.313,10.313,0,0,1,7.5,98.022h0a10.313,10.313,0,0,1,10.313,10.313Z" transform="translate(-6.257 -53.621)" fill="#a2e62e"/><path d="M10.838,98.572A10.3,10.3,0,0,0,7.5,98.021h0a10.313,10.313,0,0,0,10.313,10.313h0q0-.277-.014-.551A10.32,10.32,0,0,1,10.838,98.572Z" transform="translate(-6.257 -53.621)" fill="#97d729"/><path d="M256,341.3a10.314,10.314,0,0,1,10.314-10.314A10.314,10.314,0,0,1,256,341.3Z" transform="translate(-213.499 -247.911)" fill="#a2e62e"/><path d="M266.3,331.54q.014-.274.014-.551A10.314,10.314,0,0,0,256,341.3a10.3,10.3,0,0,0,3.335-.551A10.32,10.32,0,0,1,266.3,331.54Z" transform="translate(-213.499 -247.912)" fill="#97d729"/><path d="M204.189,341.3a10.313,10.313,0,0,1-10.313-10.313h0A10.313,10.313,0,0,1,204.189,341.3Z" transform="translate(-161.69 -247.912)" fill="#a2e62e"/><path d="M197.211,331.54a10.3,10.3,0,0,0-3.335-.551h0A10.313,10.313,0,0,0,204.189,341.3h0q0-.277-.014-.551A10.32,10.32,0,0,1,197.211,331.54Z" transform="translate(-161.69 -247.912)" fill="#97d729"/><path d="M240.824,288.78a10.313,10.313,0,0,1,0-14.585h0A10.314,10.314,0,0,1,240.824,288.78Z" transform="translate(-198.324 -200.546)" fill="#a2e62e"/><path d="M242.068,275.7a10.367,10.367,0,0,0-1.245-1.5h0a10.313,10.313,0,0,0,0,14.585,10.367,10.367,0,0,0,1.245-1.5,10.325,10.325,0,0,1,0-11.578Z" transform="translate(-198.323 -200.547)" fill="#97d729"/><path d="M69.626,341.3A10.314,10.314,0,0,1,79.94,330.988,10.314,10.314,0,0,1,69.626,341.3Z" transform="translate(-58.067 -247.911)" fill="#a2e62e"/><path d="M79.925,331.54q.014-.274.014-.551A10.314,10.314,0,0,0,69.626,341.3a10.3,10.3,0,0,0,3.335-.551A10.32,10.32,0,0,1,79.925,331.54Z" transform="translate(-58.067 -247.912)" fill="#97d729"/><path d="M54.451,288.78a10.313,10.313,0,0,1,0-14.585h0A10.314,10.314,0,0,1,54.451,288.78Z" transform="translate(-42.892 -200.546)" fill="#a2e62e"/><path d="M55.7,275.7a10.366,10.366,0,0,0-1.245-1.5,10.313,10.313,0,0,0,0,14.585h0a10.366,10.366,0,0,0,1.245-1.5,10.324,10.324,0,0,1,0-11.578Z" transform="translate(-42.892 -200.547)" fill="#97d729"/><path d="M442.373,341.3a10.314,10.314,0,0,1,10.314-10.314A10.314,10.314,0,0,1,442.373,341.3Z" transform="translate(-368.932 -247.911)" fill="#a2e62e"/><path d="M452.673,331.54q.014-.274.015-.551A10.314,10.314,0,0,0,442.374,341.3a10.3,10.3,0,0,0,3.335-.551A10.32,10.32,0,0,1,452.673,331.54Z" transform="translate(-368.933 -247.912)" fill="#97d729"/><path d="M390.563,341.3a10.313,10.313,0,0,1-10.313-10.313h0A10.313,10.313,0,0,1,390.563,341.3Z" transform="translate(-317.123 -247.912)" fill="#a2e62e"/><path d="M383.585,331.54a10.3,10.3,0,0,0-3.335-.551h0A10.313,10.313,0,0,0,390.563,341.3h0q0-.277-.014-.551A10.32,10.32,0,0,1,383.585,331.54Z" transform="translate(-317.123 -247.912)" fill="#97d729"/><path d="M427.2,288.78a10.313,10.313,0,0,1,0-14.585h0A10.314,10.314,0,0,1,427.2,288.78Z" transform="translate(-353.757 -200.546)" fill="#a2e62e"/><path d="M428.442,275.7a10.365,10.365,0,0,0-1.245-1.5h0a10.313,10.313,0,0,0,0,14.585,10.367,10.367,0,0,0,1.245-1.5,10.325,10.325,0,0,1,0-11.578Z" transform="translate(-353.756 -200.547)" fill="#97d729"/><path d="M256,108.335a10.314,10.314,0,0,1,10.314-10.314A10.314,10.314,0,0,1,256,108.335Z" transform="translate(-213.499 -53.62)" fill="#a2e62e"/><path d="M266.3,98.572q.014-.274.014-.551A10.314,10.314,0,0,0,256,108.335a10.3,10.3,0,0,0,3.335-.551A10.32,10.32,0,0,1,266.3,98.572Z" transform="translate(-213.499 -53.621)" fill="#97d729"/><path d="M204.189,108.336a10.313,10.313,0,0,1-10.313-10.313h0a10.313,10.313,0,0,1,10.313,10.313Z" transform="translate(-161.69 -53.621)" fill="#a2e62e"/><path d="M197.211,98.572a10.3,10.3,0,0,0-3.335-.551h0a10.313,10.313,0,0,0,10.313,10.313h0q0-.277-.014-.551A10.32,10.32,0,0,1,197.211,98.572Z" transform="translate(-161.69 -53.621)" fill="#97d729"/><path d="M240.824,55.812a10.313,10.313,0,0,1,0-14.585h0A10.314,10.314,0,0,1,240.824,55.812Z" transform="translate(-198.324 -6.254)" fill="#a2e62e"/><path d="M242.068,42.73a10.376,10.376,0,0,0-1.245-1.5h0a10.313,10.313,0,0,0,0,14.585,10.367,10.367,0,0,0,1.245-1.5A10.325,10.325,0,0,1,242.068,42.73Z" transform="translate(-198.323 -6.254)" fill="#97d729"/><path d="M54.451,55.812a10.313,10.313,0,0,1,0-14.585h0A10.314,10.314,0,0,1,54.451,55.812Z" transform="translate(-42.892 -6.254)" fill="#a2e62e"/><path d="M55.7,42.73a10.375,10.375,0,0,0-1.245-1.5,10.313,10.313,0,0,0,0,14.585h0a10.366,10.366,0,0,0,1.245-1.5A10.324,10.324,0,0,1,55.7,42.73Z" transform="translate(-42.892 -6.254)" fill="#97d729"/><path d="M442.373,108.335a10.314,10.314,0,0,1,10.314-10.314A10.314,10.314,0,0,1,442.373,108.335Z" transform="translate(-368.932 -53.62)" fill="#a2e62e"/><path d="M452.672,98.572q.014-.274.014-.551a10.314,10.314,0,0,0-10.314,10.314,10.3,10.3,0,0,0,3.335-.551A10.32,10.32,0,0,1,452.672,98.572Z" transform="translate(-368.932 -53.621)" fill="#97d729"/><path d="M390.563,108.336A10.313,10.313,0,0,1,380.25,98.022h0a10.313,10.313,0,0,1,10.313,10.313Z" transform="translate(-317.123 -53.621)" fill="#a2e62e"/><path d="M383.585,98.572a10.3,10.3,0,0,0-3.335-.551h0a10.313,10.313,0,0,0,10.313,10.313h0q0-.277-.014-.551A10.32,10.32,0,0,1,383.585,98.572Z" transform="translate(-317.123 -53.621)" fill="#97d729"/><path d="M427.2,55.812a10.313,10.313,0,0,1,0-14.585h0A10.314,10.314,0,0,1,427.2,55.812Z" transform="translate(-353.757 -6.254)" fill="#a2e62e"/><path d="M428.442,42.73a10.374,10.374,0,0,0-1.245-1.5h0a10.313,10.313,0,0,0,0,14.585,10.367,10.367,0,0,0,1.245-1.5A10.325,10.325,0,0,1,428.442,42.73Z" transform="translate(-353.756 -6.254)" fill="#97d729"/><g transform="translate(0 33.727)"><path d="M57.244,299.33H2.49c-.242-2.454.945-5.246,3.9-5.246H23.31a1.245,1.245,0,1,0,0-2.49H12.8v-2.733a11.576,11.576,0,0,0,10.314-11.492,1.245,1.245,0,0,0-1.245-1.245,11.492,11.492,0,0,0-6.393,1.933,11.652,11.652,0,0,0-3.04-11,1.245,1.245,0,0,0-1.761,0,11.564,11.564,0,0,0-3.033,10.993,11.477,11.477,0,0,0-6.4-1.929A1.245,1.245,0,0,0,0,277.369a11.575,11.575,0,0,0,10.314,11.492v2.733H6.392A6.4,6.4,0,0,0,0,297.986v2.59a1.245,1.245,0,0,0,1.245,1.245h56a1.245,1.245,0,0,0,0-2.49ZM12.9,286.338a9.091,9.091,0,0,1,7.624-7.624A9.09,9.09,0,0,1,12.9,286.338Zm-1.345-16.5a9.091,9.091,0,0,1,0,10.783A9.091,9.091,0,0,1,11.559,269.842ZM2.59,278.714a9.091,9.091,0,0,1,7.624,7.624A9.09,9.09,0,0,1,2.59,278.714Z" transform="translate(0 -228.019)"/><path d="M216.708,291.593h-3.922V288.86A11.575,11.575,0,0,0,223.1,277.368a1.245,1.245,0,0,0-1.245-1.245,11.493,11.493,0,0,0-6.393,1.933,11.651,11.651,0,0,0-3.04-11,1.245,1.245,0,0,0-1.761,0,11.564,11.564,0,0,0-3.033,10.993,11.477,11.477,0,0,0-6.4-1.929,1.245,1.245,0,0,0-1.245,1.245A11.575,11.575,0,0,0,210.3,288.86v2.733H181.844V288.86a11.575,11.575,0,0,0,10.314-11.492,1.245,1.245,0,0,0-1.245-1.245,11.478,11.478,0,0,0-6.4,1.929,11.564,11.564,0,0,0-3.033-10.993,1.245,1.245,0,0,0-1.761,0,11.651,11.651,0,0,0-3.042,10.987,11.479,11.479,0,0,0-6.391-1.923,1.245,1.245,0,0,0-1.245,1.245,11.575,11.575,0,0,0,10.314,11.492v2.733H166.835a1.245,1.245,0,1,0,0,2.49h49.873c2.956,0,4.143,2.792,3.9,5.246H200.77a1.245,1.245,0,1,0,0,2.49h21.084a1.245,1.245,0,0,0,1.245-1.245v-2.59a6.4,6.4,0,0,0-6.392-6.391Zm-3.823-5.256a9.091,9.091,0,0,1,7.625-7.624A9.091,9.091,0,0,1,212.885,286.337Zm-1.344-16.5a9.142,9.142,0,0,1,0,10.784A9.157,9.157,0,0,1,211.541,269.84Zm-8.969,8.873a9.091,9.091,0,0,1,7.624,7.624A9.09,9.09,0,0,1,202.571,278.712Zm-20.628,7.624a9.091,9.091,0,0,1,7.625-7.624A9.091,9.091,0,0,1,181.944,286.337Zm-1.345-16.5a9.156,9.156,0,0,1,0,10.784A9.142,9.142,0,0,1,180.6,269.84Zm-8.968,8.873a9.091,9.091,0,0,1,7.624,7.624A9.09,9.09,0,0,1,171.63,278.712Z" transform="translate(-138.099 -228.018)"/><path d="M78.608,58.625H74.686V55.893A11.575,11.575,0,0,0,85,44.4a1.245,1.245,0,0,0-1.245-1.245,11.492,11.492,0,0,0-6.393,1.933,11.651,11.651,0,0,0-3.04-11,1.245,1.245,0,0,0-1.761,0,11.564,11.564,0,0,0-3.033,10.993,11.477,11.477,0,0,0-6.4-1.929A1.245,1.245,0,0,0,61.882,44.4,11.575,11.575,0,0,0,72.2,55.893v2.732H61.306a1.245,1.245,0,1,0,0,2.49h17.3c2.956,0,4.143,2.792,3.9,5.246H2.49c-.242-2.454.945-5.246,3.9-5.246H55.879a1.245,1.245,0,1,0,0-2.49H43.745V55.893A11.575,11.575,0,0,0,54.058,44.4a1.245,1.245,0,0,0-1.245-1.245,11.478,11.478,0,0,0-6.4,1.929A11.563,11.563,0,0,0,43.38,34.091a1.245,1.245,0,0,0-1.761,0,11.652,11.652,0,0,0-3.043,10.987,11.477,11.477,0,0,0-6.391-1.923A1.245,1.245,0,0,0,30.941,44.4,11.575,11.575,0,0,0,41.255,55.893v2.732H12.8V55.893A11.576,11.576,0,0,0,23.118,44.4a1.245,1.245,0,0,0-1.245-1.245,11.491,11.491,0,0,0-6.393,1.933,11.652,11.652,0,0,0-3.04-11,1.245,1.245,0,0,0-1.761,0A11.563,11.563,0,0,0,7.645,45.084a11.478,11.478,0,0,0-6.4-1.929A1.245,1.245,0,0,0,0,44.4,11.575,11.575,0,0,0,10.314,55.893v2.732H6.392A6.4,6.4,0,0,0,0,65.017v2.59a1.245,1.245,0,0,0,1.245,1.245h82.51A1.245,1.245,0,0,0,85,67.607v-2.59A6.4,6.4,0,0,0,78.608,58.625ZM74.784,53.37a9.143,9.143,0,0,1,7.626-7.626A9.157,9.157,0,0,1,74.784,53.37Zm-1.343-16.5a9.142,9.142,0,0,1,0,10.784A9.157,9.157,0,0,1,73.441,36.872Zm-8.969,8.873A9.091,9.091,0,0,1,72.1,53.37,9.091,9.091,0,0,1,64.472,45.745ZM43.843,53.37a9.143,9.143,0,0,1,7.626-7.626A9.157,9.157,0,0,1,43.843,53.37ZM42.5,36.872a9.156,9.156,0,0,1,0,10.784A9.142,9.142,0,0,1,42.5,36.872Zm-8.968,8.873a9.091,9.091,0,0,1,7.624,7.624A9.091,9.091,0,0,1,33.531,45.745ZM12.9,53.37a9.143,9.143,0,0,1,7.626-7.626A9.157,9.157,0,0,1,12.9,53.37Zm-1.343-16.5a9.091,9.091,0,0,1,0,10.783A9.091,9.091,0,0,1,11.559,36.873ZM2.59,45.745a9.091,9.091,0,0,1,7.624,7.624A9.091,9.091,0,0,1,2.59,45.745Z" transform="translate(0 -33.727)"/></g></g></svg>