<svg xmlns="http://www.w3.org/2000/svg" width="85.332" height="85.332" viewBox="0 0 85.332 85.332"><g transform="translate(0)"><g transform="translate(16.094 0.823)"><circle cx="21.32" cy="21.32" r="21.32" fill="#dae6f1"/></g><g transform="translate(19.674 4.403)"><circle cx="17.74" cy="17.74" r="17.74" fill="#5290db"/></g><g transform="translate(0.833 44.332)"><path d="M85.161,133H66.8l6.465,6.465a3.911,3.911,0,0,1-5.531,5.531l-9.359-9.359a3.922,3.922,0,0,1-.5-.612l-.36.221a2.837,2.837,0,0,1-1.486.421H49.341a2.836,2.836,0,0,0-2.006.831l-6.672,6.672a2.836,2.836,0,0,1-2.006.831H37.1a2.837,2.837,0,0,1-2.108-.939l-1.31-1.456a2.836,2.836,0,0,0-2.108-.939H29.93a2.837,2.837,0,0,1-2.281-1.15l-3.966-5.366A2.835,2.835,0,0,0,21.4,133H3.5a1,1,0,0,0-1,1v38.061a1.1,1.1,0,0,0,1.1,1.1H85.065a1.1,1.1,0,0,0,1.1-1.1V134a1,1,0,0,0-1-1Z" transform="translate(-2.5 -132.999)" fill="#a57453"/></g><g transform="translate(0.833 60.332)"><path d="M74.569,184.017c-7.56,0-7.56-3.017-15.12-3.017s-7.559,3.017-15.118,3.017S36.771,181,29.212,181s-7.559,3.017-15.118,3.017c-6.156,0-7.3-2-11.594-2.744v22.793a1.1,1.1,0,0,0,1.1,1.1H85.065a1.1,1.1,0,0,0,1.1-1.1V181.273c-4.3.743-5.44,2.744-11.6,2.744Z" transform="translate(-2.5 -181)" fill="#754e34"/></g><g transform="translate(33.755 49.677)"><path d="M107.212,149.843a1.442,1.442,0,0,0-2.02-.615l-3.153,1.83a1.442,1.442,0,0,0-.717,1.188l-.054,1.306a1.435,1.435,0,0,0,.145.685,2.831,2.831,0,0,0,1.528.451H104.5a2.836,2.836,0,0,0,2.006-.831l1.789-1.789Z" transform="translate(-101.267 -149.033)" fill="#a57453"/></g><g transform="translate(55.563 40.293)"><path d="M182.728,131.385l-9.359-9.359a3.911,3.911,0,1,0-5.531,5.531l9.359,9.359a3.911,3.911,0,1,0,5.531-5.531Z" transform="translate(-166.693 -120.881)" fill="#fc657e"/></g><g transform="translate(59.274 44.017)"><g transform="translate(0 0)"><path d="M0,0H7.821V6H0Z" transform="translate(0 5.53) rotate(-45)" fill="#f98fa6"/></g></g><g transform="translate(50.79 35.519)"><path d="M155.6,106.559a21.127,21.127,0,0,1-3.226,3.226l4.829,4.829a3.891,3.891,0,0,1,3.226-3.226Z" transform="translate(-152.372 -106.559)" fill="#c7d7e5"/></g><g transform="translate(62.887 47.588)"><path d="M195.26,143.011a.833.833,0,0,0-1.178,0l-5.174,5.174a.833.833,0,0,0,1.179,1.178l5.174-5.174A.834.834,0,0,0,195.26,143.011Z" transform="translate(-188.664 -142.767)"/></g><g transform="translate(58.644 43.374)"><path d="M182.5,130.368a.833.833,0,0,0-1.178,0l-5.146,5.146a.833.833,0,0,0,1.179,1.178l5.146-5.146A.833.833,0,0,0,182.5,130.368Z" transform="translate(-175.935 -130.123)"/></g><g transform="translate(54.733 39.46)"><path d="M181.656,129.13l-9.359-9.359a4.744,4.744,0,1,0-6.709,6.709l9.359,9.36a4.744,4.744,0,0,0,6.709-6.709Zm-1.178,5.531a3.081,3.081,0,0,1-4.352,0l-9.359-9.36a3.077,3.077,0,0,1,4.352-4.352l9.359,9.359a3.081,3.081,0,0,1,0,4.352Z" transform="translate(-164.2 -118.381)"/></g><g transform="translate(53.326 34.829)"><path d="M165.987,109.319l-4.585-4.585a.833.833,0,0,0-1.178,1.178l4.585,4.585a.833.833,0,1,0,1.178-1.178Z" transform="translate(-159.979 -104.489)"/></g><g transform="translate(50.095 38.05)"><path d="M156.278,118.966l-4.57-4.57a.833.833,0,0,0-1.178,1.178l4.57,4.57a.833.833,0,1,0,1.178-1.178Z" transform="translate(-150.286 -114.152)"/></g><g transform="translate(15.271)"><path d="M83.622,6.479a22.154,22.154,0,0,0-31.33,31.33,22.154,22.154,0,1,0,31.33-31.33ZM82.444,36.63A20.487,20.487,0,0,1,53.471,7.657,20.487,20.487,0,1,1,82.444,36.63Z" transform="translate(-45.813 0)"/></g><g transform="translate(11.708 36.008)"><path d="M39.383,110.083a2.6,2.6,0,0,1-2.067-2.033c0-.033-.1-.033-.1,0a2.6,2.6,0,0,1-2.067,2.033c-.033,0-.033.067,0,.1a2.6,2.6,0,0,1,2.067,2.033c0,.033.1.033.1,0a2.6,2.6,0,0,1,2.067-2.033C39.417,110.15,39.417,110.083,39.383,110.083Z" transform="translate(-35.125 -108.025)" fill="#fc657e"/></g><g transform="translate(8.565 5.333)"><path d="M30.463,17.833h-.8v-.767A1.053,1.053,0,0,0,28.6,16a1.068,1.068,0,0,0-1.067,1.033v.8h-.767A1.053,1.053,0,0,0,25.7,18.9a1.033,1.033,0,0,0,1.067,1.067h.767v.767A1.053,1.053,0,0,0,28.6,21.8a1.068,1.068,0,0,0,1.067-1.033v-.8h.767A1.053,1.053,0,0,0,31.5,18.9,1.068,1.068,0,0,0,30.463,17.833Z" transform="translate(-25.695 -16)" fill="#87d147"/></g><g transform="translate(63.632 34.166)"><path d="M192.033,102.5a1.133,1.133,0,1,0,1.133,1.133A1.133,1.133,0,0,0,192.033,102.5Z" transform="translate(-190.9 -102.5)" fill="#f5c84c"/></g><g transform="translate(17.633)"><path d="M54.033,0a1.133,1.133,0,1,0,1.133,1.133A1.133,1.133,0,0,0,54.033,0Z" transform="translate(-52.9)" fill="#70d6f9"/></g><g transform="translate(64.182 23.116)"><path d="M198.667,72.3a3.7,3.7,0,0,1-2.967-2.9c0-.067-.133-.067-.133,0a3.7,3.7,0,0,1-2.967,2.9c-.067,0-.067.1,0,.133a3.7,3.7,0,0,1,2.967,2.9c0,.067.133.067.133,0a3.7,3.7,0,0,1,2.967-2.9C198.733,72.4,198.733,72.3,198.667,72.3Z" transform="translate(-192.55 -69.35)" fill="#70d6f9"/></g><g transform="translate(24.102 8.831)"><circle cx="13.312" cy="13.312" r="13.312" fill="#70d6f9"/></g><g transform="translate(29.044 13.769)"><path d="M101.427,43.762a8.374,8.374,0,1,0,0,11.843A8.375,8.375,0,0,0,101.427,43.762Z" transform="translate(-87.135 -41.309)" fill="#dae6f1"/></g><g transform="translate(18.849 3.579)"><path d="M88.247,16.167A18.582,18.582,0,1,0,93.684,29.3,18.594,18.594,0,0,0,88.247,16.167ZM87.069,41.256A16.915,16.915,0,1,1,92.018,29.3,16.852,16.852,0,0,1,87.069,41.256Z" transform="translate(-56.549 -10.736)"/></g><g transform="translate(28.212 12.936)"><path d="M100.35,41.506a9.2,9.2,0,1,0,0,13.021A9.146,9.146,0,0,0,100.35,41.506ZM99.172,53.349a7.541,7.541,0,1,1,0-10.665A7.55,7.55,0,0,1,99.172,53.349Z" transform="translate(-84.637 -38.809)"/></g><g transform="translate(36.583 15.735)"><path d="M115.2,52.8h-3.782V48.038a.833.833,0,1,0-1.667,0v5.595a.833.833,0,0,0,.833.833H115.2a.833.833,0,0,0,0-1.667Z" transform="translate(-109.752 -47.205)"/></g><g transform="translate(23.28 8.004)"><path d="M93.979,28.15a14.152,14.152,0,0,0-21.223,1.387.833.833,0,1,0,1.321,1.016,12.5,12.5,0,1,1-2.2,4.577.833.833,0,1,0-1.618-.4,14.24,14.24,0,0,0,3.72,13.427,14.146,14.146,0,1,0,20-20.005Z" transform="translate(-69.842 -24.014)"/></g><g transform="translate(25.899 9.959)"><path d="M81.9,33.247H79.364V30.71a.833.833,0,0,0-1.667,0v3.37a.833.833,0,0,0,.833.833H81.9a.833.833,0,1,0,0-1.667Z" transform="translate(-77.697 -29.877)"/></g><g transform="translate(0 43.499)"><path d="M83.494,130.5H65.312a.833.833,0,1,0,0,1.667H83.494a.171.171,0,0,1,.171.171V170.4a.267.267,0,0,1-.267.267H1.934a.267.267,0,0,1-.267-.267V132.338a.172.172,0,0,1,.172-.171h17.9a2.011,2.011,0,0,1,1.611.812l3.966,5.366a3.684,3.684,0,0,0,2.951,1.488H29.9a2.006,2.006,0,0,1,1.489.663l1.31,1.455a3.676,3.676,0,0,0,2.728,1.215h1.562a3.645,3.645,0,0,0,2.595-1.075l6.672-6.672a1.99,1.99,0,0,1,1.416-.587h6.689a3.667,3.667,0,0,0,1.923-.544l.195-.12a.833.833,0,0,0-.874-1.419l-.195.12a2,2,0,0,1-1.05.3H47.674a3.645,3.645,0,0,0-2.595,1.075l-6.672,6.672a1.99,1.99,0,0,1-1.416.587H35.429a2.005,2.005,0,0,1-1.489-.663l-1.31-1.455a3.676,3.676,0,0,0-2.728-1.215h-1.64a2.011,2.011,0,0,1-1.611-.812l-3.966-5.366a3.684,3.684,0,0,0-2.951-1.488H1.838A1.84,1.84,0,0,0,0,132.338V170.4a1.936,1.936,0,0,0,1.934,1.934H83.4a1.936,1.936,0,0,0,1.934-1.934V132.338A1.84,1.84,0,0,0,83.494,130.5Z" transform="translate(0 -130.5)"/></g><g transform="translate(32.922 48.844)"><path d="M107.279,149.831l-.985-2.018a2.275,2.275,0,0,0-3.187-.97l-3.153,1.83a2.264,2.264,0,0,0-1.132,1.875l-.054,1.306a2.251,2.251,0,0,0,.159.927.833.833,0,1,0,1.549-.615.586.586,0,0,1-.043-.243l.054-1.306a.606.606,0,0,1,.3-.5l3.153-1.83a.609.609,0,0,1,.853.26l.985,2.018a.833.833,0,0,0,1.5-.731Z" transform="translate(-98.767 -146.536)"/></g></g></svg>