<svg xmlns="http://www.w3.org/2000/svg" width="82.94" height="85" viewBox="0 0 82.94 85"><g transform="translate(-0.001 0)"><path d="M60.844,260.417H67.82v-6.263a6.353,6.353,0,0,0-6.353-6.353.624.624,0,0,0-.624.624Zm0,0" transform="translate(-50.742 -206.662)" fill="#5be167"/><path d="M177.293,276.987v-9.179a.624.624,0,0,0-.624-.625,6.353,6.353,0,0,0-6.353,6.353v3.451Zm0,0" transform="translate(-142.041 -222.826)" fill="#5be167"/><path d="M87.949,321.82v24.924a1.66,1.66,0,0,1-1.66,1.66H9.16a1.66,1.66,0,0,1-1.66-1.66V321.82a4.488,4.488,0,0,1,4.488-4.488H83.461a4.487,4.487,0,0,1,4.488,4.488Zm0,0" transform="translate(-6.254 -264.65)" fill="#e29c6d"/><path d="M86.289,397.773H9.16a1.66,1.66,0,0,1-1.66-1.66V376.527H87.949v19.585A1.66,1.66,0,0,1,86.289,397.773Zm0,0" transform="translate(-6.254 -314.017)" fill="#fedfc5"/><path d="M86.289,462.511H9.16a1.66,1.66,0,0,1-1.66-1.66v-6.7H87.949v6.7A1.66,1.66,0,0,1,86.289,462.511Zm0,0" transform="translate(-6.254 -378.756)" fill="#618baa"/><path d="M70.442,105.51v-5.446A7.06,7.06,0,0,0,63.381,93H57.935A1.338,1.338,0,0,0,56.6,94.342v5.446a7.06,7.06,0,0,0,7.06,7.06H69.1A1.338,1.338,0,0,0,70.442,105.51Zm0,0" transform="translate(-47.201 -77.564)" fill="#5be167"/><path d="M116.756,347.52a5.774,5.774,0,1,1-5.774-5.774A5.774,5.774,0,0,1,116.756,347.52Zm0,0" transform="translate(-87.741 -285.01)" fill="#19aa60"/><path d="M130.108,364.193a2.455,2.455,0,1,1-2.455-2.455A2.455,2.455,0,0,1,130.108,364.193Zm0,0" transform="translate(-104.413 -301.684)" fill="#fdb659"/><path d="M139.988,142.416v-5.446a7.06,7.06,0,0,1,7.06-7.06h5.447a1.337,1.337,0,0,1,1.337,1.337v5.446a7.06,7.06,0,0,1-7.06,7.06h-5.446A1.338,1.338,0,0,1,139.988,142.416Zm0,0" transform="translate(-116.747 -108.343)" fill="#1fc974"/><path d="M124.272,16.268a3.906,3.906,0,1,1-7.811,0c0-2.157,1.749-7.537,3.906-7.537S124.272,14.111,124.272,16.268Zm0,0" transform="translate(-97.126 -7.281)" fill="#19aa60"/><path d="M375.554,47.581H358.607A1.677,1.677,0,0,1,356.93,45.9V14.917a1.677,1.677,0,0,1,1.678-1.678h16.947a1.678,1.678,0,0,1,1.678,1.678V45.9A1.678,1.678,0,0,1,375.554,47.581Zm0,0" transform="translate(-297.673 -11.041)" fill="#fdb659"/><path d="M77.208,52.463H55.264a1.245,1.245,0,0,0,0,2.49H77.208A3.246,3.246,0,0,1,80.45,58.2v4.095h-50.3a7.036,7.036,0,0,0-5.662-5.661V54.953H49.591a1.245,1.245,0,1,0,0-2.49H36.5V46.007a1.871,1.871,0,0,0-1.869-1.87,7.607,7.607,0,0,0-7.6,7.6v.727H24.485V37.677c.031,0,.062,0,.093,0h5.447a8.314,8.314,0,0,0,8.3-8.3V23.931a2.585,2.585,0,0,0-2.582-2.582H30.3a8.275,8.275,0,0,0-5.815,2.383v-8.72a5.159,5.159,0,0,0,3.906-5c0-2.257-1.771-8.783-5.15-8.783S18.09,7.756,18.09,10.013a5.16,5.16,0,0,0,3.905,5V17.6a8.273,8.273,0,0,0-5.814-2.383H10.735A2.586,2.586,0,0,0,8.152,17.8V23.25a8.315,8.315,0,0,0,8.305,8.305H21.9c.031,0,.062,0,.093,0V52.463H18.323V48.518a7.607,7.607,0,0,0-7.6-7.6,1.871,1.871,0,0,0-1.869,1.869v9.674H5.734A5.739,5.739,0,0,0,0,58.2V83.121a2.909,2.909,0,0,0,2.905,2.905h55.65a1.245,1.245,0,0,0,0-2.49H2.906a.415.415,0,0,1-.415-.415V77.668H80.45v5.453a.415.415,0,0,1-.415.415H64.229a1.245,1.245,0,0,0,0,2.49H80.035a2.909,2.909,0,0,0,2.905-2.905V58.2a5.739,5.739,0,0,0-5.733-5.733Zm-47.687-.727a5.115,5.115,0,0,1,4.486-5.071v5.8H29.521Zm.779-27.9h5.447a.092.092,0,0,1,.092.092v5.447a5.821,5.821,0,0,1-5.814,5.814H26.175l4.832-4.833A1.245,1.245,0,0,0,29.247,28.6l-4.761,4.761V29.653A5.821,5.821,0,0,1,30.3,23.838ZM20.58,10.013a12.177,12.177,0,0,1,1.04-4.078c.8-1.82,1.492-2.214,1.621-2.214s.824.394,1.621,2.214a12.176,12.176,0,0,1,1.04,4.078,2.661,2.661,0,1,1-5.322,0ZM10.642,23.25V17.8a.093.093,0,0,1,.093-.093h5.446A5.822,5.822,0,0,1,22,23.527v3.706l-4.761-4.76a1.245,1.245,0,0,0-1.761,1.761l4.832,4.833H16.457A5.822,5.822,0,0,1,10.642,23.25ZM27.77,63.536A4.529,4.529,0,1,1,22,59.182v.87a3.7,3.7,0,1,0,2.49,0v-.87A4.537,4.537,0,0,1,27.77,63.536Zm-4.529-1.21a1.21,1.21,0,1,1-1.21,1.21A1.211,1.211,0,0,1,23.241,62.326ZM11.347,43.448a5.115,5.115,0,0,1,4.486,5.07v3.945H11.347ZM5.733,54.953H22v1.676a7.036,7.036,0,0,0-5.662,5.661H2.491V58.2a3.246,3.246,0,0,1,3.242-3.242ZM2.491,75.177v-10.4H16.334a7.018,7.018,0,0,0,13.814,0h50.3v10.4Zm0,0" transform="translate(0 -1.026)"/><path d="M445.084,468.975a1.245,1.245,0,0,0-1.245-1.245h-.016a1.238,1.238,0,0,0-1.237,1.245,1.249,1.249,0,0,0,2.5,0Zm0,0" transform="translate(-369.109 -390.079)"/><path d="M419.06,474.318a1.245,1.245,0,0,0-.006-2.49h-.023a1.238,1.238,0,0,0-1.231,1.251,1.252,1.252,0,0,0,1.253,1.239Zm0,0" transform="translate(-348.439 -393.497)"/><path d="M275.862,338.934a1.238,1.238,0,0,0-1.237,1.245,1.249,1.249,0,1,0,1.253-1.245Zm0,0" transform="translate(-229.032 -282.665)"/><path d="M251.076,338.934a1.238,1.238,0,0,0-1.237,1.245,1.249,1.249,0,1,0,1.253-1.245Zm0,0" transform="translate(-208.362 -282.665)"/><path d="M194.06,476.84a1.238,1.238,0,0,0-1.237,1.245,1.249,1.249,0,1,0,1.253-1.245Zm0,0" transform="translate(-160.811 -397.677)"/><path d="M124.03,467.73a1.238,1.238,0,0,0-1.237,1.245,1.249,1.249,0,1,0,1.253-1.245Zm0,0" transform="translate(-102.407 -390.079)"/><path d="M262.237,38.738h6.292a1.245,1.245,0,0,0,1.245-1.245V20.614h5.9V34.862a2.926,2.926,0,0,0,2.923,2.923h5.258a1.245,1.245,0,1,0,0-2.49H278.6a.433.433,0,0,1-.433-.433V3.876a.433.433,0,0,1,.433-.433h16.947a.433.433,0,0,1,.433.433V34.862a.433.433,0,0,1-.433.433h-6.015a1.245,1.245,0,1,0,0,2.49h6.015a2.926,2.926,0,0,0,2.923-2.923V3.876A2.926,2.926,0,0,0,295.544.953H278.6a2.926,2.926,0,0,0-2.923,2.923V18.124h-5.9V1.246A1.245,1.245,0,0,0,268.53,0h-6.292a1.245,1.245,0,1,0,0,2.49h5.047V36.248h-5.047a1.245,1.245,0,1,0,0,2.49Zm0,0" transform="translate(-217.663 0)"/><path d="M262.237,45.135h2.255a1.245,1.245,0,1,0,0-2.49h-2.255a1.245,1.245,0,1,0,0,2.49Zm0,0" transform="translate(-217.663 -35.565)"/><path d="M262.237,89.482h2.255a1.245,1.245,0,1,0,0-2.49h-2.255a1.245,1.245,0,1,0,0,2.49Zm0,0" transform="translate(-217.663 -72.55)"/><path d="M262.237,133.834h2.255a1.245,1.245,0,1,0,0-2.49h-2.255a1.245,1.245,0,1,0,0,2.49Zm0,0" transform="translate(-217.663 -109.539)"/><path d="M262.237,178.181h2.255a1.245,1.245,0,1,0,0-2.49h-2.255a1.245,1.245,0,1,0,0,2.49Zm0,0" transform="translate(-217.663 -146.523)"/><path d="M383.018,52.451h2.891a1.245,1.245,0,1,0,0-2.49h-2.891a1.245,1.245,0,1,0,0,2.49Zm0,0" transform="translate(-318.392 -41.666)"/><path d="M383.018,93.029h10.088a1.245,1.245,0,0,0,0-2.49H383.018a1.245,1.245,0,0,0,0,2.49Zm0,0" transform="translate(-318.392 -75.508)"/><path d="M383.018,118.974h10.088a1.245,1.245,0,0,0,0-2.49H383.018a1.245,1.245,0,0,0,0,2.49Zm0,0" transform="translate(-318.392 -97.146)"/><path d="M383.018,144.92h10.088a1.245,1.245,0,1,0,0-2.49H383.018a1.245,1.245,0,1,0,0,2.49Zm0,0" transform="translate(-318.392 -118.784)"/><path d="M383.018,170.865h10.088a1.245,1.245,0,0,0,0-2.49H383.018a1.245,1.245,0,0,0,0,2.49Zm0,0" transform="translate(-318.392 -140.422)"/></g></svg>