<svg xmlns="http://www.w3.org/2000/svg" width="83" height="83" viewBox="0 0 83 83"><g transform="translate(-7343 10378)"><circle cx="41.5" cy="41.5" r="41.5" transform="translate(7343 -10378)" fill="#cfeaea"/><g transform="translate(7354.607 -10367)"><g transform="translate(9.002 9.609)"><path d="M96.854,148.716h2.332a.611.611,0,0,1,.61.61v1.108a.611.611,0,0,1-.61.61H96.854Z" transform="translate(-89.763 -137.164)" fill="#fdcd56" fill-rule="evenodd"/><path d="M44.089,59.776H41.827a4.447,4.447,0,0,1-4.44-4.44V26.108a.787.787,0,0,0-.784-.784H33.8V23.409h2.8a2.7,2.7,0,0,1,2.7,2.7V55.337a2.531,2.531,0,0,0,2.524,2.524h2.262v1.915Z" transform="translate(-32.199 -22.764)" fill="#fdcd56" fill-rule="evenodd"/><path d="M15.827,16h1.167a1.6,1.6,0,0,1,0,3.2H15.827a.436.436,0,0,1-.435-.435V16.435A.436.436,0,0,1,15.827,16Z" transform="translate(-15.392 -16)" fill="#f5b945" fill-rule="evenodd"/><path d="M64.472,111.461H65.94a1.251,1.251,0,0,1,1.249,1.249v6.315a1.251,1.251,0,0,1-1.249,1.249H64.472a1.251,1.251,0,0,1-1.249-1.249V112.71a1.251,1.251,0,0,1,1.249-1.249Z" transform="translate(-59.06 -103.152)" fill="#66d4f1" fill-rule="evenodd"/><path d="M143.433,395.718h2.308v6h-2.308A1.442,1.442,0,0,1,142,400.284v-3.128A1.442,1.442,0,0,1,143.433,395.718Z" transform="translate(-130.975 -362.665)" fill="#f5b945" fill-rule="evenodd"/><path d="M313.1,28.369h3.955v5.585H313.1Z" transform="translate(-287.188 -27.292)" fill="#38a8d2" fill-rule="evenodd"/><path d="M296.57,16h4.824a1.1,1.1,0,1,1,0,2.2H296.57a1.1,1.1,0,1,1,0-2.2Z" transform="translate(-271.091 -16)" fill="#66d4f1" fill-rule="evenodd"/><path d="M278.982,71.5h9.895V69.587a1.047,1.047,0,0,0-1.044-1.044h-7.807a1.047,1.047,0,0,0-1.044,1.044Z" transform="translate(-256.038 -63.969)" fill="#4fc0e8" fill-rule="evenodd"/><path d="M429.377,60.412h1.934v3.666h-1.934Z" transform="translate(-393.342 -56.546)" fill="#f5b945" fill-rule="evenodd"/><path d="M419.336,46.1h1.826a1.019,1.019,0,0,1,1.016,1.016v.581a.436.436,0,0,1-.435.435h-2.988a.436.436,0,0,1-.435-.435v-.581A1.019,1.019,0,0,1,419.336,46.1Z" transform="translate(-383.247 -43.476)" fill="#fdcd56" fill-rule="evenodd"/><path d="M200.412,92.529H177.644a2.617,2.617,0,0,0-2.612,2.612v29.9a2.617,2.617,0,0,0,2.612,2.612h22.768a2.617,2.617,0,0,0,2.612-2.612v-29.9A2.617,2.617,0,0,0,200.412,92.529Z" transform="translate(-161.136 -85.868)" fill="#66d4f1" fill-rule="evenodd"/><g transform="translate(17.69 13.995)"><circle cx="9.333" cy="9.333" r="9.333" transform="translate(0 1.848) rotate(-5.682)" fill="#f76c82"/><circle cx="7.458" cy="7.458" r="7.458" transform="matrix(0.987, -0.16, 0.16, 0.987, 1.641, 4.062)" fill="#f4f6f8"/><g transform="translate(6.802 6.851)"><path d="M302.268,255.767a2.609,2.609,0,0,1,1.188,2.271,5.98,5.98,0,0,1-2.948,5.1,2.626,2.626,0,0,1-2.514.13.608.608,0,0,1-.09-.052,2.626,2.626,0,0,1-1.146-2.246,5.984,5.984,0,0,1,2.948-5.1,2.606,2.606,0,0,1,2.559-.1Z" transform="translate(-296.757 -255.478)" fill="#937661" fill-rule="evenodd"/></g><path d="M0,0H1.875V17.268H0Z" transform="matrix(0.5, -0.866, 0.866, 0.5, 2.255, 6.722)" fill="#f76c82" fill-rule="evenodd"/></g></g><path d="M30.341,31.834l3.537,2.042a5.735,5.735,0,0,0-.282.931l-1.11.3a.61.61,0,0,0,.157,1.2.619.619,0,0,0,.158-.021l.7-.187a2.567,2.567,0,0,0,1.185,2.132,2.167,2.167,0,0,0,1.1.286,3.141,3.141,0,0,0,1.412-.369l.214.8a.608.608,0,0,0,.587.452.593.593,0,0,0,.159-.021.61.61,0,0,0,.431-.746l-.33-1.231a5.778,5.778,0,0,0,.6-.646L41.9,38.506a6.851,6.851,0,0,1-11.557-6.673Zm4.537,4.837.96-1.663-.89-.514A3.107,3.107,0,0,0,34.878,36.671Zm1.051.618a3.12,3.12,0,0,0,1.854-1.159l-.889-.513Zm.964,4.609a8.01,8.01,0,0,0,6.424-3.187.614.614,0,0,0,.112-.489.607.607,0,0,0-.292-.407l-12.816-7.4a.609.609,0,0,0-.866.292A8.07,8.07,0,0,0,36.893,41.9Zm0-14.915a6.791,6.791,0,0,0-5,2.173l3.525,2.035L35.2,30.4a.609.609,0,0,1,1.177-.315l.188.7a3.2,3.2,0,0,1,1.163-.323l.467-1.742a.61.61,0,0,1,1.178.315L38.929,30.7l.077.041c.025.014.048.032.072.047l1.22-1.22a.609.609,0,1,1,.862.862l-1.276,1.276a3.225,3.225,0,0,1,.307,1.25l.8-.214A.609.609,0,0,1,41.3,33.92l-.792.213,2.937,1.7a6.853,6.853,0,0,0-6.553-8.846ZM38.4,31.8a1.565,1.565,0,0,0-1.547.222l2.128,1.229A1.564,1.564,0,0,0,38.4,31.8Zm-7.745-1.95,12.815,7.4a.614.614,0,0,0,.306.082.621.621,0,0,0,.194-.032.611.611,0,0,0,.367-.341,8.068,8.068,0,0,0-13.863-8,.61.61,0,0,0,.18.9Zm6.243-4.74a8.723,8.723,0,1,0,8.724,8.723A8.733,8.733,0,0,0,36.893,25.108Zm0,18.665a9.942,9.942,0,1,0-9.942-9.942A9.953,9.953,0,0,0,36.893,43.773Zm11.385,7.009H25.51a2,2,0,0,1-2-2v-.841H50.28v.841a2,2,0,0,1-2,2ZM20.632,47.228V44.1a.829.829,0,0,1,.829-.829h.829v4.786H21.46A.829.829,0,0,1,20.632,47.228ZM14.8,42.181V27.341h.7v14.84a3.137,3.137,0,0,0,3.134,3.135h.783v.7H18.63A3.835,3.835,0,0,1,14.8,42.181ZM13.407,11.56h-.619a2.224,2.224,0,0,0,0-.7h.619A2.092,2.092,0,0,1,15.5,12.953v4.356h-.7V12.953A1.4,1.4,0,0,0,13.407,11.56Zm-2.8.645H9.612V10.219H10.6a.993.993,0,0,1,0,1.986Zm7.821,9.566v1.108h-.684V21.771Zm-4.011,4.351a.64.64,0,0,1-.64-.639V19.168a.641.641,0,0,1,.64-.64h1.468a.64.64,0,0,1,.639.64v6.315a.64.64,0,0,1-.639.639Zm35.865-5.18H23.507V46.72H50.28V20.942ZM25.509,16.88H48.278a2,2,0,0,1,2,2v.841H23.507v-.841a2,2,0,0,1,2-2Zm7.046-1.653a.435.435,0,0,1,.435-.435H40.8a.435.435,0,0,1,.434.435v.435H32.556v-.435Zm2.97-2.808h2.736v1.154H35.526Zm-1.535-1.71a.491.491,0,0,1,.491-.491h4.824a.491.491,0,1,1,0,.982H34.482a.492.492,0,0,1-.491-.491Zm11.656,4.161h.716v.791h-.716Zm-.962-1.626a.412.412,0,0,1,.406-.407h1.826a.412.412,0,0,1,.407.407v.407h-2.64Zm3.593,2.416h-.7v-.791h.353a.61.61,0,0,0,.609-.609V13.245a1.628,1.628,0,0,0-1.626-1.626H45.091a1.627,1.627,0,0,0-1.625,1.626v1.016a.609.609,0,0,0,.609.609h.353v.791H42.451v-.435A1.655,1.655,0,0,0,40.8,13.573H39.48V12.41A1.71,1.71,0,0,0,39.305,9H34.482a1.71,1.71,0,0,0-.174,3.41v1.163H32.99a1.655,1.655,0,0,0-1.653,1.654v.435H25.509a3.224,3.224,0,0,0-3.221,3.221v23.17H21.46A2.049,2.049,0,0,0,19.413,44.1h-.783a1.918,1.918,0,0,1-1.915-1.916V27.142a1.859,1.859,0,0,0,1.026-1.659V24.1h.684a1.221,1.221,0,0,0,1.219-1.219V21.771a1.22,1.22,0,0,0-1.219-1.219h-.684V19.168a1.858,1.858,0,0,0-1.026-1.659V12.953a3.312,3.312,0,0,0-3.308-3.308H12.164A2.2,2.2,0,0,0,10.6,9H9a.609.609,0,0,0-.609.609v3.2A.61.61,0,0,0,9,13.424h1.6a2.2,2.2,0,0,0,1.559-.645h1.244a.177.177,0,0,1,.174.175v4.556a1.858,1.858,0,0,0-1.026,1.659v6.315a1.859,1.859,0,0,0,1.026,1.659v15.04a5.054,5.054,0,0,0,5.049,5.049h.783a2.05,2.05,0,0,0,2.047,2.045h.867A3.226,3.226,0,0,0,25.509,52H48.278A3.225,3.225,0,0,0,51.5,48.779v-29.9a3.225,3.225,0,0,0-3.221-3.221Z" fill-rule="evenodd"/></g></g></svg>