<svg xmlns="http://www.w3.org/2000/svg" xmlns:xlink="http://www.w3.org/1999/xlink" width="83" height="83" viewBox="0 0 83 83"><defs><clipPath id="a"><path d="M0-682.665H44.739v44.739H0Z" transform="translate(0 682.665)"/></clipPath></defs><g transform="translate(8074.668 10709.798)"><circle cx="41.5" cy="41.5" r="41.5" transform="translate(-8074.668 -10709.798)" fill="#cfeaea"/><g transform="translate(-8055.538 -10008.002)"><g transform="translate(0 -682.665)"><g transform="translate(0 0)" clip-path="url(#a)"><g transform="translate(6.263 2.615)"><path d="M-399.628,0h-10.667a2.742,2.742,0,0,0-2.464,1.537l-1.168,2.391a2.742,2.742,0,0,1-2.464,1.537h-8.523A2.738,2.738,0,0,0-427.655,8.2V38.734a2.738,2.738,0,0,0,2.741,2.736h26.731a2.738,2.738,0,0,0,2.741-2.736V7.042a7.533,7.533,0,0,0-.633-3.022l-1.042-2.379A2.741,2.741,0,0,0-399.628,0" transform="translate(427.655 0)" fill="#aad667"/></g><g transform="translate(30.795 2.615)"><path d="M-100.512-57.316l-1.042-2.379a2.741,2.741,0,0,0-2.512-1.64h-3.5a2.741,2.741,0,0,1,2.512,1.64l1.042,2.379a7.535,7.535,0,0,1,.633,3.022V-22.6a2.738,2.738,0,0,1-2.741,2.736h3.5A2.738,2.738,0,0,0-99.879-22.6V-54.294a7.535,7.535,0,0,0-.633-3.022" transform="translate(107.561 61.336)" fill="#99c94f"/></g><g transform="translate(23.474 5.554)"><path d="M-126.049-60.243h-6.728a2.112,2.112,0,0,1-2.113-2.112,2.112,2.112,0,0,1,2.113-2.113h6.728a2.113,2.113,0,0,1,2.113,2.113,2.113,2.113,0,0,1-2.113,2.112" transform="translate(134.889 64.468)" fill="#fff"/></g><g transform="translate(8.656 5.554)"><path d="M-93.542-36.015h-5.3a1.263,1.263,0,0,1-1.263-1.263,1.263,1.263,0,0,1,1.263-1.263h5.3a1.263,1.263,0,0,1,1.263,1.263,1.263,1.263,0,0,1-1.263,1.263" transform="translate(100.102 38.541)" fill="#82b339"/></g><g transform="translate(6.955 0.655)"><path d="M-135.994-69.847h-8.064a1.474,1.474,0,0,1-1.474-1.474v-1.951a1.474,1.474,0,0,1,1.474-1.474h8.064a1.474,1.474,0,0,1,1.474,1.474v1.951a1.474,1.474,0,0,1-1.474,1.474" transform="translate(145.532 74.745)" fill="#fc435f"/></g><g transform="translate(12.997 0.655)"><path d="M-49.838,0h-3.5A1.474,1.474,0,0,1-51.86,1.474V3.425A1.474,1.474,0,0,1-53.333,4.9h3.5a1.474,1.474,0,0,0,1.474-1.474V1.474A1.474,1.474,0,0,0-49.838,0" transform="translate(53.333)" fill="#eb2f4b"/></g><path d="M127.777-430.063H95.564v-21.172h32.214Z" transform="translate(-89.301 466.402)" fill="#ffdeb0"/><path d="M533.769-430.063h3.5v-21.172h-3.5Z" transform="translate(-498.788 466.402)" fill="#fcd59f"/><path d="M209.741-430.063h-19.85v-21.172h19.85Z" transform="translate(-177.447 466.402)" fill="#fff1ec"/><g transform="translate(20.444 19.188)"><path d="M-54.928-53.487a5.777,5.777,0,0,1-1.959,3.717,5.777,5.777,0,0,1-1.893-3.751,5.777,5.777,0,0,1,1.959-3.717,5.777,5.777,0,0,1,1.893,3.751" transform="translate(58.78 57.239)" fill="#aad667"/></g><g transform="translate(22.37 27.065)"><path d="M-57.377-57A5.8,5.8,0,0,1-61.4-55.756a5.771,5.771,0,0,1,1.319-3.988,5.8,5.8,0,0,1,4.019-1.246A5.772,5.772,0,0,1-57.377-57" transform="translate(61.4 61)" fill="#aad667"/></g><g transform="translate(17.022 27.065)"><path d="M-18.88-57a5.8,5.8,0,0,0,4.019,1.246,5.771,5.771,0,0,0-1.319-3.988A5.8,5.8,0,0,0-20.2-60.991,5.772,5.772,0,0,0-18.88-57" transform="translate(20.204 61)" fill="#aad667"/></g><g transform="translate(6.263 2.615)"><path d="M0-269.551v19.829a2.738,2.738,0,0,0,2.741,2.736H29.472a2.738,2.738,0,0,0,2.741-2.736v-31.692a7.536,7.536,0,0,0-.633-3.022l-1.042-2.379a2.741,2.741,0,0,0-2.512-1.64H17.36a2.742,2.742,0,0,0-2.464,1.537l-1.168,2.391a2.742,2.742,0,0,1-2.464,1.537H2.741A2.738,2.738,0,0,0,0-280.255v7.219" transform="translate(0 288.455)" fill="none" stroke="#060606" stroke-linecap="round" stroke-linejoin="round" stroke-miterlimit="10" stroke-width="1"/></g><g transform="translate(23.474 5.554)"><path d="M-126.049-60.243h-6.728a2.112,2.112,0,0,1-2.113-2.112,2.112,2.112,0,0,1,2.113-2.113h6.728a2.113,2.113,0,0,1,2.113,2.113A2.113,2.113,0,0,1-126.049-60.243Z" transform="translate(134.889 64.468)" fill="none" stroke="#060606" stroke-linecap="round" stroke-linejoin="round" stroke-miterlimit="10" stroke-width="1"/></g><g transform="translate(8.656 5.554)"><path d="M-93.542-36.015h-5.3a1.263,1.263,0,0,1-1.263-1.263,1.263,1.263,0,0,1,1.263-1.263h5.3a1.263,1.263,0,0,1,1.263,1.263A1.263,1.263,0,0,1-93.542-36.015Z" transform="translate(100.102 38.541)" fill="none" stroke="#060606" stroke-linecap="round" stroke-linejoin="round" stroke-miterlimit="10" stroke-width="1"/></g><g transform="translate(6.955 0.655)"><path d="M-135.994-69.847h-8.064a1.474,1.474,0,0,1-1.474-1.474v-1.951a1.474,1.474,0,0,1,1.474-1.474h8.064a1.474,1.474,0,0,1,1.474,1.474v1.951A1.474,1.474,0,0,1-135.994-69.847Z" transform="translate(145.532 74.745)" fill="none" stroke="#060606" stroke-linecap="round" stroke-linejoin="round" stroke-miterlimit="10" stroke-width="1"/></g><g transform="translate(6.263 15.167)"><path d="M0-301.88H32.214v-21.172H0" transform="translate(0 323.051)" fill="none" stroke="#060606" stroke-linecap="round" stroke-linejoin="round" stroke-miterlimit="10" stroke-width="1"/></g><g transform="translate(12.445 15.167)"><path d="M-283.032-168.772v-11.836h-19.85v21.172h19.85v-5.844" transform="translate(302.882 180.609)" fill="none" stroke="#060606" stroke-linecap="round" stroke-linejoin="round" stroke-miterlimit="10" stroke-width="1"/></g><g transform="translate(22.37 26.366)"><path d="M0-78.155v-5.481" transform="translate(0 83.636)" fill="none" stroke="#060606" stroke-linecap="round" stroke-linejoin="round" stroke-miterlimit="10" stroke-width="1"/></g><g transform="translate(20.444 19.188)"><path d="M-54.928-53.487a5.777,5.777,0,0,1-1.959,3.717,5.777,5.777,0,0,1-1.893-3.751,5.777,5.777,0,0,1,1.959-3.717A5.777,5.777,0,0,1-54.928-53.487Z" transform="translate(58.78 57.239)" fill="none" stroke="#060606" stroke-linecap="round" stroke-linejoin="round" stroke-miterlimit="10" stroke-width="1"/></g><g transform="translate(22.37 27.065)"><path d="M-57.377-57A5.8,5.8,0,0,1-61.4-55.756a5.771,5.771,0,0,1,1.319-3.988,5.8,5.8,0,0,1,4.019-1.246A5.772,5.772,0,0,1-57.377-57Z" transform="translate(61.4 61)" fill="none" stroke="#060606" stroke-linecap="round" stroke-linejoin="round" stroke-miterlimit="10" stroke-width="1"/></g><g transform="translate(17.022 27.065)"><path d="M-18.88-57a5.8,5.8,0,0,0,4.019,1.246,5.771,5.771,0,0,0-1.319-3.988A5.8,5.8,0,0,0-20.2-60.991,5.772,5.772,0,0,0-18.88-57Z" transform="translate(20.204 61)" fill="none" stroke="#060606" stroke-linecap="round" stroke-linejoin="round" stroke-miterlimit="10" stroke-width="1"/></g><g transform="translate(9.874 40.546)"><path d="M0,0H24.991" fill="none" stroke="#060606" stroke-linecap="round" stroke-linejoin="round" stroke-miterlimit="10" stroke-width="1"/></g></g></g></g></g></svg>