<svg xmlns="http://www.w3.org/2000/svg" xmlns:xlink="http://www.w3.org/1999/xlink" width="83" height="83" viewBox="0 0 83 83"><defs><clipPath id="a"><path d="M0-682.665H58.611v58.611H0Z" transform="translate(0 682.665)"/></clipPath></defs><g transform="translate(-9022.947 10377.964)"><circle cx="41.5" cy="41.5" r="41.5" transform="translate(9022.947 -10377.964)" fill="#cfeaea"/><g transform="translate(9035.142 -9683.104)"><g transform="translate(0 -682.665)"><g clip-path="url(#a)"><g transform="translate(27.016 1.044)"><path d="M-58.967,0l-5.538.959,2.29,5.725h.139A21.634,21.634,0,0,1-40.638,28.122,21.444,21.444,0,0,1-43.48,38.957a1.72,1.72,0,0,1-2.709.368l-6.964-6.964-4.857,4.857,6.992,6.992a1.72,1.72,0,0,1-.358,2.7,21.441,21.441,0,0,1-10.839,2.926l-2.29,5.724,5.538.959a28.45,28.45,0,0,0,25.2-28.261A28.45,28.45,0,0,0-58.967,0" transform="translate(64.505)" fill="#ff8e9e"/></g><g transform="translate(0.859 0.859)"><path d="M-332.869-599.673a8.447,8.447,0,0,1-2.816-6.3c-.154,0-.308,0-.463,0a21.628,21.628,0,0,1-21.111-21.111,21.452,21.452,0,0,1,2.922-11.3,1.72,1.72,0,0,1,2.7-.358l7.342,7.341,4.857-4.857-7.313-7.313a1.719,1.719,0,0,1,.361-2.706,21.444,21.444,0,0,1,10.7-2.845h0a8.447,8.447,0,0,1,2.816-6.3l.432-.387a28.7,28.7,0,0,0-3.249-.186,28.447,28.447,0,0,0-28.447,28.447,28.45,28.45,0,0,0,31.7,28.261Z" transform="translate(364.132 655.994)" fill="#ea5b70"/></g><g transform="translate(11.843 11.83)"><path d="M-247.769-95.659a3.166,3.166,0,0,1-4.472,0,3.165,3.165,0,0,1,0-4.472,3.165,3.165,0,0,1,4.472,0,3.166,3.166,0,0,1,0,4.472m-7.148,7.148a3.166,3.166,0,0,1-4.472,0,3.166,3.166,0,0,1,0-4.472,3.166,3.166,0,0,1,4.472,0,3.166,3.166,0,0,1,0,4.472m-7.148,7.148a3.166,3.166,0,0,1-4.472,0,3.166,3.166,0,0,1,0-4.472,3.166,3.166,0,0,1,4.472,0,3.166,3.166,0,0,1,0,4.472m19.2-16.527a1.672,1.672,0,0,1-.474-.951,6.707,6.707,0,0,0-2.306-4.192,6.713,6.713,0,0,0-8.726,0,6.707,6.707,0,0,0-2.306,4.192,1.674,1.674,0,0,1-1.426,1.425,6.7,6.7,0,0,0-3.819,1.9,6.7,6.7,0,0,0-1.9,3.819,1.667,1.667,0,0,1-1.42,1.425,6.706,6.706,0,0,0-4.187,2.295,6.746,6.746,0,0,0-.037,8.706,6.708,6.708,0,0,0,4.219,2.338,1.671,1.671,0,0,1,.951.474,1.668,1.668,0,0,1,.481.947l21.9-21.906a1.672,1.672,0,0,1-.951-.474" transform="translate(271.04 104.644)" fill="#d4d4ff"/></g><g transform="translate(19.068 19.058)"><path d="M-246.961-94.806a3.166,3.166,0,0,1-4.472,0,3.166,3.166,0,0,1,0-4.472,3.166,3.166,0,0,1,4.472,0,3.166,3.166,0,0,1,0,4.472m-7.148,7.148a3.166,3.166,0,0,1-4.472,0,3.166,3.166,0,0,1,0-4.472,3.166,3.166,0,0,1,4.472,0,3.166,3.166,0,0,1,0,4.472m-7.148,7.148a3.166,3.166,0,0,1-4.472,0,3.166,3.166,0,0,1,0-4.472,3.166,3.166,0,0,1,4.472,0,3.166,3.166,0,0,1,0,4.472m17.2-20.9a6.707,6.707,0,0,0-4.192-2.305,30.737,30.737,0,0,0-8.2,5.864l-7.83,7.829a30.777,30.777,0,0,0-5.87,8.213,6.707,6.707,0,0,0,2.3,4.2,6.765,6.765,0,0,0,8.726,0,6.707,6.707,0,0,0,2.306-4.194,1.691,1.691,0,0,1,1.45-1.426,6.7,6.7,0,0,0,3.794-1.9,6.7,6.7,0,0,0,1.9-3.794,1.691,1.691,0,0,1,1.426-1.45,6.709,6.709,0,0,0,4.195-2.306,6.765,6.765,0,0,0,0-8.726" transform="translate(270.155 103.71)" fill="#efedff"/></g><g transform="translate(6.868 6.87)"><path d="M-192.022-138.825a2.543,2.543,0,0,0,2.157-2.156,5.877,5.877,0,0,1,2.012-3.658,5.775,5.775,0,0,1,5.872-1.021,5.811,5.811,0,0,1,3.752,4.679,2.543,2.543,0,0,0,2.156,2.156h0a5.78,5.78,0,0,1,4.658,3.726,5.8,5.8,0,0,1-1,5.9,5.877,5.877,0,0,1-3.66,2.013,2.564,2.564,0,0,0-2.157,2.178,5.9,5.9,0,0,1-4.967,4.967,2.563,2.563,0,0,0-2.178,2.156,5.856,5.856,0,0,1-7.912,4.661,5.778,5.778,0,0,1-3.718-4.662,2.544,2.544,0,0,0-2.162-2.152,5.881,5.881,0,0,1-3.649-9.635,5.877,5.877,0,0,1,3.653-2,2.539,2.539,0,0,0,2.152-2.156,5.888,5.888,0,0,1,4.991-4.991m-6.011,2.521-4.927-4.928a2.581,2.581,0,0,0-4.052.532,22.386,22.386,0,0,0-1.272,20,.858.858,0,0,0,1.126.454.857.857,0,0,0,.455-1.124h0a20.677,20.677,0,0,1,1.173-18.465.862.862,0,0,1,1.355-.183l5.532,5.532c-.027.137-.052.274-.071.414a.8.8,0,0,1-.688.694,7.592,7.592,0,0,0-4.72,2.586,7.6,7.6,0,0,0,4.715,12.452.83.83,0,0,1,.7.69,7.473,7.473,0,0,0,4.81,6.029,7.583,7.583,0,0,0,10.222-6.029.839.839,0,0,1,.722-.694c.13-.019.258-.042.386-.067l5.538,5.539a.861.861,0,0,1-.184,1.355,20.679,20.679,0,0,1-10.406,2.809,20.7,20.7,0,0,1-17.559-9.744.857.857,0,0,0-1.184-.271.859.859,0,0,0-.27,1.184,22.454,22.454,0,0,0,19.013,10.549h0a22.3,22.3,0,0,0,11.27-3.044,2.579,2.579,0,0,0,.456-4.128l-4.858-4.859a7.67,7.67,0,0,0,3.606-3.678l4.944,4.943a2.58,2.58,0,0,0,4.06-.547,22.372,22.372,0,0,0,1.225-19.749.856.856,0,0,0-1.123-.459.859.859,0,0,0-.46,1.123,20.667,20.667,0,0,1-1.131,18.231.861.861,0,0,1-1.358.187l-5.581-5.58c.028-.161.073-.844.73-.936a7.594,7.594,0,0,0,4.729-2.6,7.491,7.491,0,0,0,1.3-7.621,7.475,7.475,0,0,0-6.025-4.818h0a.818.818,0,0,1-.693-.694,7.506,7.506,0,0,0-4.844-6.046,7.47,7.47,0,0,0-7.6,1.32,7.594,7.594,0,0,0-2.6,4.726.819.819,0,0,1-.695.693c-.081.011-.161.025-.241.039l-5.573-5.574a.858.858,0,0,1,.181-1.353,20.709,20.709,0,0,1,27.887,7.1.857.857,0,0,0,1.181.276.857.857,0,0,0,.276-1.183,22.427,22.427,0,0,0-30.2-7.684,2.578,2.578,0,0,0-.541,4.058l4.935,4.935a7.652,7.652,0,0,0-3.679,3.607" transform="translate(210.056 151.864)"/></g><g transform="translate(28.859 14.56)"><path d="M-25.446-25.446a2.306,2.306,0,0,1,3.258,0,2.306,2.306,0,0,1,0,3.258,2.306,2.306,0,0,1-3.258,0,2.306,2.306,0,0,1,0-3.258Zm4.472,4.472a4.025,4.025,0,0,0,0-5.686,4.026,4.026,0,0,0-5.686,0h0a4.025,4.025,0,0,0,0,5.686,4.025,4.025,0,0,0,5.686,0" transform="translate(27.836 27.836)"/></g><g transform="translate(21.711 21.708)"><path d="M-25.445-25.445a2.306,2.306,0,0,1,3.258,0,2.306,2.306,0,0,1,0,3.258,2.306,2.306,0,0,1-3.258,0,2.306,2.306,0,0,1,0-3.258m4.472,4.472a4.025,4.025,0,0,0,0-5.686,4.026,4.026,0,0,0-5.686,0h0a4.025,4.025,0,0,0,0,5.686,4.025,4.025,0,0,0,5.686,0" transform="translate(27.835 27.835)"/></g><g transform="translate(14.563 28.856)"><path d="M-60.134-25.446a2.306,2.306,0,0,1,0,3.258,2.307,2.307,0,0,1-3.258,0,2.307,2.307,0,0,1,0-3.258,2.306,2.306,0,0,1,3.258,0m-4.472-1.214a4.025,4.025,0,0,0,0,5.686h0A4.008,4.008,0,0,0-61.763-19.8a4.008,4.008,0,0,0,2.843-1.176,4.025,4.025,0,0,0,0-5.686,4.026,4.026,0,0,0-5.686,0" transform="translate(65.782 27.836)"/></g><g transform="translate(21.711 36.004)"><path d="M-60.135-60.134a2.306,2.306,0,0,1-3.258,0,2.307,2.307,0,0,1,0-3.258,2.306,2.306,0,0,1,3.258,0,2.306,2.306,0,0,1,0,3.258m-4.472-4.472a4.025,4.025,0,0,0,0,5.686,4.026,4.026,0,0,0,5.686,0h0a4.025,4.025,0,0,0,0-5.686,4.025,4.025,0,0,0-5.686,0" transform="translate(65.783 65.782)"/></g><g transform="translate(28.859 28.856)"><path d="M-60.135-60.133a2.306,2.306,0,0,1-3.258,0,2.307,2.307,0,0,1,0-3.258,2.306,2.306,0,0,1,3.258,0,2.306,2.306,0,0,1,0,3.258m-4.472-4.472a4.025,4.025,0,0,0,0,5.686,4.026,4.026,0,0,0,5.686,0h0a4.025,4.025,0,0,0,0-5.686,4.026,4.026,0,0,0-5.686,0" transform="translate(65.783 65.781)"/></g><g transform="translate(36.007 21.708)"><path d="M-25.445-25.446a2.306,2.306,0,0,1,3.258,0,2.306,2.306,0,0,1,0,3.258,2.306,2.306,0,0,1-3.258,0,2.306,2.306,0,0,1,0-3.258m-1.214,4.472a4.025,4.025,0,0,0,5.686,0,4.025,4.025,0,0,0,0-5.686,4.025,4.025,0,0,0-5.686,0,4.025,4.025,0,0,0,0,5.686" transform="translate(27.835 27.836)"/></g><path d="M-312.027,0a28.574,28.574,0,0,0-19.55,7.474.859.859,0,0,0-.066,1.212.858.858,0,0,0,1.212.066,27.539,27.539,0,0,1,18.4-7.036,27.612,27.612,0,0,1,27.589,27.589A27.561,27.561,0,0,1-312.062,56.9a27.6,27.6,0,0,1-27.553-27.59,27.563,27.563,0,0,1,6.843-18.187.859.859,0,0,0-.079-1.212.859.859,0,0,0-1.212.079,29.28,29.28,0,0,0-7.269,19.319,29.321,29.321,0,0,0,29.27,29.306,29.309,29.309,0,0,0,29.341-29.306A29.332,29.332,0,0,0-312.027,0" transform="translate(341.332)"/></g></g></g></g></svg>