<svg xmlns="http://www.w3.org/2000/svg" width="60" height="60" viewBox="0 0 60 60"><g transform="translate(-2 -2)"><path d="M39,17V13H25v4Z" fill="#c0ab91"/><path d="M61,21V61H3V21L32,3Z" fill="#c0ab91"/><path d="M61,21V61H57V21L30,4.24,32,3Z" fill="#a78966"/><path d="M7,23H57v4H7Z" fill="#00d7df"/><path d="M53,23h4v4H53Z" fill="#00b6bd"/><path d="M7,27H57V61H7Z" fill="#e0e0e2"/><path d="M53,27h4V61H53Z" fill="#c6c5ca"/><rect width="14" height="4" rx="2" transform="translate(25 13)" fill="#ffde55"/><path d="M41,17a2.006,2.006,0,0,1-2,2H29a2.006,2.006,0,0,1-2-2H37a2.006,2.006,0,0,0,2-2A2.006,2.006,0,0,1,41,17Z" fill="#a78966"/><path d="M39,15a2.006,2.006,0,0,1-2,2H34a2,2,0,0,0,0-4h3A2.006,2.006,0,0,1,39,15Z" fill="#ebbf00"/><path d="M30,33h4v4H30Z" fill="#c6c5ca"/><path d="M53,46v2a8,8,0,0,1-8,8V54A8,8,0,0,1,53,46Z" fill="#ccfc5c"/><path d="M49,38c0,3.31-1.79,6-4,6s-4-2.69-4-6,4-6,4-6S49,34.69,49,38Z" fill="#ccfc5c"/><path d="M53,46v2a8,8,0,0,1-8,8v-.58A8.008,8.008,0,0,0,50,48V46.58A8.093,8.093,0,0,1,53,46Z" fill="#a4e276"/><path d="M49,37.83c0,3.32-1.79,6-4,6a3.709,3.709,0,0,1-3.12-2.24,2.718,2.718,0,0,0,1.12.24c2.21,0,4-2.68,4-6a6.032,6.032,0,0,0-1.42-3.57C46.69,33.16,49,35.32,49,37.83Z" fill="#a4e276"/><path d="M40,45v2a8,8,0,0,1-8,8V53A8,8,0,0,1,40,45Z" fill="#ccfc5c"/><path d="M36,37c0,3.31-1.79,6-4,6s-4-2.69-4-6,4-6,4-6S36,33.69,36,37Z" fill="#ccfc5c"/><path d="M32,53v2a8,8,0,0,1-8-8V45A8,8,0,0,1,32,53Z" fill="#ccfc5c"/><path d="M40,45v2a8,8,0,0,1-8,8v-.58A8.008,8.008,0,0,0,37,47V45.58A8.093,8.093,0,0,1,40,45Z" fill="#a4e276"/><path d="M36,36.83c0,3.32-1.79,6-4,6a3.709,3.709,0,0,1-3.12-2.24,2.718,2.718,0,0,0,1.12.24c2.21,0,4-2.68,4-6a6.032,6.032,0,0,0-1.42-3.57C33.69,32.16,36,34.32,36,36.83Z" fill="#a4e276"/><path d="M32,53v2a8.093,8.093,0,0,1-3-.58V53a8.007,8.007,0,0,0-5-7.419V45A8,8,0,0,1,32,53Z" fill="#a4e276"/><path d="M23,38c0,3.31-1.79,6-4,6s-4-2.69-4-6,4-6,4-6S23,34.69,23,38Z" fill="#ccfc5c"/><path d="M19,54v2a8,8,0,0,1-8-8V46A8,8,0,0,1,19,54Z" fill="#ccfc5c"/><path d="M23,37.83c0,3.32-1.79,6-4,6a3.709,3.709,0,0,1-3.12-2.24,2.718,2.718,0,0,0,1.12.24c2.21,0,4-2.68,4-6a6.032,6.032,0,0,0-1.42-3.57C20.69,33.16,23,35.32,23,37.83Z" fill="#a4e276"/><path d="M19,54v2a8.093,8.093,0,0,1-3-.58V54a8.007,8.007,0,0,0-5-7.419V46A8,8,0,0,1,19,54Z" fill="#a4e276"/><path d="M61.53,20.15l-29-18a1.011,1.011,0,0,0-1.06,0l-29,18A1,1,0,0,0,2,21V61a1,1,0,0,0,1,1H61a1,1,0,0,0,1-1V21A1,1,0,0,0,61.53,20.15ZM18,54.93A7.013,7.013,0,0,1,12,48v-.93A7.013,7.013,0,0,1,18,54Zm13-1A7.013,7.013,0,0,1,25,47v-.93A7.013,7.013,0,0,1,31,53ZM32,42c-1.63,0-3-2.29-3-5,0-2.06,2-3.94,3-4.75,1,.81,3,2.69,3,4.75C35,39.71,33.63,42,32,42Zm1,11a7.013,7.013,0,0,1,6-6.93V47a7.013,7.013,0,0,1-6,6.93ZM45,43c-1.63,0-3-2.29-3-5,0-2.06,2-3.94,3-4.75,1,.81,3,2.69,3,4.75C48,40.71,46.63,43,45,43Zm1,11a7.013,7.013,0,0,1,6-6.93V48a7.013,7.013,0,0,1-6,6.93Zm10,6H46V56.94A9.016,9.016,0,0,0,54,48V46a1,1,0,0,0-1-1,8.96,8.96,0,0,0-7,3.36v-3.5c2.31-.63,4-3.42,4-6.86,0-3.8-4.26-6.71-4.44-6.83a1,1,0,0,0-1.12,0C44.26,31.29,40,34.2,40,38c0,3.44,1.69,6.23,4,6.86V60H33V55.94A9.016,9.016,0,0,0,41,47V45a1,1,0,0,0-1-1,8.96,8.96,0,0,0-7,3.36v-3.5c2.31-.63,4-3.42,4-6.86,0-3.8-4.26-6.71-4.44-6.83a1,1,0,0,0-1.12,0C31.26,30.29,27,33.2,27,37c0,3.44,1.69,6.23,4,6.86v3.5A8.96,8.96,0,0,0,24,44a1,1,0,0,0-1,1v2a9.016,9.016,0,0,0,8,8.94V60H20V44.86c2.31-.63,4-3.42,4-6.86,0-3.8-4.26-6.71-4.44-6.83a1,1,0,0,0-1.12,0C18.26,31.29,14,34.2,14,38c0,3.44,1.69,6.23,4,6.86v3.5A8.96,8.96,0,0,0,11,45a1,1,0,0,0-1,1v2a9.016,9.016,0,0,0,8,8.94V60H8V28H56ZM19,43c-1.63,0-3-2.29-3-5,0-2.06,2-3.94,3-4.75,1,.81,3,2.69,3,4.75C22,40.71,20.63,43,19,43ZM56,26H8V24H56Zm4,34H58V23a1,1,0,0,0-1-1H7a1,1,0,0,0-1,1V60H4V21.56L32,4.18,60,21.56Z"/><path d="M24,15a3,3,0,0,0,3,3H37a3,3,0,0,0,0-6H27a3,3,0,0,0-3,3Zm14,0a1,1,0,0,1-1,1H27a1,1,0,0,1,0-2H37A1,1,0,0,1,38,15Z"/></g></svg>