<svg xmlns="http://www.w3.org/2000/svg" width="60.076" height="60.076" viewBox="0 0 60.076 60.076"><path d="M37.693,67.729H33V36.166a26.166,26.166,0,0,1,52.332,0V67.729H80.639V36.166a21.473,21.473,0,1,0-42.945,0Z" transform="translate(-29.128 -8.827)" fill="#fac800"/><path d="M115.945,71.031a21.473,21.473,0,1,0-42.945,0v31.563h42.945Z" transform="translate(-64.434 -43.692)" fill="#9b4b14"/><rect width="32.204" height="5.032" transform="translate(13.86 54.267)" fill="#aaaaa0"/><rect width="32.204" height="5.032" transform="translate(13.86 49.236)" fill="#e6e6e6"/><rect width="32.204" height="5.032" transform="translate(13.86 44.204)" fill="#aaaaa0"/><rect width="32.204" height="4.025" transform="translate(13.86 40.178)" fill="#e6e6e6"/><rect width="32.204" height="5.032" transform="translate(13.86 35.147)" fill="#fa9600"/><rect width="7.045" height="7.045" transform="translate(26.943 14.013)" fill="#5ad2e6"/><path d="M118.907,252H107.173a1.173,1.173,0,1,0,0,2.347h11.734a1.173,1.173,0,1,0,0-2.347Z" transform="translate(-93.562 -222.431)"/><path d="M247.173,252a1.173,1.173,0,1,0,1.173,1.173A1.175,1.175,0,0,0,247.173,252Z" transform="translate(-217.135 -222.431)"/><path d="M286,253.173a1.175,1.175,0,0,0,1.173,1.173h11.734a1.173,1.173,0,1,0,0-2.347H287.173A1.175,1.175,0,0,0,286,253.173Z" transform="translate(-252.442 -222.431)"/><path d="M225.387,115.214v-7.04A1.173,1.173,0,0,0,224.214,107h-7.04A1.173,1.173,0,0,0,216,108.173v7.04a1.173,1.173,0,0,0,1.173,1.173h7.04A1.173,1.173,0,0,0,225.387,115.214Zm-2.347-1.173h-4.693v-4.693h4.693Z" transform="translate(-190.655 -94.445)"/><path d="M58.9,57.729H57.377V27.339A27.339,27.339,0,0,0,10.706,8.007,27.16,27.16,0,0,0,2.7,27.339v30.39H1.173a1.173,1.173,0,1,0,0,2.347H58.9a1.173,1.173,0,0,0,0-2.347Zm-13.611,0H14.784V55.383H45.292Zm0-4.693H14.784V50.689H45.292Zm0-4.693H14.784V46H45.292Zm0-4.693H14.784V41.3H45.292Zm0-4.693H14.784V36.609H45.292Zm5.045,18.774h-2.7V35.436a1.173,1.173,0,0,0-1.173-1.173H13.611a1.173,1.173,0,0,0-1.173,1.173V57.729h-2.7V27.339a20.3,20.3,0,1,1,40.6,0Zm4.693,0H52.684V27.339a22.73,22.73,0,0,0-22.7-22.7,22.38,22.38,0,0,0-16,6.653A22.633,22.633,0,0,0,7.392,27.339v30.39H5.045V27.339a24.993,24.993,0,1,1,49.985,0Z"/></svg>