<svg xmlns="http://www.w3.org/2000/svg" xmlns:xlink="http://www.w3.org/1999/xlink" width="120" height="120" viewBox="0 0 120 120"><defs><filter id="a" x="0" y="0" width="120" height="120" filterUnits="userSpaceOnUse"><feOffset dy="3" input="SourceAlpha"/><feGaussianBlur stdDeviation="3" result="b"/><feFlood flood-opacity="0.161"/><feComposite operator="in" in2="b"/><feComposite in="SourceGraphic"/></filter></defs><g transform="translate(19215 11891)"><g transform="translate(-19205.938 -11884.938)"><g transform="matrix(1, 0, 0, 1, -9.06, -6.06)" filter="url(#a)"><circle cx="51" cy="51" r="51" transform="translate(9 6)" fill="#fff" opacity="0.45"/></g><path d="M40,0A40,40,0,1,1,0,40,40,40,0,0,1,40,0Z" transform="translate(10.938 10.938)" fill="#cad473"/></g><g transform="translate(-19702.133 -11814.111) rotate(-8)"><g transform="translate(532.012 37.891)"><path d="M872.62,696.846a2.964,2.964,0,0,1-2.308,1.266,20.781,20.781,0,0,1-5.047-.182c-.322-.038-.662-.079-1.023-.125a31.238,31.238,0,0,1-8.878-2.369l0,0c-.029-.012-.058-.025-.088-.04-.777-.349-1.569-.746-2.371-1.2-.648-.37-1.3-.777-1.957-1.228-.015-.01-.029-.021-.044-.029-8.688-5.991-15.481-18.04-12.21-28.878a21.355,21.355,0,0,1,5.544-8.955l1.345.272,2.983.6a19.912,19.912,0,0,0,.689,9.824c3.309,9.739,14.017,14.082,21.848,25.838a18.423,18.423,0,0,1,.965,1.59,8.676,8.676,0,0,1,.573,1.308A2.882,2.882,0,0,1,872.62,696.846Z" transform="translate(-837.855 -655.1)" fill="#538a01"/></g><g transform="translate(541.921 57.005)" opacity="0.33"><path d="M1337.078,1592.731a2.939,2.939,0,0,1-2.264,1.26,10.144,10.144,0,0,1-1.527.1c-.067,0-.134,0-.2,0a33.333,33.333,0,0,1-3.359-.278c-.322-.038-.662-.079-1.024-.125a31.241,31.241,0,0,1-8.878-2.369l0,0c-.029-.013-.058-.025-.088-.04-3.491-5.7-7.533-12.39-7.533-12.39l.825-8.788s9.708,9.356,13.743,16.762a12.433,12.433,0,0,0,5.983,5.49,6.411,6.411,0,0,0,2.166.587c1.1.042,1.87-.522,1.826-2.216a8.513,8.513,0,0,0-.2-1.55c0-.019-.008-.04-.012-.058a8.239,8.239,0,0,1,.606,1.414A2.808,2.808,0,0,1,1337.078,1592.731Z" transform="translate(-1312.2 -1570.1)" fill="#4a6c01"/></g><g transform="translate(532.014 37.889)" opacity="0.33"><path d="M855.461,695.335l0,0c-.05-.025-.992-.5-2.457-1.243-.648-.37-1.3-.777-1.957-1.228a.488.488,0,0,0-.044-.029c-8.688-5.991-15.481-18.04-12.21-28.878A21.353,21.353,0,0,1,844.335,655l1.345.272a3.737,3.737,0,0,1,.075,2.12c-1.375,7.19,2.943,16.8,2.91,16.724Z" transform="translate(-837.954 -655)" fill="#4a6c01"/></g><g transform="translate(526.248 36.4)"><path d="M590.946,629.274a2.348,2.348,0,0,1-.543,1.416,3.1,3.1,0,0,1-2.714.708,21.779,21.779,0,0,1-4.7-1.278,30.084,30.084,0,0,1-12.866-8.011c-7.169-7.762-11.153-21.042-5.555-30.9a19.969,19.969,0,0,1,3.539-4.531,23.221,23.221,0,0,1,3.85-2.975l4.028,1.813a20.3,20.3,0,0,0-1.5,9.732c1.072,10.23,10.553,16.835,15.59,30.033a13.547,13.547,0,0,1,.84,2.991A5.117,5.117,0,0,1,590.946,629.274Z" transform="translate(-561.929 -583.7)" fill="#538a01"/></g><g transform="translate(526.248 39.374)" opacity="0.33"><path d="M590.946,768.7a2.348,2.348,0,0,1-.543,1.416c-1.375,1.531-4.771.368-7.412-.57a30.086,30.086,0,0,1-12.866-8.011c-7.169-7.763-11.153-21.042-5.555-30.9a19.969,19.969,0,0,1,3.539-4.531s-10.288,17.186-.226,27.092S584.205,771.426,590.946,768.7Z" transform="translate(-561.929 -726.1)" fill="#4a6c01"/></g><g transform="translate(552.008 80.972)"><path d="M1798.357,2718.4a2.347,2.347,0,0,1-.543,1.417,3.1,3.1,0,0,1-2.714.708s1.437-2.973,3.223-3.127A4.944,4.944,0,0,1,1798.357,2718.4Z" transform="translate(-1795.1 -2717.4)" fill="#4e2d00"/></g><g transform="translate(564.533 77.433)"><path d="M2396.955,2550.2a2.939,2.939,0,0,1-2.264,1.26v0a3.251,3.251,0,0,1,.1-1.046,3.542,3.542,0,0,1,1.826-2.217c.121-.067.252-.132.386-.194h0A2.8,2.8,0,0,1,2396.955,2550.2Z" transform="translate(-2394.684 -2548)" fill="#4e2d00"/></g><g transform="translate(536.277 31.213)"><path d="M1042,340.589a11.857,11.857,0,0,0,1.991-5.189l5.147.687-.777,7.472Z" transform="translate(-1042 -335.4)" fill="#538a01"/></g><g transform="translate(538.261 25.184)"><path d="M1137,52.809a7.827,7.827,0,0,0,5.139.685V49.327a2.542,2.542,0,0,0-2.962-2.509l-.084.015a2.541,2.541,0,0,0-2.093,2.5V51.57" transform="translate(-1137 -46.782)" fill="#4e2d00"/></g><g transform="translate(534.336 48.083)" opacity="0.33"><path d="M949.138,1143c-.146.46,6.946,20.7,13.144,24.447,0,0-6.25-.152-9.927-9.929S949.138,1143,949.138,1143Z" transform="translate(-949.12 -1143)" fill="#4a6c01"/></g><g transform="translate(542.552 50.026)" opacity="0.33"><path d="M1342.484,1236s5.327,9.546,9.379,11.719,8.878,11.635,8.878,11.635-9.463-8.9-10.758-11.635S1341.606,1239.718,1342.484,1236Z" transform="translate(-1342.409 -1236)" fill="#4a6c01"/></g><g transform="translate(536.425 60.349)" opacity="0.11"><g transform="translate(0)"><path d="M1049.117,1730.512a16.268,16.268,0,0,0,2.54,7.013,15.014,15.014,0,0,0,1.314,1.7.367.367,0,0,0,.516,0,.376.376,0,0,0,0-.516c-.1-.119-.192-.238-.286-.357l-.027-.036-.063-.084c-.05-.065-.1-.132-.146-.2-.176-.242-.349-.484-.514-.733-.336-.508-.648-1.034-.932-1.571-.14-.263-.271-.533-.4-.8-.063-.138-.125-.278-.186-.418l-.017-.038c-.017-.038-.031-.075-.046-.113-.029-.071-.057-.142-.086-.213a17.656,17.656,0,0,1-.57-1.719,16.488,16.488,0,0,1-.42-2.01.347.347,0,0,0-.681.092Z" transform="translate(-1049.115 -1730.169)" fill="#fff"/></g></g><g transform="translate(550.163 62.52)" opacity="0.11"><g transform="translate(0)"><path d="M1706.792,1834.627a24.915,24.915,0,0,0,4.669,5.968,21.874,21.874,0,0,0,1.69,1.412.4.4,0,0,0,.48-.623,29.41,29.41,0,0,1-2.753-2.521c-.43-.449-.846-.915-1.241-1.4-.1-.119-.194-.238-.29-.359l-.132-.167c-.025-.033-.05-.065-.077-.1.04.05-.025-.033-.038-.05-.19-.251-.378-.5-.558-.76-.4-.572-.792-1.155-1.153-1.757a.347.347,0,0,0-.47-.123A.354.354,0,0,0,1706.792,1834.627Z" transform="translate(-1706.747 -1834.105)" fill="#fff"/></g></g><g transform="translate(547.564 72.929)" opacity="0.11"><g transform="translate(0)"><path d="M1582.428,2333.565c.1.192.2.387.3.579s.211.361.326.537c.232.357.47.71.71,1.061.52.758,1.086,1.485,1.665,2.2.148.184.295.37.449.547s.347.357.522.531a.875.875,0,0,0,1.143.069.862.862,0,0,0,.224-1.124c-.242-.343-.483-.683-.746-1.009-.221-.276-.441-.555-.658-.835l.146.19c-.418-.541-.829-1.086-1.249-1.627l.144.188q-.41-.533-.808-1.074c-.165-.223-.326-.451-.506-.662-.146-.171-.292-.345-.439-.518a.787.787,0,0,0-.554-.229.816.816,0,0,0-.474.167A.8.8,0,0,0,1582.428,2333.565Z" transform="translate(-1582.328 -2332.386)" fill="#fff"/></g></g><g transform="translate(561.314 74.751)" opacity="0.11"><g transform="translate(0 0)"><path d="M2240.8,2421a10.684,10.684,0,0,1,.856.773c.131.131.253.273.382.408s.284.275.42.419a.762.762,0,0,0,1.195-.923,6.8,6.8,0,0,0-.827-1.046,10.306,10.306,0,0,0-.863-.794.885.885,0,0,0-.581-.24.837.837,0,0,0-.581.24.824.824,0,0,0-.24.581A.788.788,0,0,0,2240.8,2421Z" transform="translate(-2240.566 -2419.6)" fill="#fff"/></g></g><g transform="translate(525.487 24.723)"><path d="M552.426,84.723a10.788,10.788,0,0,1-2.379-.3,19.1,19.1,0,0,1-2.952-.944,24.947,24.947,0,0,1-4.3-1.473,28.138,28.138,0,0,1-4.138-2.287,30.011,30.011,0,0,1-3.791-3,30.842,30.842,0,0,1-3.321-3.626,29.078,29.078,0,0,1-4.715-8.794,26.361,26.361,0,0,1-1.264-10.267c.859-11.31,6.8-16.114,9.313-17.654a4.188,4.188,0,0,0,1.627-1.836,13.03,13.03,0,0,0,1.153-4.669,9.545,9.545,0,0,0-.073-2.007.614.614,0,0,1-.01-.123,2.589,2.589,0,0,1,1.059-2.429,6.079,6.079,0,0,1,2.588-.526c.207-.017.418-.031.643-.052a1.462,1.462,0,0,1,1.216.476A4.719,4.719,0,0,1,544,27.994a26.408,26.408,0,0,1,.054,3.706c-.109,2.473-.407,4.7-.42,4.792,0,.019-.006.036-.008.052a24.815,24.815,0,0,0-.493,8.205,18.242,18.242,0,0,0,1.794,6.012,24.011,24.011,0,0,0,5.834,7.1,8.528,8.528,0,0,1,1.87,1.993,19.086,19.086,0,0,0,3.252,3.28c1.59,1.427,3.57,3.2,5.525,5.3a37.44,37.44,0,0,1,5.456,7.305,6.788,6.788,0,0,1,.938,2.653,2.78,2.78,0,0,1-.547,2.033,4.469,4.469,0,0,1-3.138,1.4,17.708,17.708,0,0,1-4-.1,38.025,38.025,0,0,1-4.017-.729,4.633,4.633,0,0,1-.077,1.333,2.822,2.822,0,0,1-.959,1.619A4.052,4.052,0,0,1,552.426,84.723ZM538.951,27.682a11.278,11.278,0,0,1,.083,2.21,14.392,14.392,0,0,1-1.281,5.218,5.558,5.558,0,0,1-2.162,2.438c-2.333,1.429-7.846,5.905-8.659,16.582a25.012,25.012,0,0,0,1.2,9.735,27.7,27.7,0,0,0,4.493,8.379,27.415,27.415,0,0,0,14.842,9.906.736.736,0,0,1,.115.038,18.1,18.1,0,0,0,2.789.894c1.807.409,3.161.338,3.814-.2.554-.455.689-1.347.407-2.649l-.006-.025c-.445-1.993-2.751-5.511-5.423-9.582-1.514-2.306-3.23-4.922-4.819-7.593a67.189,67.189,0,0,1-4.257-8.222,27.53,27.53,0,0,1-2.229-8.184,15.035,15.035,0,0,1,.132-3.881,11.547,11.547,0,0,1,1.249-3.6.689.689,0,0,1,1.207.664,10.222,10.222,0,0,0-1.1,3.175,13.657,13.657,0,0,0-.117,3.522,21.2,21.2,0,0,0,.723,3.8,34.065,34.065,0,0,0,1.406,3.973,65.75,65.75,0,0,0,4.169,8.051c1.575,2.645,3.282,5.247,4.788,7.541,2.693,4.1,4.855,7.4,5.513,9.638a37.314,37.314,0,0,0,4.468.846,16.151,16.151,0,0,0,3.666.1,3.264,3.264,0,0,0,2.2-.877,1.438,1.438,0,0,0,.259-1.057,5.569,5.569,0,0,0-.769-2.1,36.165,36.165,0,0,0-5.262-7.036c-1.913-2.049-3.869-3.8-5.437-5.21-1.813-1.625-3.123-2.8-3.566-3.693a9.1,9.1,0,0,0-1.556-1.579,25.19,25.19,0,0,1-6.144-7.512,19.583,19.583,0,0,1-1.932-6.465,26.152,26.152,0,0,1,.508-8.636c.033-.257.307-2.379.407-4.65.186-4.305-.407-5.279-.6-5.475-.052-.056-.073-.054-.1-.052l-.656.052a5.711,5.711,0,0,0-1.989.336c-.123.075-.374.226-.384,1.193Z" transform="translate(-525.487 -24.723)"/></g><g transform="translate(537.87 30.64)"><path d="M1122.043,310.248a7.157,7.157,0,0,1-3.743-1.109l.781-1.136,0,0a5.7,5.7,0,0,0,1.4.627,4.957,4.957,0,0,0,3.125-.023.689.689,0,1,1,.453,1.3A6.041,6.041,0,0,1,1122.043,310.248Z" transform="translate(-1118.3 -308)"/></g></g></g></svg>