<svg xmlns="http://www.w3.org/2000/svg" width="54.555" height="60.665" viewBox="0 0 54.555 60.665"><path d="M249.411,85.326a.426.426,0,0,1,.487.467l-.373,3.528a.424.424,0,0,1-.18.3l-2.186,1.522a.427.427,0,0,0,.336.766l.846-.187a.427.427,0,0,1,.514.369l.373,3.329a.426.426,0,0,1-.139.366l-5.062,3.722a.1.1,0,0,0,.091.169l3.845-1.5a.424.424,0,0,1,.57.383c.178,5.243-2.469,10.79-3.021,11.887a.426.426,0,0,1-.313.228l-5.811.544a.427.427,0,0,0-.09.818l4.624.893a.427.427,0,0,1,.221.592c-.675,1.307-2.735,5.271-3.2,5.954-.483.705-6.228.23-7.646.084a.047.047,0,0,0-.021.091l5.482,1.852a.047.047,0,0,1,.015.08c-.531.466-4.505,3.953-5.269,4.632-.713.635-4.817-.542-5.863-.855a.024.024,0,0,0-.017.045l3.387,1.791a.024.024,0,0,1,0,.042c-.461.253-4.937,2.659-7.781,1.709-1.537-.513-2.991-.931-4.044-1.216l-.291-.079a2.815,2.815,0,0,1-.6-.237s14.478-5.929,23.561-31.266c5.179-14.448,5.877-16.467,5.952-16.706l.552.326a.3.3,0,0,1,.1.417c-.02.032-.041.067-.062.106a1.64,1.64,0,0,0-.031,1.525,2.612,2.612,0,0,1-.834,3,.426.426,0,0,0,.359.727Z" transform="translate(-195.72 -71.155)" fill="#81c83d"/><path d="M233.92,76.244l.615.363c-.075.238-.773,2.258-5.952,16.706-9.084,25.336-23.561,31.266-23.561,31.266a2.857,2.857,0,0,1-.66-.476,2.953,2.953,0,0,1-.734-1.128,7.321,7.321,0,0,1-.5-2.347,18.767,18.767,0,0,1,.572-3.817.119.119,0,0,1,.215-.04c.522.775,2.359,3.238,4.334,2.777a.092.092,0,0,0,.035-.164c-.717-.543-3.787-2.948-4.4-4.76l1.605-1.412c.946,1.567,2.895,4.237,5.341,4.559a.095.095,0,0,0,.075-.164,29.609,29.609,0,0,1-4.511-5.189c.659-.579,1.183-1.04,1.354-1.188a.048.048,0,0,0-.015-.08l-2.246-.759a3.075,3.075,0,0,1,0-.945c1.992.1,4.141.1,4.428-.323.225-.327.813-1.406,1.441-2.585a3.885,3.885,0,0,0,.942.532,19.3,19.3,0,0,1,5.441,3.717.093.093,0,0,0,.156-.065,4.131,4.131,0,0,0-2.353-3.8,13.169,13.169,0,0,1-3.233-2.191c.333-.638.624-1.2.809-1.558a.427.427,0,0,0-.221-.592l-4.624-.893a.427.427,0,0,1,.091-.818l5.809-.544a.429.429,0,0,0,.313-.228,32.35,32.35,0,0,0,1.638-3.95,7.577,7.577,0,0,0,1.724,2.571c1.166.949,3.593,3.129,4.268,5.524a.1.1,0,0,0,.182,0c.2-.592.379-2.214-1.869-4.974-2.618-3.214-3.473-3.428-3.645-5.3h0c.1-.4.2-.815.29-1.236.714-1.238,2.478-4.168,3.739-5.147a.176.176,0,0,1,.285.13c.042.863.273,3.256,1.5,4.188a12.211,12.211,0,0,1,2.6,3.449.1.1,0,0,0,.176-.071,17.3,17.3,0,0,0-1.961-4.77c-1.195-1.684-1.4-4.733-1.427-5.248a.217.217,0,0,1,.04-.135l3.64-4.949a.208.208,0,0,1,.352.026c.437.84,1.734,3.194,2.784,3.7a.148.148,0,0,0,.195-.207c-.555-.955-2.2-3.916-2.1-5.238a.443.443,0,0,1,.141-.295c.466-.429,2.282-2.038,3.1-1.839.564.137,1.283.982,1.771,1.64a.412.412,0,0,0,.728-.137,2.907,2.907,0,0,1,.947-1.569A.3.3,0,0,1,233.92,76.244Z" transform="translate(-182.452 -68.313)" fill="#9be147"/><path d="M94.291,60.541l2.246.759a.048.048,0,0,1,.015.08c-.171.149-.7.609-1.354,1.188l-.905.794-1.605,1.412c-.642.563-1.172,1.031-1.406,1.238-.713.635-4.817-.542-5.862-.855a.024.024,0,0,0-.017.045l3.385,1.791a.024.024,0,0,1,0,.042c-.461.253-4.937,2.659-7.781,1.709-.964-.322-1.895-.605-2.715-.844-.613-.177-1.163-.33-1.619-.451a2.879,2.879,0,0,1-.6-.236h0s14.478-5.929,23.56-31.266c5.193-14.485,5.879-16.477,5.951-16.707l.554.327a.3.3,0,0,1,.1.417c-.02.032-.041.067-.064.106a1.643,1.643,0,0,0-.031,1.525,2.608,2.608,0,0,1-.834,3,.427.427,0,0,0,.361.728l1.52-.23a.426.426,0,0,1,.487.467l-.372,3.528a.43.43,0,0,1-.181.3l-2.184,1.522a.426.426,0,0,0,.335.766l.846-.187a.426.426,0,0,1,.514.369l.374,3.329a.43.43,0,0,1-.14.366L101.807,39.3a.1.1,0,0,0,.092.169l3.843-1.5a.426.426,0,0,1,.57.384,19.214,19.214,0,0,1-.437,4.52c-.087.421-.185.834-.29,1.236-.2.771-.426,1.505-.657,2.182a32.35,32.35,0,0,1-1.638,3.95.429.429,0,0,1-.313.228l-5.809.544a.427.427,0,0,0-.091.818l4.624.893a.427.427,0,0,1,.221.592c-.185.36-.476.92-.809,1.558-.3.572-.632,1.2-.954,1.811-.628,1.18-1.216,2.258-1.441,2.585-.287.419-2.435.421-4.428.323-1.358-.067-2.644-.181-3.218-.24a.047.047,0,0,0-.021.091Z" transform="translate(-71.253 -18.461)" fill="#609d31"/><path d="M91.69,16.044l.614.362c-.071.23-.758,2.222-5.951,16.707-9.082,25.336-23.56,31.266-23.56,31.266h0a2.971,2.971,0,0,1-1.4-1.605,7.335,7.335,0,0,1-.5-2.347,18.856,18.856,0,0,1,.572-3.817.119.119,0,0,1,.215-.04c.522.775,2.359,3.238,4.334,2.777a.093.093,0,0,0,.036-.164c-.745-.564-4.028-3.137-4.46-4.967a.118.118,0,0,1,.009-.077l.929-2.032a.12.12,0,0,1,.216-.006c.519,1,2.8,5.068,5.853,5.47a.1.1,0,0,0,.076-.164c-.856-.79-4.114-3.907-5.219-6.516a3.081,3.081,0,0,1,0-2.372,26.687,26.687,0,0,1,3.388-6.169.2.2,0,0,1,.348.1c.116,1.036.625,3.526,2.872,4.414a19.379,19.379,0,0,1,5.442,3.717.091.091,0,0,0,.155-.064,4.129,4.129,0,0,0-2.353-3.8c-2.6-1.358-4.89-2.96-4.84-6.07a.693.693,0,0,1,.192-.469l4.587-4.8a.264.264,0,0,1,.436.082,8.544,8.544,0,0,0,1.931,3.058c1.166.949,3.593,3.129,4.269,5.524a.094.094,0,0,0,.181,0c.2-.592.381-2.216-1.867-4.976-2.871-3.523-3.621-3.44-3.677-5.894a.311.311,0,0,1,.037-.154c.321-.575,2.524-4.479,4.018-5.638a.176.176,0,0,1,.285.13c.044.861.273,3.256,1.5,4.188a12.153,12.153,0,0,1,2.6,3.449.1.1,0,0,0,.176-.072,17.339,17.339,0,0,0-1.96-4.768c-1.2-1.684-1.4-4.733-1.428-5.248a.208.208,0,0,1,.041-.135l3.639-4.951a.208.208,0,0,1,.352.027c.437.84,1.735,3.194,2.784,3.7a.148.148,0,0,0,.195-.207c-.555-.955-2.2-3.916-2.1-5.238a.44.44,0,0,1,.141-.295c.467-.429,2.282-2.038,3.1-1.839.565.137,1.283.981,1.771,1.64a.412.412,0,0,0,.728-.137,2.914,2.914,0,0,1,.947-1.569.3.3,0,0,1,.326-.012Z" transform="translate(-57.977 -15.628)" fill="#7bbc42"/><path d="M187.756,460.653l.291.079c-1.862,1.175-1.589.628-4.243,3.588a.371.371,0,0,1-.5.045l-.446-.34a.377.377,0,0,1-.064-.533,15.347,15.347,0,0,1,3.7-3.551,2.858,2.858,0,0,0,.66.476A2.819,2.819,0,0,0,187.756,460.653Z" transform="translate(-164.582 -404.149)" fill="#689b2d"/><path d="M45.528,400.444c.456.121,1.006.273,1.619.451-1.862,1.175-2.918,1.258-5.571,4.217a.372.372,0,0,1-.5.046l-.446-1.342a.377.377,0,0,1-.064-.533,15.348,15.348,0,0,1,3.7-3.551h0A2.886,2.886,0,0,0,45.528,400.444Z" transform="translate(-40.107 -351.455)" fill="#436f1e"/><g transform="translate(2.923 0.375)"><path d="M175.023,109.967a9.162,9.162,0,0,1-.6-2.942.176.176,0,0,0-.285-.13c-1.494,1.16-3.7,5.063-4.018,5.638a.311.311,0,0,0-.037.154c.039,1.695.409,2.18,1.58,3.478a6.887,6.887,0,0,1-.082-.982.311.311,0,0,1,.037-.154A32.606,32.606,0,0,1,175.023,109.967Z" transform="translate(-156.451 -95.516)" fill="#639633"/><path d="M215.678,47.23l-3.639,4.951a.208.208,0,0,0-.041.135,14.745,14.745,0,0,0,.737,3.88L217.3,49.6a.2.2,0,0,1,.1-.071,20.13,20.13,0,0,1-1.369-2.273.208.208,0,0,0-.352-.027Z" transform="translate(-193.137 -43.258)" fill="#639633"/><path d="M258.332,16.044a.3.3,0,0,0-.326.012,2.914,2.914,0,0,0-.947,1.569.412.412,0,0,1-.728.137c-.488-.659-1.206-1.5-1.771-1.64-.821-.2-2.636,1.409-3.1,1.839a.44.44,0,0,0-.141.295,7.121,7.121,0,0,0,.853,2.868.42.42,0,0,1,.037-.042c.467-.429,3.031-2.663,3.852-2.463a4,4,0,0,1,1.609,1.427c1.021-2.871,1.241-3.515,1.279-3.64Z" transform="translate(-227.542 -16.002)" fill="#639633"/><path d="M61.686,340.634a.119.119,0,0,0-.215.04,18.856,18.856,0,0,0-.572,3.817,7.335,7.335,0,0,0,.5,2.347,2.928,2.928,0,0,0,.735,1.127,2.87,2.87,0,0,0,.452.355,5.644,5.644,0,0,1-.187-1.333,23.068,23.068,0,0,1,.946-4.474A9.443,9.443,0,0,1,61.686,340.634Z" transform="translate(-60.9 -300.065)" fill="#639633"/><path d="M67.4,304.755l-.929,2.032a.118.118,0,0,0-.009.077,6.051,6.051,0,0,0,1.532,2.365l1.105-2.135a16.847,16.847,0,0,1-1.484-2.346.12.12,0,0,0-.216.006Z" transform="translate(-65.763 -268.649)" fill="#639633"/><path d="M126.374,170.638l-4.587,4.8a.693.693,0,0,0-.192.469,5.132,5.132,0,0,0,1.66,3.931,5.426,5.426,0,0,1-.162-1.434.693.693,0,0,1,.192-.469l4.587-4.8a.26.26,0,0,1,.2-.08,11.263,11.263,0,0,1-1.261-2.334.264.264,0,0,0-.435-.082Z" transform="translate(-114.017 -151.264)" fill="#639633"/><path d="M83.151,226.584a26.687,26.687,0,0,0-3.388,6.169,3.081,3.081,0,0,0,0,2.372,12.148,12.148,0,0,0,1.474,2.437,3.085,3.085,0,0,1,.027-2.312,28.374,28.374,0,0,1,3.128-5.842,6.751,6.751,0,0,1-.89-2.72.2.2,0,0,0-.348-.1Z" transform="translate(-77.199 -200.234)" fill="#639633"/></g><path d="M91.117,26.8l-1.521.23a.042.042,0,0,1-.051-.025.052.052,0,0,1,.012-.067c1.126-1.13,1.44-2.316.907-3.43a1.272,1.272,0,0,1,.019-1.179q.029-.051.056-.093a.674.674,0,0,0-.23-.937l-1.168-.689a.671.671,0,0,0-.736.033,3.167,3.167,0,0,0-1.087,1.77.037.037,0,0,1-.031.03.032.032,0,0,1-.036-.015,4.4,4.4,0,0,0-1.984-1.781c-.885-.215-2.362.929-3.445,1.927a.819.819,0,0,0-.261.54c-.082,1.031.754,2.871,1.473,4.236a17.429,17.429,0,0,1-1.648-2.634.582.582,0,0,0-.986-.076l-3.639,4.95a.585.585,0,0,0-.112.375c.031.6.25,3.69,1.5,5.445a11.4,11.4,0,0,1,1.242,2.556,7.945,7.945,0,0,0-1.527-1.679c-1.119-.848-1.32-3.206-1.355-3.908a.55.55,0,0,0-.889-.407,15.822,15.822,0,0,0-2.825,3.581,17.477,17.477,0,0,0,.127-2.671.789.789,0,0,0-.35-.633.808.808,0,0,0-.73-.087l-1.88.733,3.364-2.474.028-.023a.8.8,0,0,0,.261-.686l-.374-3.33a.8.8,0,0,0-.968-.692l-.846.187c-.018,0-.041.009-.058-.03a.043.043,0,0,1,.018-.064l2.184-1.522a.8.8,0,0,0,.339-.573l.373-3.528a.8.8,0,0,0-.915-.876l-1.522.23a.042.042,0,0,1-.051-.025.052.052,0,0,1,.012-.067c1.126-1.13,1.44-2.316.906-3.43a1.272,1.272,0,0,1,.019-1.178q.029-.051.056-.094a.673.673,0,0,0-.23-.937l-1.168-.69a.672.672,0,0,0-.736.033,3.167,3.167,0,0,0-1.087,1.77.037.037,0,0,1-.031.03.033.033,0,0,1-.035-.015,4.391,4.391,0,0,0-1.983-1.781c-.885-.215-2.362.929-3.445,1.927a.82.82,0,0,0-.261.54c-.082,1.032.754,2.871,1.473,4.236A17.439,17.439,0,0,1,63.63,17.2a.582.582,0,0,0-.985-.076l-3.639,4.951a.585.585,0,0,0-.112.375c.031.6.25,3.69,1.5,5.445a11.408,11.408,0,0,1,1.241,2.556A7.951,7.951,0,0,0,60.1,28.774c-1.118-.848-1.32-3.206-1.355-3.908a.55.55,0,0,0-.889-.407c-1.533,1.19-3.7,5-4.115,5.752a.675.675,0,0,0-.085.344c.043,1.915.536,2.46,1.851,3.915.5.554,1.123,1.243,1.91,2.208a8.038,8.038,0,0,1,1.832,3.377A15.508,15.508,0,0,0,55.365,35.6a8.306,8.306,0,0,1-1.822-2.909.638.638,0,0,0-1.052-.2l-4.588,4.8a1.068,1.068,0,0,0-.3.723c-.056,3.455,2.573,5.12,5.042,6.408a3.793,3.793,0,0,1,2.1,2.777A18.582,18.582,0,0,0,49.715,43.9c-2.057-.814-2.53-3.144-2.637-4.108a.572.572,0,0,0-1.008-.3,26.881,26.881,0,0,0-3.446,6.266,3.474,3.474,0,0,0,0,2.66,21.819,21.819,0,0,0,4.493,5.865c-2.386-1.041-4.157-4.26-4.525-4.972a.494.494,0,0,0-.889.022l-.929,2.031a.5.5,0,0,0-.032.32c.378,1.6,2.666,3.637,3.968,4.687-.74-.127-1.9-.687-3.2-2.629a.494.494,0,0,0-.889.16,19.142,19.142,0,0,0-.582,3.906,7.49,7.49,0,0,0,.521,2.474,3.332,3.332,0,0,0,.519.93A17.771,17.771,0,0,0,37.646,64.6a.751.751,0,0,0,.031.974l.416,1.253a.373.373,0,0,0,.128.18.749.749,0,0,0,1.008-.094A13.253,13.253,0,0,1,43.44,63.5c.358-.195.728-.4,1.136-.649.774.226,1.643.493,2.542.793a5.115,5.115,0,0,0,1.624.241,10.882,10.882,0,0,0,3.4-.645A19.932,19.932,0,0,0,55.2,61.9a.4.4,0,0,0-.007-.7l-.714-.378c1.769.372,2.869.375,3.282.007.184-.164.555-.491,1.018-.9A15.322,15.322,0,0,0,62.46,63.88c-.74-.127-1.9-.687-3.2-2.629a.494.494,0,0,0-.889.16,19.139,19.139,0,0,0-.582,3.906,7.493,7.493,0,0,0,.521,2.474,3.334,3.334,0,0,0,.519.93A17.772,17.772,0,0,0,55.4,72.11a.75.75,0,0,0,.13,1.064l.445.341a.749.749,0,0,0,1.008-.093c2.047-2.283,2.314-2.436,3.2-2.945.219-.126.487-.279.823-.488,1.018.278,2.4.679,3.866,1.167A5.112,5.112,0,0,0,66.5,71.4a10.882,10.882,0,0,0,3.4-.645,19.954,19.954,0,0,0,3.058-1.333.4.4,0,0,0-.007-.7l-.714-.378c1.769.372,2.869.374,3.282.007.8-.716,5.223-4.592,5.267-4.631a.418.418,0,0,0,.137-.391.424.424,0,0,0-.265-.32l-.014,0-2.984-1.008c.511.03,1.044.056,1.565.071,2.957.086,3.571-.2,3.793-.524.47-.685,2.413-4.42,3.227-5.994a.8.8,0,0,0-.416-1.111.362.362,0,0,0-.067-.02l-4.575-.884a.046.046,0,0,1-.013-.044c0-.032.02-.041.034-.044L87,52.9l.024,0a.8.8,0,0,0,.589-.43c.543-1.078,3.242-6.727,3.061-12.068a.789.789,0,0,0-.35-.633.808.808,0,0,0-.73-.087l-1.88.733,3.364-2.474.028-.023a.8.8,0,0,0,.261-.686L90.99,33.9a.8.8,0,0,0-.968-.693l-.846.187c-.018,0-.041.009-.058-.03a.043.043,0,0,1,.018-.064l2.184-1.522a.8.8,0,0,0,.339-.573l.373-3.528a.8.8,0,0,0-.915-.876ZM40.78,57.8a16.485,16.485,0,0,1,.434-3.182,9.317,9.317,0,0,0,1.358,1.462,3.465,3.465,0,0,0,3.039,1,.47.47,0,0,0,.351-.358.462.462,0,0,0-.175-.469c-1.761-1.333-3.918-3.339-4.3-4.671l.68-1.485c.868,1.552,3.027,4.838,5.892,5.215a.469.469,0,0,0,.379-.809c-.665-.614-4.035-3.807-5.128-6.388a2.721,2.721,0,0,1,.006-2.083,27.87,27.87,0,0,1,3.075-5.753,5.365,5.365,0,0,0,3.049,4.307,18.844,18.844,0,0,1,5.321,3.64.466.466,0,0,0,.788-.325A4.517,4.517,0,0,0,53,43.761c-2.816-1.47-4.683-3.008-4.639-5.732a.32.32,0,0,1,.089-.217l4.471-4.679a8.468,8.468,0,0,0,1.977,3.05c1.279,1.041,3.519,3.119,4.144,5.335a.469.469,0,0,0,.9.019c.261-.784.357-2.519-1.933-5.33-.8-.98-1.429-1.677-1.935-2.238-1.272-1.407-1.618-1.79-1.657-3.41A29.212,29.212,0,0,1,58.028,25.3c.1,1.15.439,3.169,1.623,4.067a11.9,11.9,0,0,1,2.5,3.331.47.47,0,0,0,.865-.351A17.616,17.616,0,0,0,61,27.464c-1.1-1.551-1.322-4.443-1.355-4.991l3.446-4.688c.661,1.237,1.8,3.133,2.83,3.627a.523.523,0,0,0,.681-.732c-1.042-1.791-2.127-4.05-2.049-5.02a.072.072,0,0,1,.022-.048c1.205-1.11,2.366-1.847,2.761-1.75a4.173,4.173,0,0,1,1.559,1.5.786.786,0,0,0,1.39-.258,2.641,2.641,0,0,1,.765-1.336l.31.183c-.3.862-1.45,4.136-5.851,16.412C60.848,43.355,54.746,51.1,50.447,55.318a31.723,31.723,0,0,1-8.125,6.017,2.575,2.575,0,0,1-1.066-1.314A6.879,6.879,0,0,1,40.78,57.8Zm2.3,5.036a13.9,13.9,0,0,0-4.356,3.512l-.367-1.107a.377.377,0,0,0-.127-.181,16.8,16.8,0,0,1,3.375-3.317,3.285,3.285,0,0,0,1.2.606c.232.062.493.133.775.211q-.254.142-.5.275Zm14.18-2.566c-.292.26-2.321.021-5.506-.934a.4.4,0,0,0-.3.734l2.8,1.48c-1.872.931-4.938,2.031-6.9,1.376-1.566-.523-3.046-.947-4.086-1.228a33.654,33.654,0,0,0,7.665-5.812c7.91-7.736,12.674-18.015,15.277-25.276,4.13-11.519,5.417-15.158,5.8-16.276l.092.054-.031.053a2.02,2.02,0,0,0-.044,1.873c.389.813.133,1.681-.761,2.578a.8.8,0,0,0-.15.934.786.786,0,0,0,.831.428l1.521-.23a.048.048,0,0,1,.043.014.05.05,0,0,1,.016.043l-.373,3.528a.051.051,0,0,1-.022.037l-2.184,1.522a.8.8,0,0,0,.629,1.439l.846-.187a.051.051,0,0,1,.062.045l.374,3.33a.052.052,0,0,1-.01.037l-5.04,3.707a.471.471,0,0,0,.449.818l3.835-1.5a.05.05,0,0,1,.047.006.045.045,0,0,1,.022.038c.175,5.159-2.453,10.656-2.981,11.706a.05.05,0,0,1-.031.026l-5.792.543-.024,0a.8.8,0,0,0-.17,1.535.36.36,0,0,0,.067.02l4.572.883a.052.052,0,0,1,.011.062c-.626,1.211-2.692,5.192-3.17,5.9-.475.359-4.221.256-7.309-.062a.418.418,0,0,0-.453.321.424.424,0,0,0,.26.493l.014.005,4.944,1.67c-1.174,1.029-4.188,3.675-4.844,4.259Zm16-18.287c.5.554,1.123,1.243,1.91,2.208a8.04,8.04,0,0,1,1.832,3.377,15.507,15.507,0,0,0-3.887-4.455,6.765,6.765,0,0,1-1.559-2.308q.12-.359.237-.736a8.461,8.461,0,0,0,1.466,1.913Zm-5.817,8.04A14.936,14.936,0,0,0,70.4,51.939a3.793,3.793,0,0,1,2.1,2.777A18.572,18.572,0,0,0,67.47,51.41a3.613,3.613,0,0,1-.593-.3l.569-1.083Zm-7.333,4.464c0,.02,0,.04,0,.059l-.211-.071.212.012Zm1.234,3.185a28.829,28.829,0,0,0,3.523,4.12,9.93,9.93,0,0,1-3.865-3.82ZM59.812,69.826c-.966.555-1.258.722-3.381,3.093l-.445-.342a16.793,16.793,0,0,1,3.375-3.317,3.291,3.291,0,0,0,.695.424l-.246.141Zm.265-.976a2.575,2.575,0,0,1-1.066-1.314,6.879,6.879,0,0,1-.476-2.219,16.487,16.487,0,0,1,.434-3.182A9.327,9.327,0,0,0,60.327,63.6a3.465,3.465,0,0,0,3.039,1,.47.47,0,0,0,.351-.358.462.462,0,0,0-.175-.469c-.585-.443-3.427-2.655-4.181-4.354l1.076-.946c1.049,1.641,2.969,4.04,5.376,4.356a.469.469,0,0,0,.379-.809,30.282,30.282,0,0,1-4.276-4.846l1.111-.975a.422.422,0,0,0-.129-.711l-.013,0L60.867,54.8a2.737,2.737,0,0,1,0-.277c.2.009.4.016.6.022,2.958.086,3.571-.2,3.793-.524.208-.3.706-1.206,1.266-2.254a4.355,4.355,0,0,0,.669.336,18.837,18.837,0,0,1,5.321,3.64.466.466,0,0,0,.788-.325,4.518,4.518,0,0,0-2.553-4.146,13.719,13.719,0,0,1-2.943-1.938c.262-.5.5-.958.678-1.307a.8.8,0,0,0-.416-1.111A.375.375,0,0,0,68,46.9l-4.575-.884a.046.046,0,0,1-.013-.044c0-.032.02-.041.034-.044l5.8-.544.024,0a.8.8,0,0,0,.589-.43,32.028,32.028,0,0,0,1.359-3.161A6.421,6.421,0,0,0,72.648,43.7c1.279,1.041,3.519,3.119,4.144,5.335a.466.466,0,0,0,.44.341h.011a.469.469,0,0,0,.446-.323c.261-.784.357-2.519-1.933-5.33-.8-.98-1.429-1.677-1.935-2.237C72.7,40.241,72.312,39.811,72.2,38.66q.138-.539.257-1.1a25.968,25.968,0,0,1,3.327-4.741c.1,1.15.439,3.169,1.623,4.067a11.892,11.892,0,0,1,2.5,3.331.47.47,0,0,0,.865-.351,17.62,17.62,0,0,0-2.017-4.887c-1.1-1.551-1.322-4.443-1.355-4.991L80.846,25.3c.661,1.237,1.8,3.133,2.829,3.627a.523.523,0,0,0,.681-.732c-1.042-1.791-2.127-4.05-2.05-5.02a.073.073,0,0,1,.022-.049c1.205-1.11,2.366-1.846,2.761-1.75a4.173,4.173,0,0,1,1.559,1.5.786.786,0,0,0,1.39-.258A2.641,2.641,0,0,1,88.8,21.28l.31.184c-.3.862-1.452,4.136-5.852,16.411C78.6,50.869,72.5,58.619,68.2,62.833a31.73,31.73,0,0,1-8.125,6.017ZM90.914,31.126a.052.052,0,0,1-.022.037l-2.184,1.521a.8.8,0,0,0,.629,1.439l.846-.187a.048.048,0,0,1,.04.008.05.05,0,0,1,.021.037l.374,3.33a.052.052,0,0,1-.01.037l-5.04,3.707a.471.471,0,0,0,.45.818l3.835-1.5a.051.051,0,0,1,.047.006.045.045,0,0,1,.022.037c.175,5.159-2.453,10.656-2.982,11.706a.05.05,0,0,1-.031.025l-5.792.543-.024,0a.8.8,0,0,0-.17,1.535.371.371,0,0,0,.067.02l4.572.883a.051.051,0,0,1,.014.02.049.049,0,0,1,0,.041c-.626,1.21-2.692,5.192-3.17,5.9-.475.359-4.22.256-7.309-.062a.418.418,0,0,0-.453.322.424.424,0,0,0,.261.492l.013,0,4.944,1.67c-1.134,1-4.178,3.666-4.844,4.26-.292.26-2.322.021-5.507-.935a.4.4,0,0,0-.3.735l2.8,1.48c-1.872.931-4.938,2.031-6.9,1.376-1.567-.523-3.046-.947-4.086-1.228A33.654,33.654,0,0,0,68.689,63.4C76.6,55.668,81.362,45.389,83.966,38.128c4.13-11.522,5.418-15.159,5.805-16.275l.091.054-.031.053a2.02,2.02,0,0,0-.044,1.873c.389.813.133,1.68-.761,2.578a.8.8,0,0,0-.15.934.786.786,0,0,0,.831.428l1.522-.23a.048.048,0,0,1,.043.014.05.05,0,0,1,.016.043Z" transform="translate(-37.482 -13.001)" fill="#284268"/></svg>